<?xml version="1.0" encoding="UTF-8"?>
<svg id="Layer_2" data-name="Layer 2" xmlns="http://www.w3.org/2000/svg" viewBox="0 0 176.68 162.46">
  <defs>
    <style>
      .cls-1 {
        fill: #fffaf5;
      }

      .cls-2 {
        fill: #f2e8bd;
      }

      .cls-3 {
        fill: #db6a72;
      }
    </style>
  </defs>
  <g id="Layer_1-2" data-name="Layer 1">
    <g>
      <polygon class="cls-3" points="23.68 7.46 1.37 20.35 23.44 33.09 25.6 29.35 10.01 20.35 25.84 11.21 23.68 7.46"/>
      <polygon class="cls-3" points="49.81 7.46 47.65 11.21 63.49 20.35 47.89 29.35 50.05 33.09 72.13 20.35 49.81 7.46"/>
      <rect class="cls-3" x="15.19" y="18.03" width="41.47" height="4.32" transform="translate(4.51 46.87) rotate(-69.66)"/>
      <path class="cls-1" d="M3.64,29.92c0,1.74-.81,3.15-1.82,3.15s-1.82-1.41-1.82-3.15,.81-3.15,1.82-3.15,1.82,1.41,1.82,3.15Z"/>
    </g>
    <polygon class="cls-2" points="52.03 153.83 45.75 156.18 43.4 162.46 41.06 156.18 34.78 153.83 41.06 151.49 43.4 145.2 45.75 151.49 52.03 153.83"/>
    <polygon class="cls-2" points="171.52 32.23 165.24 34.57 162.89 40.85 160.55 34.57 154.27 32.23 160.55 29.88 162.89 23.6 165.24 29.88 171.52 32.23"/>
    <polygon class="cls-2" points="176.68 54.47 174.36 55.65 173.61 58.52 172.58 55.74 170.15 54.8 172.47 53.62 173.22 50.75 174.25 53.53 176.68 54.47"/>
    <polygon class="cls-2" points="62.75 85.79 59.98 89.5 60.9 93.77 57.27 91.34 52.8 92.56 55.57 88.84 54.64 84.57 58.27 87 62.75 85.79"/>
  </g>
</svg>