<?xml version="1.0" encoding="UTF-8"?>
<svg id="Layer_2" data-name="Layer 2" xmlns="http://www.w3.org/2000/svg" viewBox="0 0 106.81 83.56">
  <defs>
    <style>
      .cls-1 {
        fill: #fff;
      }

      .cls-2 {
        fill: #f4d967;
      }

      .cls-3 {
        fill: #f2e8bd;
      }

      .cls-4 {
        fill: #91832b;
      }

      .cls-5 {
        fill: #525454;
      }

      .cls-6 {
        fill: #b7b3b4;
      }
    </style>
  </defs>
  <g id="Layer_1-2" data-name="Layer 1">
    <path class="cls-6" d="M71.79,38.06l24.3-.69,.53,18.61c-8.73,4.27-16.8,4.28-24.3,.69l-.53-18.61Z"/>
    <path class="cls-2" d="M106.66,27.05c-1.45,13.41-13.49,23.11-26.91,21.66-6.44-.7-12.34-3.92-16.4-8.97-4.06-5.05-5.96-11.5-5.26-17.94,.7-6.44,3.92-12.34,8.97-16.4C72.11,1.34,78.56-.55,85,.14c13.41,1.45,23.11,13.49,21.66,26.91Z"/>
    <path class="cls-5" d="M94.19,57.07c-6.86,2.77-13.3,2.88-19.37,.66l.06,2.13c5.98,2.86,12.41,2.85,19.38-.55l-.07-2.24Z"/>
    <path class="cls-6" d="M91.75,60.39c-5.04,1.91-9.79,2-14.3,.5l.11,3.73c4.41,2.11,9.16,2.11,14.3-.41l-.11-3.82Z"/>
    <path class="cls-4" d="M71.38,25.32s.07-.02,.18,.06c.11,.08,.25,.23,.39,.43,.28,.4,.58,.96,.83,1.43,.21,.39,.41,.96,.62,1.39-.61-.25-1.18-.59-1.69-1.04-.32-.28-.58-.86-.64-1.36-.03-.25-.01-.48,.05-.64,.06-.15,.13-.23,.25-.27Zm23.94-3.14c.12-.01,.17,.01,.24,.09,.07,.07,.14,.22,.17,.41,.07,.37-.01,.89-.17,1.17-.56,.96-1.33,1.69-2.26,2.27,.16-.53,.34-1.26,.49-1.72,.18-.54,.36-1.1,.6-1.51,.24-.41,.5-.65,.93-.7Zm-11.76-.58c.15,0,.25,.04,.35,.15,.1,.11,.2,.28,.26,.5,.13,.44,.14,1.03,.05,1.44-.11,.54-.34,1.05-.64,1.54-.3-.44-.55-.9-.65-1.44-.08-.39-.07-1.01,.06-1.48,.06-.24,.16-.43,.26-.55,.1-.12,.18-.16,.31-.16h0Zm-.01-.65c-.33,0-.61,.17-.8,.4-.19,.23-.31,.51-.39,.8-.16,.59-.17,1.26-.07,1.77,.13,.7,.44,1.33,.85,1.87-.97,1.24-2.38,2.25-3.8,2.76-1.68,.6-3.49,.71-5.13,.28-.29-.61-.56-1.35-.85-1.89-.24-.46-.54-1.04-.87-1.5-.17-.23-.34-.44-.55-.59-.21-.15-.49-.24-.77-.15-.32,.11-.55,.37-.65,.66-.11,.29-.13,.62-.09,.94,.08,.65,.37,1.34,.85,1.77,.73,.65,1.58,1.03,2.46,1.31,3.32,7.1,6.45,17.94,6.45,17.94,.04,.18,.23,.29,.41,.24,.18-.05,.28-.24,.22-.41,0,0-2.98-10.35-6.27-17.56,1.64,.31,3.4,.17,5.01-.41,1.52-.55,3.01-1.59,4.06-2.92,.34,.35,.67,.71,1.08,.97,1.18,.74,2.6,1.09,3.9,.97,1.42-.13,2.6-.45,3.67-.87-2.24,7.81-4.71,19.96-4.71,19.96-.04,.18,.08,.35,.26,.39,.18,.04,.35-.08,.38-.26,0,0,2.59-12.69,4.84-20.38,1.32-.66,2.35-1.59,3.09-2.85,.27-.47,.35-1.08,.25-1.62-.05-.27-.15-.53-.33-.73-.18-.2-.48-.33-.79-.29-.66,.08-1.12,.51-1.42,1.02-.3,.51-.48,1.1-.66,1.63-.22,.64-.45,1.61-.68,2.37-1.08,.5-2.36,.84-3.95,.99-1.14,.11-2.44-.21-3.5-.88-.4-.25-.71-.58-1.02-.91,.39-.6,.7-1.23,.84-1.92,.11-.53,.11-1.19-.06-1.76-.09-.29-.22-.56-.42-.77-.2-.21-.5-.36-.83-.35Z"/>
    <path class="cls-1" d="M83.27,3.48c-.78-.24-1.6-.37-2.43-.4-5.5-.18-11.1,3.33-14.43,7.51-3.07,3.85-5.43,8.92-5.3,13.94,.07,2.67,1.14,7.07,3.85,8.3-.31-1.52-1.09-2.97-1.38-4.55s-.38-3.34-.25-5.01c.62-8.06,6.27-15.02,13.98-17.39,3.61-1.11,7.72-.54,10.8,1.66-.43-.31-.79-1.28-1.18-1.71-.5-.56-1.08-1.04-1.71-1.45s-1.27-.69-1.96-.9Z"/>
    <path class="cls-4" d="M83.5,30.24c-.18,0-.32,.16-.31,.34l.55,17.44c0,.18,.15,.33,.34,.32,.18,0,.33-.16,.32-.34l-.55-17.44c0-.18-.16-.33-.34-.32Z"/>
    <polygon class="cls-3" points="4.44 79.12 3.43 81.34 4.44 83.56 2.22 82.55 0 83.56 1.01 81.34 0 79.12 2.22 80.14 4.44 79.12"/>
  </g>
</svg>