<?xml version="1.0" encoding="UTF-8"?>
<svg id="Layer_2" data-name="Layer 2" xmlns="http://www.w3.org/2000/svg" viewBox="0 0 266.81 165.33">
  <defs>
    <style>
      .cls-1 {
        fill: #6f3831;
      }

      .cls-2 {
        fill: #9dbbdf;
      }

      .cls-3 {
        fill: #d1d1d1;
      }

      .cls-4 {
        fill: #c5e0ed;
      }

      .cls-5 {
        fill: #3f3f3f;
      }

      .cls-6 {
        fill: #fa957d;
      }

      .cls-7 {
        fill: #b4d8bf;
      }

      .cls-8 {
        fill: #a3c1aa;
      }

      .cls-9 {
        fill: #c0e2c9;
      }

      .cls-10 {
        fill: #95726d;
      }

      .cls-11 {
        fill: #bf715f;
      }

      .cls-12 {
        fill: #b9d6bf;
      }

      .cls-13 {
        fill: #ca7865;
      }

      .cls-14 {
        fill: #525454;
      }

      .cls-15 {
        fill: #d1ecfd;
      }

      .cls-16 {
        fill: #31191a;
      }

      .cls-17 {
        fill: #6387aa;
      }

      .cls-18 {
        fill: #aeaeaf;
      }
    </style>
  </defs>
  <g id="Layer_1-2" data-name="Layer 1">
    <path class="cls-4" d="M28.46,165.33H244.11c15.75,0,22.12-24.45,19.53-40.75-2.1-13.19-15.88-28.08-20.09-40.75-4.59-13.81-.31-31.77-10.19-42.45-9.56-10.34-27.27-7.42-40.19-13.02C179.6,22.47,166.42-1.24,139.4,.05c-29.47,1.41-40.52,20.75-51.22,26.89-13.07,7.49-31.73,5.85-41.89,16.98-10.3,11.28-10.37,32.54-16.13,46.7-5.33,13.09-17.65,21.99-20.66,34.53-3.9,16.26,4.75,40.19,18.96,40.19Z"/>
    <path class="cls-15" d="M141.28,0c-.27,0-.54,0-.82,.01-.08,0-.15,0-.23,0-.28,0-.55,.02-.83,.03-1.84,.09-3.61,.25-5.31,.47-2.13,.28-4.15,.65-6.08,1.11-2.31,.55-4.48,1.21-6.53,1.97-.68,.25-1.35,.52-2,.79-.98,.41-1.94,.84-2.86,1.29-1.23,.6-2.42,1.23-3.55,1.88-1.14,.65-2.23,1.33-3.28,2.03-1.05,.7-2.06,1.41-3.03,2.13-.49,.36-.96,.72-1.43,1.09-7.03,5.47-12.12,11.25-17.14,14.13-3.68,2.11-7.79,3.49-12.04,4.64-.94,.26-1.89,.5-2.85,.74-1.43,.36-2.87,.7-4.3,1.05-.48,.12-.95,.23-1.43,.35-.48,.12-.95,.23-1.42,.35-.95,.24-1.89,.49-2.82,.75-.7,.19-1.39,.4-2.08,.61-.92,.28-1.82,.58-2.71,.9-.22,.08-.44,.16-.66,.24-.44,.17-.88,.34-1.31,.51-.22,.09-.43,.18-.64,.27-.64,.28-1.27,.57-1.89,.88-.41,.21-.82,.42-1.22,.64-.6,.33-1.19,.69-1.77,1.06-.38,.25-.76,.51-1.13,.78-.56,.4-1.09,.83-1.62,1.28-.17,.15-.35,.3-.52,.46-.51,.47-1.01,.96-1.48,1.48-.15,.16-.3,.33-.44,.5-.06,.07-.12,.14-.18,.21-.09,.1-.18,.21-.26,.31-.06,.07-.12,.15-.18,.22-.08,.11-.17,.21-.25,.32-.06,.08-.12,.15-.18,.23-.08,.1-.15,.2-.22,.3-.07,.09-.13,.18-.2,.27-.07,.09-.13,.19-.2,.28-.06,.09-.13,.18-.19,.27-.07,.1-.14,.2-.2,.3-.06,.09-.12,.19-.19,.28-.06,.09-.12,.18-.17,.27-.07,.11-.13,.21-.2,.32-.05,.09-.1,.17-.16,.26-.12,.2-.25,.41-.37,.62-.05,.09-.11,.19-.16,.28-.07,.12-.14,.25-.21,.38-.04,.07-.08,.15-.12,.22-.07,.13-.14,.27-.21,.4-.04,.07-.07,.14-.11,.21-.07,.13-.13,.26-.2,.39-.04,.08-.08,.16-.12,.25-.07,.13-.13,.27-.19,.4-.03,.07-.06,.13-.1,.2-.07,.14-.14,.29-.2,.44-.03,.06-.06,.12-.08,.19-.07,.16-.14,.32-.21,.47,0,0,0,0,0,0,9.14,.95,21.4,5.57,32.97,20.64,7.47,9.73,13.57,34.53,22.34,43.11,9.13,8.94,23.88,8.88,33.5,17.29,10.14,8.87,21.26,31.58,21.26,31.58h93.27c.13,0,.26,0,.4,0,.05,0,.11,0,.16,0,.08,0,.17,0,.25-.01,.05,0,.1,0,.16,0,.08,0,.16-.01,.24-.02,.05,0,.11,0,.16-.01,.09,0,.18-.02,.27-.03,.04,0,.08,0,.12-.01,.12-.01,.24-.03,.36-.05,0,0,.02,0,.03,0,0,0,0,0,0,0,.13-.02,.25-.04,.38-.06,.04,0,.09-.02,.13-.02,.09-.02,.17-.03,.26-.05,.05-.01,.09-.02,.14-.03,.08-.02,.17-.04,.25-.06,.04-.01,.08-.02,.13-.03,.09-.02,.18-.05,.27-.07,.03,0,.07-.02,.1-.03,.12-.03,.25-.07,.37-.11,.12-.04,.24-.08,.37-.12,.03-.01,.06-.02,.09-.03,.09-.03,.19-.07,.28-.1,.03-.01,.06-.02,.08-.03,.09-.03,.18-.07,.27-.11,.03-.01,.07-.03,.1-.04,.09-.04,.18-.07,.27-.11,.03-.01,.06-.03,.09-.04,.24-.11,.47-.22,.7-.33,0,0,0,0,0,0,0,0-13.89-13.86-15.52-24.27-1.29-8.19-.17-28.66-1.77-36.8-2.27-11.55-10.83-26.42-6.6-37.41,3.31-8.59,7.45-12.61,10.74-17.65-.99-2.29-2.3-4.41-4.05-6.31-9.54-10.32-27.2-7.43-40.11-12.99-.02-.01-.05-.02-.08-.03-.21-.09-.42-.19-.64-.29-.21-.1-.42-.2-.63-.31-.01,0-.02-.01-.04-.02-.19-.1-.39-.2-.58-.31-.06-.03-.12-.07-.18-.1-.15-.09-.3-.17-.46-.26-.04-.02-.08-.05-.13-.08-.17-.1-.34-.2-.5-.3-.05-.03-.11-.07-.16-.1-.16-.1-.31-.2-.47-.3-.06-.04-.13-.09-.2-.13-.14-.09-.29-.19-.43-.29-.08-.05-.15-.11-.23-.16-.13-.09-.27-.19-.41-.28-.07-.05-.14-.1-.21-.15-.14-.1-.28-.2-.43-.31-.08-.06-.16-.11-.23-.17-.13-.1-.26-.19-.39-.29-.09-.07-.18-.13-.26-.2-.13-.1-.26-.2-.39-.3-.07-.06-.14-.11-.21-.17-.15-.11-.29-.23-.44-.35-.07-.05-.13-.11-.2-.16-.15-.12-.3-.24-.45-.36-.06-.05-.13-.1-.19-.15-.13-.11-.27-.22-.4-.33-.19-.16-.38-.32-.57-.48-.26-.22-.53-.44-.79-.66-.18-.16-.37-.32-.55-.47-.26-.22-.52-.45-.78-.67-.17-.15-.34-.3-.51-.45-.51-.44-1.02-.89-1.54-1.34-.66-.58-1.32-1.15-2-1.74-.24-.2-.48-.41-.71-.62-.23-.2-.46-.4-.7-.6-.24-.21-.49-.41-.73-.62-.24-.21-.49-.41-.74-.62-.4-.33-.79-.66-1.2-.99-.08-.07-.17-.13-.25-.2-.16-.13-.32-.26-.49-.39-.08-.06-.16-.13-.24-.19-.17-.14-.34-.27-.51-.41-.1-.08-.2-.16-.3-.24-.15-.12-.3-.23-.45-.35-.12-.09-.24-.18-.36-.27-.14-.11-.29-.22-.43-.33-.12-.09-.23-.17-.35-.26-.14-.11-.29-.22-.43-.33-.12-.09-.25-.18-.37-.27-.14-.11-.29-.21-.44-.32-.11-.08-.22-.15-.32-.23-.17-.12-.34-.24-.5-.36-.09-.06-.18-.12-.27-.19-.18-.12-.36-.25-.54-.37-.1-.07-.2-.13-.3-.2-.18-.12-.36-.24-.54-.36-.07-.04-.14-.09-.21-.13-.21-.14-.43-.28-.64-.42,0,0,0,0,0,0-.03-.02-.07-.04-.1-.06-.24-.15-.49-.31-.74-.46-.1-.06-.19-.12-.29-.18-.19-.12-.38-.23-.58-.35-.29-.17-.58-.34-.87-.5-.22-.12-.44-.25-.66-.37-.07-.04-.15-.08-.22-.12,0,0,0,0,0,0-.18-.1-.36-.19-.54-.28-.12-.07-.25-.13-.37-.2-.15-.08-.31-.15-.46-.23-.16-.08-.31-.16-.47-.24-.14-.07-.28-.14-.43-.2-.17-.08-.34-.16-.51-.24-.16-.07-.31-.14-.47-.21-.16-.07-.32-.14-.48-.21-.17-.07-.34-.14-.51-.22-.15-.06-.3-.13-.45-.19-.18-.07-.36-.14-.54-.22-.15-.06-.29-.11-.44-.17-.17-.07-.35-.13-.52-.19-.16-.06-.32-.12-.48-.18-.16-.06-.33-.11-.5-.17-.17-.06-.34-.12-.51-.17-.28-.09-.57-.18-.86-.27-.03,0-.07-.02-.1-.03-.3-.09-.61-.18-.92-.26-.06-.02-.12-.03-.18-.05-.09-.03-.18-.05-.28-.07-.08-.02-.16-.04-.24-.06-.1-.03-.21-.05-.31-.08-.07-.02-.13-.03-.2-.05-.11-.03-.22-.05-.34-.08-.06-.01-.13-.03-.19-.04-.11-.03-.23-.05-.34-.08-.07-.01-.13-.03-.2-.04-.11-.02-.22-.05-.33-.07-.07-.02-.15-.03-.22-.04-.11-.02-.21-.04-.32-.06-.07-.01-.14-.03-.21-.04-.11-.02-.23-.04-.34-.06-.07-.01-.14-.02-.21-.04-.11-.02-.23-.04-.34-.06-.08-.01-.16-.03-.23-.04-.1-.02-.2-.03-.31-.05-.09-.01-.18-.03-.27-.04-.1-.01-.2-.03-.3-.04-.09-.01-.19-.02-.28-.04-.09-.01-.19-.02-.28-.04-.09-.01-.18-.02-.26-.03-.11-.01-.21-.02-.32-.04-.07,0-.14-.01-.21-.02-.12-.01-.24-.02-.36-.04-.08,0-.16-.01-.24-.02-.11,0-.21-.02-.32-.03-.09,0-.19-.01-.28-.02-.11,0-.21-.02-.32-.02-.07,0-.15,0-.22-.01-.12,0-.24-.02-.37-.02-.11,0-.22-.01-.33-.01-.08,0-.17,0-.25-.01-.11,0-.23,0-.34,0-.09,0-.18,0-.27,0h0c-.05,0-.11,0-.16,0-.14,0-.29,0-.43,0-.2,0-.4,0-.6,0h0Z"/>
    <path class="cls-7" d="M249.47,133.25c2.06-.05,4.06,.76,6.2,1.07,.32,.04,.67,.04,1.01,.06,2.14,.09,4.62-.27,6.55,.29,.74,.21,1.4,.57,1.91,1.16,3.78,4.3,.21,7.79-1.7,10.95-2.57,4.24-.51,5.81-4.55,9.41-2.8,2.49-7.18,1.39-11.09,1.62-1.17,.07-2.29,.24-3.32,.68-2.13,.91-3.44,3.21-5.53,4.21-3.92,1.9-5.93,.61-8.43,1.92-.28,.15-.56,.41-.82,.72h-13.52c1.9-3.95,4.76-11.33,7.15-13.75,2.05-2.08,4.4-1.74,6.33-3.93,2.15-2.45,2.73-7.77,5.34-9.72,2.85-2.12,4.7-.81,7.66-1.65,1.9-.54,3.44-2.36,5.35-2.84,.48-.12,.96-.18,1.44-.19Z"/>
    <path class="cls-8" d="M239.77,100.43c1.01,.01,2.12,.17,3.35,.51,.26,.07,.52,.15,.78,.24,5.92,1.93,6.48,10.71,3.74,18.31-2.53,7.02-5.31,7.14-7.44,11.03-1.7,3.1-.81,5.78-3.73,9.11-2.78,3.17-5.77,2.88-8.86,7.04-2.68,3.61-1.93,6.5-3.6,9.41-2.56,4.45-4.69,4.35-6.24,6.31-.61,.7-.94,1.96-1.14,2.94h-10.57c-.42-3.7-.35-11.38,.17-13.78,.8-3.71,4.43-6.09,5.3-9.79,.73-3.1-.35-6.03,.45-9.11,.87-3.36,4.05-4.7,5.48-7.47,1.71-3.32,1.1-7.49,2.64-10.9,2.37-5.25,5.46-4.86,7.81-6.69,3.88-3.01,6.41-7.23,11.86-7.16Z"/>
    <path class="cls-10" d="M244.03,150.42s.04,0,.06,0h0c.27,.07,.32,.43,.07,.57-6.91,3.87-16.91,8.57-22.94,14.33h-.87c6.12-6.12,16.48-10.93,23.51-14.87,.05-.03,.11-.04,.17-.04h0Z"/>
    <path class="cls-9" d="M257.24,134.42c-.55,0-1.08-.03-1.57-.1-2.63-.38-5.06-1.52-7.64-.88-1.64,.41-3.01,1.81-4.57,2.54l3.55,21.88c4.1-.47,8.89,.99,11.88-1.67,.7-.62,1.22-1.19,1.61-1.71l-3.25-20.05Zm5.99,.25c-.27-.08-.56-.14-.86-.18l1.81,11.15c1.92-2.86,4.29-6.02,.96-9.81-.51-.58-1.17-.94-1.91-1.16Z"/>
    <path class="cls-10" d="M258.07,143.25c-.08-.02-.16,0-.23,.03-2.72,1.53-6.16,3.84-9.05,5.16-.15,.07-.23,.25-.15,.41,.07,.15,.26,.22,.41,.15,2.97-1.36,6.42-3.68,9.1-5.18,.24-.13,.2-.5-.07-.57Z"/>
    <path class="cls-12" d="M232.29,103.66c-1.43,1.26-2.79,2.69-4.38,3.92-1.99,1.54-4.5,1.51-6.66,4.62l18.71,18.76c.07-.15,.15-.3,.23-.46,2.13-3.89,4.92-4.01,7.44-11.03,.03-.11,.09-.21,.12-.32l-15.47-15.5Zm10.83-2.72c-2.64-.73-4.69-.63-6.44-.04l12.4,12.43c.62-5.63-.83-10.75-5.18-12.16-.27-.08-.53-.17-.78-.23h0Z"/>
    <path class="cls-10" d="M230.89,122.62s.03,0,.05,0c.01,0,.02,0,.03,0,.17,.06,.26,.26,.18,.42-5.98,12.72-13.95,28.87-19.64,42.27h-.66c5.71-13.48,13.74-29.75,19.75-42.53,.05-.12,.17-.19,.29-.18Z"/>
    <path class="cls-10" d="M239,108.43c-.13-.04-.27,.01-.34,.12-1.51,2.22-4.08,5.17-5.05,8.87-.05,.17,.04,.34,.21,.39,.17,.04,.34-.06,.38-.23,.93-3.52,3.42-6.4,4.97-8.68,.12-.17,.04-.41-.17-.47h0Z"/>
    <path class="cls-7" d="M15.11,137.37c-1.8-.04-3.54,.66-5.4,.93-.28,.04-.59,.04-.88,.05-1.86,.08-4.03-.23-5.71,.25-.65,.19-1.22,.5-1.67,1.01-3.29,3.75-.18,6.79,1.49,9.55,2.24,3.7,.44,5.07,3.97,8.2,2.44,2.17,6.26,1.21,9.66,1.41,1.01,.06,2,.21,2.89,.59,1.86,.8,3,2.79,4.82,3.67,3.42,1.66,5.17,.53,7.34,1.67,.25,.13,.48,.36,.71,.62h11.78c-1.66-3.44-4.14-9.87-6.23-11.98-1.79-1.81-3.84-1.52-5.52-3.43-1.87-2.13-2.38-6.77-4.66-8.47-2.48-1.85-4.09-.71-6.68-1.44-1.65-.47-2.99-2.06-4.66-2.47-.42-.1-.84-.15-1.25-.16Z"/>
    <path class="cls-8" d="M23.56,108.76c-.88,.01-1.84,.15-2.92,.45-.22,.06-.45,.13-.68,.21-5.16,1.68-5.64,9.34-3.26,15.96,2.2,6.12,4.63,6.22,6.49,9.61,1.48,2.7,.7,5.04,3.25,7.94,2.42,2.77,5.03,2.51,7.72,6.13,2.34,3.15,1.68,5.67,3.14,8.2,2.23,3.88,4.09,3.79,5.44,5.49,.54,.61,.82,1.71,.99,2.57h9.21c.36-3.23,.3-9.92-.15-12.01-.69-3.24-3.86-5.31-4.62-8.53-.63-2.7,.3-5.26-.39-7.94-.76-2.93-3.53-4.1-4.78-6.51-1.49-2.9-.96-6.53-2.3-9.5-2.07-4.58-4.75-4.24-6.81-5.83-3.38-2.62-5.59-6.3-10.33-6.24Z"/>
    <path class="cls-10" d="M19.85,152.34s-.03,0-.05,0h0c-.24,.06-.28,.38-.06,.49,6.02,3.38,14.74,7.47,19.99,12.49h.76c-5.33-5.33-14.36-9.52-20.49-12.96-.05-.03-.1-.04-.15-.03h0Z"/>
    <path class="cls-9" d="M8.34,138.39c.47,0,.94-.02,1.37-.09,2.3-.33,4.41-1.32,6.66-.77,1.43,.36,2.63,1.58,3.98,2.21l-3.09,19.07c-3.57-.4-7.75,.86-10.35-1.45-.61-.54-1.06-1.03-1.4-1.49l2.84-17.48Zm-5.22,.21c.24-.07,.49-.12,.75-.16l-1.58,9.72c-1.67-2.49-3.74-5.25-.84-8.55,.45-.51,1.02-.82,1.67-1.01Z"/>
    <path class="cls-10" d="M7.62,146.08c.07-.02,.14,0,.2,.03,2.37,1.33,5.37,3.34,7.89,4.5,.14,.06,.2,.22,.13,.35-.06,.13-.22,.19-.36,.13-2.59-1.18-5.59-3.21-7.93-4.52-.21-.12-.17-.43,.06-.49Z"/>
    <path class="cls-12" d="M30.08,111.58c1.24,1.1,2.43,2.35,3.81,3.42,1.74,1.35,3.92,1.32,5.8,4.03l-16.31,16.35c-.06-.13-.13-.26-.2-.4-1.86-3.39-4.28-3.5-6.49-9.62-.03-.09-.07-.18-.1-.28l13.48-13.51Zm-9.44-2.37c2.3-.64,4.09-.55,5.61-.03l-10.81,10.84c-.54-4.9,.72-9.37,4.52-10.6,.23-.07,.46-.14,.68-.2h0Z"/>
    <path class="cls-10" d="M31.3,128.11s-.03,0-.05,0c0,0-.02,0-.03,0-.15,.05-.23,.22-.16,.37,5.21,11.09,12.15,25.16,17.12,36.84h.58c-4.98-11.75-11.98-25.93-17.21-37.07-.05-.1-.15-.16-.26-.16Z"/>
    <path class="cls-10" d="M24.23,115.74c.11-.03,.23,.01,.3,.11,1.31,1.94,3.56,4.5,4.41,7.73,.05,.14-.04,.3-.19,.34-.15,.04-.3-.05-.33-.2-.81-3.07-2.98-5.58-4.33-7.56-.1-.15-.03-.36,.14-.41h0Z"/>
    <path class="cls-2" d="M157.51,127.35s.29-7.68-1.95-11.72c-1.39-2.51-2.41-4.9-6.78-7.94-4.45-3.1-14.59-7.76-14.59-7.76l-20.91-2.74s-12.46,3.36-19.54,6.52c-4.21,1.88-6.1,3.56-8.29,7.62-6.07,11.23-10.34,28.9-10.74,39.69-.25,6.58,5.66,8.92,5.66,8.92h77.31l-.17-32.57Z"/>
    <path class="cls-6" d="M80.36,159.92c.02-5.6,8.32-16.62,15.77-17.4l38.91,7.03,10.89-1.88,4.54,4.8,7.2,7.46H80.36Z"/>
    <path class="cls-1" d="M101.27,117.16c-.1,0-.18,.06-.22,.15-3.61,8.86-5.36,16.29-5.16,25.21,0,.13,.11,.24,.24,.24,.13,0,.24-.11,.24-.25-.19-8.85,1.53-16.2,5.12-25.02,.07-.16-.05-.34-.23-.33Z"/>
    <path class="cls-16" d="M113.83,77.09c-.35-.65-.94-1.34-1.17-2.04-.32-.96-.14-2.29-.18-3.3-.18-4.17-.34-8.59,1.25-12.54,1.35-3.37,4.13-6.12,7.73-6.92,5.74-1.27,13.12-1.92,18.19,1.69,4.4,3.13,5.8,9.12,3.63,13.98-.81,1.81-3.02,3.07-4.07,4.8-.88,1.43-2.31,6.21-4.3,6.28-3.94,.14-7.89,.14-11.84,.09-1.32-.02-2.82-.04-4.1,.29-.78,.2-1.63,.88-2.46,.81-1.18-.09-1.78-1.5-2.26-2.4-.14-.25-.27-.5-.4-.75Z"/>
    <path class="cls-6" d="M113.28,97.18c1.81-7.86,2.74-20.76,2.74-20.76l21.76,5.39s-2.38,9.35-4.06,20.79c-1.02,6.98-22.03,1.45-20.44-5.42Z"/>
    <path class="cls-13" d="M116.02,76.41s-.13,1.79-.39,4.44c.13-.14,.21-.19,.25,.03,1,6.12,3.08,14.7,9.82,17.03,2.86,.99,6,1.08,8.73,.19,1.57-9.3,3.35-16.3,3.35-16.3l-21.76-5.4Z"/>
    <path class="cls-6" d="M143.17,67.4c.08,.37,.14,.64,.16,.77,.38,2.54,.24,5.11,.11,7.66-.23,4.6-.97,9.19-2.26,13.61-2.02,6.87-9.35,8.84-15.46,6.73-6.74-2.33-8.33-7.82-9.33-13.94-.12-.76-.74,1.51-2.24,.54-3.12-2-4.37-9.76-.91-11.09,.88-.34,1.7-.1,2.29,.62s.71,1.64,1.22,2.34c.11,.15,1.76-2.36,1.92-2.55,.95-1.14,1.97-2.3,3.01-3.37,.13-.14,.27-.28,.34-.45,.11-.27,.06-.58,.02-.87-.16-1.02-.96-3.76,.27-4.28,.95-.4,2.96,.55,3.95,.75,1.6,.32,3.21,.56,4.84,.71,2.69,.26,5.45,.28,8.03-.5,1.04-.31,2.05-.76,2.98-1.32-.02,.01,.73,3.1,1.07,4.63Z"/>
    <path class="cls-16" d="M118.13,73.66c0-.18,0-.36,0-.54,0-.45,0-.9,.13-1.33s.41-.83,.82-1.01c-.05-.07-.1-.14-.15-.21-.91,.83-1.48,1.95-2.03,3.05-.69,1.38-.32,3.55-.43,5.14-.03,.41,.1,3.12-.23,3.34,.07-.05,.12-.02,.15,.13,1,6.12,2.6,11.61,9.33,13.94,6.1,2.11,13.44,.14,15.46-6.73,.08-.28,.16-.56,.24-.84-.9,1.4-2.2,3.16-3.58,4.07-4.35,2.88-9.78,2.65-13.8,.13-3.58-2.24-5.26-7.56-5.57-11.49-.2-2.55-.32-5.11-.33-7.66Z"/>
    <path class="cls-11" d="M114.3,73.95c-.35-.07-.69,.03-.93,.26-.47,.45-.62,1.28-.61,2.2,.01,.92,.21,1.95,.59,2.81,.38,.86,.96,1.59,1.76,1.79,.13,.03,.26-.04,.29-.17,.03-.13-.05-.26-.17-.29-.59-.15-1.09-.73-1.44-1.52-.35-.79-.54-1.77-.55-2.62-.01-.85,.18-1.58,.46-1.85,.14-.13,.27-.18,.49-.13,.22,.05,.53,.22,.9,.58,.1,.1,.25,.09,.34,0,.09-.1,.09-.25-.01-.34-.41-.39-.78-.62-1.13-.7Z"/>
    <path class="cls-17" d="M114.2,91.99c-.72,.16-1.3,.43-1.75,.8-1.31,2.09-2.09,5.54-1.88,7.53,0,0,3.94,7.93,15,9.27,3.56,.43,7.14-.75,9.18-3.7,1.93-2.78-.42-7.18-.42-7.18,0,0-2.39,4.72-11.82,1.24-7.27-2.68-8.3-7.97-8.3-7.97Z"/>
    <path class="cls-1" d="M145.99,121.1c-.14,0-.25,.13-.23,.27,1.05,7.74,1.54,15.31,.99,22.58-.01,.14,.09,.26,.22,.27,.14,0,.25-.1,.26-.23,.55-7.31,.05-14.92-1-22.68-.01-.12-.12-.22-.25-.21Z"/>
    <polygon class="cls-14" points="152.53 116.36 211.08 116.36 199.52 159.51 140.97 159.51 152.53 116.36"/>
    <polygon class="cls-5" points="140.97 159.51 104.71 159.51 105.48 157.18 139.33 157.18 150.81 115.63 209.39 115.63 211.08 116.36 152.53 116.36 140.97 159.51"/>
    <path class="cls-3" d="M69.99,159.29v6.04H229.79c4.04,0,7.71-.94,11.03-2.63v-3.41H69.99Z"/>
    <path class="cls-18" d="M181.18,129.57c-.25,1.21-1.44,2.18-2.64,2.18-.58,0-1.08-.23-1.41-.64-.32-.41-.44-.97-.31-1.54,.12-.58,.47-1.13,.96-1.54,.49-.41,1.1-.64,1.68-.64,1.2,0,1.98,.98,1.72,2.18Z"/>
  </g>
</svg>