<?xml version="1.0" encoding="UTF-8"?>
<svg id="Layer_2" data-name="Layer 2" xmlns="http://www.w3.org/2000/svg" viewBox="0 0 291.57 180.68">
  <defs>
    <style>
      .cls-1 {
        fill: #6f3831;
      }

      .cls-2 {
        fill: #9dbbdf;
      }

      .cls-3 {
        fill: #d1d1d1;
      }

      .cls-4 {
        fill: #c5e0ed;
      }

      .cls-5 {
        fill: #3f3f3f;
      }

      .cls-6 {
        fill: #fa957d;
      }

      .cls-7 {
        fill: #b4d8bf;
      }

      .cls-8 {
        fill: #a3c1aa;
      }

      .cls-9 {
        fill: #c0e2c9;
      }

      .cls-10 {
        fill: #95726d;
      }

      .cls-11 {
        fill: #bf715f;
      }

      .cls-12 {
        fill: #b9d6bf;
      }

      .cls-13 {
        fill: #ca7865;
      }

      .cls-14 {
        fill: #525454;
      }

      .cls-15 {
        fill: #d1ecfd;
      }

      .cls-16 {
        fill: #31191a;
      }

      .cls-17 {
        fill: #6387aa;
      }

      .cls-18 {
        fill: #aeaeaf;
      }
    </style>
  </defs>
  <g id="Layer_1-2" data-name="Layer 1">
    <path class="cls-4" d="M31.1,180.68h235.67c17.21,0,24.17-26.72,21.34-44.54-2.29-14.41-17.35-30.69-21.96-44.54-5.02-15.09-.33-34.72-11.13-46.39-10.45-11.3-29.8-8.1-43.92-14.23C196.27,24.55,181.86-1.35,152.34,.06c-32.21,1.54-44.28,22.68-55.98,29.38-14.29,8.18-34.67,6.4-45.77,18.56-11.26,12.33-11.33,35.56-17.63,51.03-5.82,14.31-19.29,24.03-22.58,37.73-4.26,17.76,5.19,43.92,20.72,43.92Z"/>
    <path class="cls-15" d="M154.39,0c-.3,0-.59,0-.89,.01-.08,0-.17,0-.25,0-.3,0-.6,.02-.91,.03-2.01,.1-3.95,.27-5.81,.51-2.33,.3-4.54,.71-6.64,1.21-2.53,.6-4.9,1.33-7.14,2.16-.75,.28-1.48,.57-2.19,.86-1.07,.45-2.12,.92-3.13,1.41-1.35,.65-2.64,1.34-3.88,2.06-1.24,.72-2.44,1.46-3.58,2.22-1.15,.76-2.25,1.54-3.32,2.33-.53,.4-1.05,.79-1.57,1.19-7.68,5.98-13.25,12.3-18.73,15.44-4.02,2.3-8.52,3.82-13.16,5.07-1.03,.28-2.07,.55-3.11,.8-1.56,.39-3.13,.76-4.7,1.14-.52,.13-1.04,.25-1.56,.38-.52,.13-1.04,.26-1.56,.39-1.03,.26-2.06,.53-3.08,.82-.76,.21-1.52,.43-2.27,.66-1,.31-1.99,.63-2.96,.98-.24,.09-.48,.18-.73,.27-.48,.18-.96,.37-1.43,.56-.24,.1-.47,.2-.7,.3-.7,.3-1.39,.62-2.07,.96-.45,.23-.9,.46-1.33,.7-.66,.36-1.3,.75-1.93,1.16-.42,.27-.83,.55-1.24,.85-.61,.44-1.2,.91-1.77,1.4-.19,.16-.38,.33-.57,.5-.56,.51-1.1,1.05-1.62,1.62-.16,.18-.33,.36-.49,.55-.07,.08-.13,.16-.2,.23-.1,.11-.19,.23-.28,.34-.07,.08-.13,.16-.19,.24-.09,.12-.18,.23-.28,.35-.07,.08-.13,.17-.19,.25-.08,.11-.16,.22-.25,.33-.07,.1-.14,.2-.21,.29-.07,.1-.15,.21-.22,.31-.07,.1-.14,.2-.21,.3-.07,.11-.15,.22-.22,.33-.07,.1-.14,.2-.2,.31-.06,.1-.13,.2-.19,.3-.07,.11-.15,.23-.22,.35-.06,.09-.11,.19-.17,.28-.14,.22-.27,.45-.4,.68-.06,.1-.12,.2-.18,.3-.08,.14-.15,.27-.23,.41-.04,.08-.09,.16-.13,.24-.08,.15-.16,.29-.23,.44-.04,.08-.08,.15-.12,.23-.07,.14-.14,.28-.22,.42-.05,.09-.09,.18-.13,.27-.07,.14-.14,.29-.21,.44-.04,.07-.07,.15-.1,.22-.08,.16-.15,.32-.22,.48-.03,.07-.06,.14-.09,.2-.08,.17-.16,.34-.23,.52,0,0,0,0,0,0,9.98,1.04,23.39,6.09,36.03,22.56,8.17,10.64,14.83,37.73,24.41,47.11,9.98,9.77,26.1,9.71,36.61,18.9,11.09,9.69,23.24,34.51,23.24,34.51h101.93c.14,0,.29,0,.43,0,.06,0,.12,0,.18,0,.09,0,.18,0,.28-.01,.06,0,.11,0,.17-.01,.09,0,.18-.01,.26-.02,.06,0,.12,0,.18-.02,.1,0,.19-.02,.29-.03,.05,0,.09,0,.14-.02,.13-.02,.27-.03,.4-.05,0,0,.02,0,.03,0,0,0,0,0,0,0,.14-.02,.27-.04,.41-.07,.05,0,.1-.02,.15-.03,.09-.02,.19-.03,.28-.05,.05-.01,.1-.02,.15-.03,.09-.02,.18-.04,.28-.06,.05-.01,.09-.02,.14-.03,.1-.02,.2-.05,.3-.08,.04,0,.07-.02,.11-.03,.14-.04,.27-.08,.4-.12,.13-.04,.27-.08,.4-.13,.03-.01,.07-.02,.1-.03,.1-.04,.21-.07,.31-.11,.03-.01,.06-.02,.09-.04,.1-.04,.2-.08,.3-.12,.04-.01,.07-.03,.11-.04,.1-.04,.19-.08,.29-.12,.03-.01,.07-.03,.1-.04,.26-.11,.52-.24,.77-.36,0,0,0,0,0,0,0,0-15.17-15.15-16.96-26.52-1.41-8.95-.18-31.32-1.93-40.21-2.48-12.63-11.83-28.87-7.21-40.88,3.62-9.39,8.14-13.78,11.73-19.28-1.08-2.5-2.51-4.82-4.42-6.89-10.43-11.27-29.72-8.12-43.84-14.19-.03-.01-.06-.02-.08-.03-.23-.1-.46-.21-.69-.32-.23-.11-.46-.22-.69-.34-.01,0-.03-.01-.04-.02-.21-.11-.43-.22-.64-.34-.07-.04-.13-.08-.2-.11-.17-.09-.33-.19-.5-.29-.05-.03-.09-.06-.14-.08-.18-.11-.37-.22-.55-.33-.06-.04-.12-.07-.17-.11-.17-.11-.34-.21-.51-.33-.07-.05-.14-.09-.21-.14-.16-.1-.31-.21-.47-.31-.08-.06-.17-.12-.25-.17-.15-.1-.3-.2-.44-.31-.08-.05-.16-.11-.23-.17-.16-.11-.31-.22-.47-.34-.08-.06-.17-.13-.25-.19-.14-.11-.29-.21-.43-.32-.1-.07-.19-.15-.29-.22-.14-.11-.29-.22-.43-.33-.08-.06-.16-.12-.23-.18-.16-.13-.32-.25-.48-.38-.07-.06-.15-.12-.22-.17-.16-.13-.33-.26-.5-.4-.07-.05-.14-.11-.21-.17-.15-.12-.29-.24-.44-.36-.21-.17-.42-.35-.62-.52-.29-.24-.58-.48-.87-.73-.2-.17-.4-.34-.61-.52-.28-.24-.57-.49-.86-.74-.19-.16-.37-.32-.56-.49-.55-.48-1.12-.97-1.68-1.46-.72-.63-1.44-1.26-2.18-1.9-.26-.22-.52-.45-.78-.67-.25-.22-.51-.44-.76-.65-.26-.23-.53-.45-.8-.68-.27-.23-.53-.45-.8-.68-.43-.36-.87-.72-1.31-1.08-.09-.07-.18-.15-.27-.22-.18-.14-.35-.29-.53-.43-.09-.07-.17-.14-.26-.21-.19-.15-.37-.3-.56-.44-.11-.09-.22-.17-.33-.26-.16-.13-.33-.26-.49-.38-.13-.1-.26-.2-.39-.3-.16-.12-.32-.24-.47-.36-.13-.1-.25-.19-.38-.29-.16-.12-.32-.24-.48-.36-.13-.1-.27-.2-.4-.3-.16-.12-.32-.23-.48-.35-.12-.08-.24-.17-.35-.25-.18-.13-.37-.26-.55-.39-.1-.07-.2-.14-.3-.2-.2-.14-.39-.27-.59-.41-.11-.07-.22-.15-.33-.22-.2-.13-.39-.26-.59-.39-.07-.05-.15-.1-.23-.15-.23-.15-.47-.3-.7-.45,0,0,0,0,0,0-.04-.02-.07-.05-.11-.07-.27-.17-.54-.34-.81-.5-.1-.06-.21-.13-.32-.19-.21-.13-.42-.26-.63-.38-.31-.19-.63-.37-.95-.55-.24-.14-.48-.27-.73-.4-.08-.04-.16-.09-.24-.13,0,0,0,0,0,0-.19-.11-.39-.21-.59-.31-.14-.07-.27-.14-.41-.21-.17-.09-.33-.17-.5-.25-.17-.09-.34-.17-.51-.26-.15-.08-.31-.15-.46-.22-.18-.09-.37-.18-.55-.26-.17-.08-.34-.15-.51-.23-.17-.08-.35-.16-.52-.23-.18-.08-.37-.16-.55-.24-.16-.07-.33-.14-.49-.21-.2-.08-.39-.16-.59-.24-.16-.06-.32-.13-.48-.19-.19-.07-.38-.14-.57-.21-.18-.06-.35-.13-.53-.19-.18-.06-.36-.12-.54-.18-.18-.06-.37-.13-.56-.19-.31-.1-.62-.2-.93-.29-.04-.01-.08-.02-.11-.03-.33-.1-.67-.2-1.01-.29-.07-.02-.13-.04-.2-.05-.1-.03-.2-.05-.3-.08-.09-.02-.18-.05-.26-.07-.11-.03-.23-.06-.34-.09-.07-.02-.14-.04-.21-.05-.12-.03-.24-.06-.37-.09-.07-.02-.14-.03-.21-.05-.12-.03-.25-.06-.37-.08-.07-.02-.15-.03-.22-.05-.12-.03-.24-.05-.36-.08-.08-.02-.16-.03-.24-.05-.12-.02-.23-.05-.35-.07-.08-.01-.15-.03-.23-.04-.13-.02-.25-.05-.37-.07-.08-.01-.15-.03-.23-.04-.12-.02-.25-.04-.37-.06-.08-.01-.17-.03-.26-.04-.11-.02-.22-.04-.33-.05-.1-.01-.19-.03-.29-.04-.11-.02-.22-.03-.33-.05-.1-.01-.21-.03-.31-.04-.1-.01-.2-.03-.31-.04-.1-.01-.19-.02-.29-.03-.12-.01-.23-.03-.35-.04-.08,0-.15-.02-.23-.02-.13-.01-.26-.03-.4-.04-.09,0-.18-.02-.27-.02-.12-.01-.23-.02-.35-.03-.1,0-.2-.01-.31-.02-.11,0-.23-.02-.35-.02-.08,0-.16,0-.24-.01-.13,0-.27-.02-.4-.02-.12,0-.24-.01-.36-.02-.09,0-.18,0-.27-.01-.13,0-.25,0-.38-.01-.1,0-.2,0-.29,0h0c-.06,0-.12,0-.18,0-.16,0-.31,0-.47,0-.22,0-.44,0-.66,0h0Z"/>
    <path class="cls-7" d="M272.62,145.62c2.25-.05,4.44,.83,6.78,1.17,.35,.05,.73,.05,1.1,.06,2.33,.1,5.05-.3,7.16,.32,.81,.23,1.53,.63,2.09,1.26,4.13,4.7,.23,8.52-1.86,11.97-2.81,4.64-.55,6.35-4.98,10.28-3.06,2.72-7.85,1.51-12.12,1.77-1.27,.07-2.51,.26-3.63,.74-2.33,1-3.76,3.5-6.04,4.61-4.29,2.08-6.48,.67-9.21,2.1-.31,.16-.61,.45-.89,.78h-14.77c2.08-4.32,5.2-12.38,7.81-15.02,2.24-2.27,4.81-1.9,6.92-4.3,2.35-2.67,2.99-8.49,5.84-10.62,3.11-2.32,5.13-.89,8.38-1.81,2.07-.59,3.76-2.58,5.85-3.1,.53-.13,1.05-.19,1.57-.21Z"/>
    <path class="cls-8" d="M262.03,109.75c1.1,.02,2.31,.19,3.66,.56,.28,.08,.56,.16,.85,.26,6.47,2.1,7.08,11.71,4.09,20.01-2.76,7.67-5.8,7.8-8.13,12.06-1.85,3.38-.88,6.32-4.07,9.96-3.04,3.47-6.31,3.14-9.68,7.69-2.93,3.94-2.11,7.1-3.93,10.29-2.79,4.86-5.13,4.76-6.82,6.89-.67,.76-1.03,2.14-1.24,3.22h-11.55c-.46-4.05-.38-12.44,.18-15.06,.87-4.06,4.84-6.66,5.79-10.7,.79-3.38-.38-6.59,.49-9.96,.95-3.67,4.43-5.14,5.99-8.16,1.87-3.63,1.21-8.19,2.89-11.91,2.59-5.74,5.96-5.32,8.54-7.32,4.23-3.29,7.01-7.9,12.96-7.82Z"/>
    <path class="cls-10" d="M266.68,164.38s.04,0,.06,0h0c.3,.07,.35,.47,.08,.62-7.55,4.23-18.48,9.37-25.07,15.66h-.95c6.69-6.69,18.01-11.94,25.69-16.25,.06-.03,.12-.05,.18-.04h0Z"/>
    <path class="cls-9" d="M281.11,146.89c-.6,0-1.17-.03-1.72-.11-2.88-.41-5.53-1.66-8.35-.96-1.8,.45-3.29,1.98-4.99,2.77l3.88,23.91c4.48-.51,9.71,1.08,12.98-1.83,.77-.68,1.33-1.29,1.76-1.87l-3.55-21.92Zm6.55,.27c-.3-.09-.61-.15-.94-.2l1.98,12.18c2.1-3.13,4.69-6.58,1.05-10.72-.56-.64-1.28-1.03-2.09-1.26Z"/>
    <path class="cls-10" d="M282.02,156.54c-.09-.02-.17,0-.25,.03-2.97,1.67-6.73,4.2-9.9,5.64-.17,.08-.25,.28-.17,.45,.08,.17,.28,.24,.45,.16,3.25-1.49,7.01-4.02,9.94-5.66,.27-.15,.22-.55-.08-.62Z"/>
    <path class="cls-12" d="M253.86,113.28c-1.56,1.38-3.05,2.94-4.78,4.29-2.17,1.69-4.92,1.65-7.28,5.05l20.45,20.5c.08-.17,.16-.33,.25-.5,2.33-4.25,5.37-4.38,8.13-12.06,.03-.12,.09-.23,.13-.35l-16.9-16.94Zm11.83-2.97c-2.88-.8-5.13-.69-7.03-.04l13.55,13.59c.68-6.15-.91-11.74-5.66-13.29-.29-.09-.58-.18-.86-.26h0Z"/>
    <path class="cls-10" d="M252.32,134s.04,0,.06,0c.01,0,.02,0,.03,0,.19,.06,.28,.28,.19,.46-6.53,13.9-15.24,31.55-21.46,46.19h-.73c6.25-14.73,15.02-32.51,21.58-46.48,.06-.13,.19-.2,.32-.2Z"/>
    <path class="cls-10" d="M261.19,118.49c-.14-.04-.29,.02-.37,.14-1.65,2.43-4.46,5.65-5.52,9.69-.06,.18,.05,.37,.23,.42,.18,.05,.37-.07,.41-.25,1.01-3.85,3.74-6.99,5.43-9.48,.13-.19,.04-.45-.18-.51h0Z"/>
    <path class="cls-7" d="M16.52,150.12c-1.96-.05-3.87,.73-5.91,1.02-.3,.04-.64,.04-.96,.05-2.03,.09-4.4-.26-6.24,.27-.71,.21-1.33,.55-1.82,1.1-3.6,4.1-.2,7.42,1.62,10.43,2.45,4.04,.48,5.54,4.34,8.96,2.67,2.37,6.84,1.32,10.56,1.54,1.11,.07,2.18,.23,3.16,.65,2.03,.87,3.28,3.05,5.26,4.01,3.74,1.81,5.65,.58,8.02,1.83,.27,.14,.53,.39,.78,.68h12.87c-1.81-3.76-4.53-10.79-6.81-13.09-1.95-1.98-4.19-1.66-6.03-3.75-2.05-2.33-2.6-7.4-5.09-9.26-2.71-2.02-4.47-.77-7.3-1.58-1.81-.51-3.27-2.25-5.09-2.7-.46-.11-.92-.17-1.37-.18Z"/>
    <path class="cls-8" d="M25.75,118.86c-.96,.01-2.02,.17-3.19,.49-.24,.07-.49,.14-.74,.22-5.64,1.83-6.17,10.2-3.56,17.44,2.41,6.69,5.06,6.8,7.09,10.51,1.62,2.95,.77,5.51,3.55,8.68,2.65,3.02,5.5,2.74,8.44,6.7,2.55,3.44,1.84,6.19,3.43,8.97,2.43,4.24,4.47,4.14,5.95,6,.59,.67,.9,1.86,1.08,2.81h10.07c.4-3.53,.33-10.84-.16-13.12-.76-3.54-4.22-5.8-5.05-9.33-.69-2.95,.33-5.75-.43-8.68-.83-3.2-3.86-4.48-5.22-7.11-1.63-3.17-1.05-7.14-2.52-10.38-2.26-5-5.2-4.63-7.44-6.38-3.69-2.86-6.1-6.88-11.29-6.82Z"/>
    <path class="cls-10" d="M21.69,166.48s-.04,0-.06,0h0c-.26,.06-.3,.41-.07,.54,6.58,3.69,16.11,8.16,21.85,13.65h.83c-5.83-5.83-15.7-10.41-22.39-14.16-.05-.03-.1-.04-.16-.04h0Z"/>
    <path class="cls-9" d="M9.12,151.23c.52,0,1.02-.03,1.49-.09,2.51-.36,4.82-1.45,7.28-.84,1.57,.39,2.87,1.72,4.35,2.42l-3.38,20.83c-3.9-.44-8.47,.94-11.31-1.59-.67-.59-1.16-1.13-1.53-1.63l3.1-19.1Zm-5.71,.23c.26-.07,.54-.13,.82-.18l-1.72,10.62c-1.83-2.72-4.09-5.73-.92-9.34,.49-.56,1.11-.9,1.82-1.1Z"/>
    <path class="cls-10" d="M8.32,159.64c.07-.02,.15,0,.22,.03,2.59,1.45,5.87,3.65,8.62,4.92,.15,.07,.21,.24,.15,.39-.07,.15-.24,.21-.39,.14-2.83-1.29-6.11-3.5-8.67-4.94-.23-.13-.19-.47,.07-.54Z"/>
    <path class="cls-12" d="M32.87,121.94c1.36,1.2,2.66,2.56,4.17,3.74,1.9,1.47,4.29,1.44,6.34,4.41l-17.82,17.87c-.07-.14-.14-.29-.22-.43-2.03-3.71-4.68-3.82-7.09-10.51-.03-.1-.08-.2-.11-.3l14.73-14.77Zm-10.31-2.59c2.51-.7,4.47-.6,6.13-.04l-11.81,11.84c-.59-5.36,.79-10.23,4.94-11.58,.25-.08,.5-.16,.74-.22h0Z"/>
    <path class="cls-10" d="M34.21,140s-.03,0-.05,0c0,0-.02,0-.03,0-.17,.06-.25,.24-.17,.4,5.69,12.12,13.28,27.5,18.71,40.26h.63c-5.44-12.84-13.09-28.34-18.81-40.51-.05-.11-.16-.18-.28-.17Z"/>
    <path class="cls-10" d="M26.48,126.48c.12-.04,.25,.01,.32,.12,1.44,2.12,3.89,4.92,4.82,8.44,.05,.16-.04,.32-.2,.37-.16,.04-.32-.06-.36-.22-.88-3.35-3.26-6.09-4.73-8.26-.11-.16-.03-.39,.16-.45h0Z"/>
    <path class="cls-2" d="M172.13,139.17s.32-8.4-2.13-12.81c-1.52-2.74-2.64-5.35-7.41-8.68-4.86-3.39-15.95-8.48-15.95-8.48l-22.86-3s-13.62,3.67-21.36,7.12c-4.61,2.05-6.66,3.89-9.06,8.33-6.63,12.27-11.29,31.59-11.74,43.38-.27,7.19,6.18,9.74,6.18,9.74h84.49l-.19-35.6Z"/>
    <path class="cls-6" d="M87.82,174.76c.02-6.12,9.09-18.16,17.24-19.02l42.53,7.68,11.9-2.06,4.96,5.25,7.87,8.15H87.82Z"/>
    <path class="cls-1" d="M110.67,128.04c-.1,0-.2,.07-.24,.17-3.95,9.68-5.85,17.81-5.64,27.55,0,.14,.12,.26,.27,.26,.15,0,.26-.12,.26-.27-.21-9.67,1.67-17.7,5.6-27.34,.07-.18-.06-.37-.25-.36Z"/>
    <path class="cls-16" d="M124.4,84.25c-.38-.71-1.03-1.47-1.28-2.22-.34-1.04-.15-2.5-.2-3.6-.2-4.55-.37-9.39,1.36-13.7,1.47-3.68,4.51-6.69,8.45-7.56,6.27-1.39,14.34-2.09,19.88,1.85,4.8,3.42,6.34,9.97,3.97,15.27-.88,1.97-3.3,3.36-4.45,5.25-.96,1.57-2.52,6.78-4.7,6.86-4.31,.15-8.62,.15-12.93,.1-1.44-.02-3.08-.04-4.48,.32-.86,.22-1.78,.96-2.69,.89-1.29-.1-1.95-1.64-2.47-2.62-.15-.27-.3-.55-.44-.82Z"/>
    <path class="cls-6" d="M123.79,106.2c1.98-8.59,3-22.69,3-22.69l23.78,5.89s-2.6,10.21-4.44,22.72c-1.12,7.62-24.07,1.58-22.34-5.93Z"/>
    <path class="cls-13" d="M126.79,83.51s-.14,1.96-.42,4.85c.14-.15,.23-.2,.27,.04,1.1,6.68,3.37,16.06,10.73,18.61,3.13,1.08,6.55,1.18,9.53,.21,1.71-10.16,3.66-17.82,3.66-17.82l-23.78-5.9Z"/>
    <path class="cls-6" d="M156.46,73.66c.09,.4,.15,.7,.17,.84,.41,2.78,.26,5.58,.12,8.37-.25,5.03-1.06,10.04-2.48,14.87-2.21,7.5-10.22,9.66-16.89,7.35-7.36-2.55-9.1-8.55-10.2-15.23-.14-.83-.81,1.65-2.45,.6-3.41-2.19-4.78-10.66-.99-12.12,.96-.37,1.85-.11,2.51,.67s.78,1.79,1.33,2.56c.11,.16,1.92-2.58,2.1-2.79,1.04-1.24,2.15-2.51,3.29-3.69,.15-.15,.29-.3,.38-.5,.13-.3,.07-.63,.02-.95-.17-1.12-1.05-4.11,.29-4.68,1.04-.44,3.24,.6,4.31,.82,1.75,.35,3.51,.61,5.29,.78,2.94,.28,5.95,.31,8.78-.54,1.14-.34,2.24-.83,3.26-1.44-.02,.01,.79,3.38,1.16,5.06Z"/>
    <path class="cls-16" d="M129.1,80.49c0-.2,0-.39,0-.59,0-.49,0-.98,.14-1.45s.44-.91,.89-1.1c-.05-.08-.11-.15-.16-.23-.99,.9-1.62,2.13-2.21,3.33-.75,1.51-.35,3.88-.47,5.62-.03,.44,.11,3.41-.25,3.65,.08-.05,.13-.03,.16,.14,1.1,6.68,2.84,12.68,10.2,15.23,6.67,2.31,14.68,.15,16.89-7.35,.09-.31,.18-.61,.26-.92-.98,1.53-2.41,3.46-3.91,4.45-4.75,3.15-10.69,2.89-15.08,.14-3.91-2.45-5.75-8.26-6.09-12.55-.22-2.78-.35-5.59-.36-8.38Z"/>
    <path class="cls-11" d="M124.9,80.82c-.39-.08-.76,.03-1.01,.28-.51,.5-.68,1.39-.66,2.4,.01,1.01,.23,2.13,.65,3.07,.42,.94,1.05,1.73,1.92,1.96,.14,.03,.29-.05,.32-.19,.04-.14-.05-.28-.19-.32-.64-.16-1.19-.8-1.57-1.66-.38-.86-.59-1.93-.6-2.87-.01-.93,.2-1.72,.5-2.02,.15-.15,.3-.2,.54-.15,.24,.05,.58,.24,.99,.63,.1,.1,.28,.1,.38,0,.1-.11,.1-.28-.01-.38-.45-.43-.85-.68-1.24-.76Z"/>
    <path class="cls-17" d="M124.8,100.53c-.79,.18-1.43,.47-1.91,.88-1.43,2.28-2.28,6.06-2.06,8.23,0,0,4.3,8.66,16.39,10.13,3.89,.47,7.8-.82,10.04-4.04,2.11-3.04-.46-7.85-.46-7.85,0,0-2.61,5.15-12.92,1.36-7.94-2.92-9.07-8.71-9.07-8.71Z"/>
    <path class="cls-1" d="M159.55,132.34c-.15,0-.27,.15-.25,.3,1.15,8.45,1.68,16.73,1.09,24.67-.02,.15,.09,.28,.24,.29,.15,.01,.28-.1,.28-.25,.6-7.99,.06-16.3-1.09-24.78-.02-.14-.13-.24-.27-.23Z"/>
    <polygon class="cls-14" points="166.69 127.16 230.67 127.16 218.04 174.32 154.05 174.32 166.69 127.16"/>
    <polygon class="cls-5" points="154.05 174.32 114.42 174.32 115.27 171.77 152.27 171.77 164.81 126.36 228.83 126.36 230.67 127.16 166.69 127.16 154.05 174.32"/>
    <path class="cls-3" d="M76.49,174.08v6.6H251.12c4.41,0,8.43-1.03,12.06-2.87v-3.73H76.49Z"/>
    <path class="cls-18" d="M197.99,141.6c-.28,1.32-1.57,2.38-2.89,2.38-.63,0-1.19-.25-1.54-.7-.35-.45-.48-1.05-.34-1.69,.13-.63,.51-1.24,1.05-1.69,.54-.45,1.2-.7,1.83-.7,1.32,0,2.16,1.07,1.88,2.38Z"/>
  </g>
</svg>