<svg enable-background="new 0 0 831.3 121.6" viewBox="0 0 831.3 121.6" xmlns="http://www.w3.org/2000/svg"><g fill="#231f20"><path d="m257.3 107h-14.4l-10.2-48.1-19.6 48.8-18.7-46.8-9.7 46.1h-13.3l19.6-92.2 23.3 58.5 23.3-58.5z"/><path d="m355.5 107h-15.2l-5.5-13.3h-34l-5.5 13.3h-14l37.2-92.2zm-25.5-25.8-12.1-30.5-12.1 30.5z"/><path d="m395.6 53.5v53.5h-14v-92.2l51.4 56.7v-55.3h14v92.8s-51.4-55.5-51.4-55.5z"/><path d="m497.1 107h-14.1v-90.8h14.1z"/><path d="m545.8 64h25.4l-1.2 13h-24.2v30h-14v-90.8h45.6l1.2 13h-32.8z"/><path d="m623.8 94h32.8l-1.2 13h-45.7v-90.8h45.7l1.2 13h-32.8v34.8h27.9l-1.2 13h-26.7z"/><path d="m682.6 88.4 11.7-8.1c6.1 8.4 11.2 14.9 21.7 14.9s13.5-7.9 13.5-11.7c0-17.6-39.3-18.2-39.3-43.6 0-15.9 12.5-24.8 27.4-24.8 8.8 0 18 3.8 24 9.4l-9.3 9.8c-4.3-4-9.8-6.9-14.8-6.9-6.8 0-13.3 5.3-13.3 12.5 0 14.2 39.3 20.3 39.3 42 0 15.6-14.9 25.8-28 25.8-13.9 0-25.4-8.9-32.9-19.3z"/><path d="m808.2 27.9v79.1h-14.2v-79.1h-23.2l1.2-11.8h58l1.2 11.8z"/><path d="m-290 0v114.2l24.1-114.2z"/><path d="m-246 0h58.4l-29.2 73.3z"/><path d="m-267.7 121.6 14.8-70.7 28.3 70.7z"/><path d="m-213.4 121.6h45l-15.2-74.3z"/><path d="m35 22.3 19.4 48.7h-38.8z"/><path d="m68.5 96.7-19.4-48.7h38.8z"/><path d="m102 22.3 19.4 48.7h-38.8z"/></g></svg>