<?xml version="1.0" encoding="utf-8"?>
<!-- Generator: Adobe Illustrator 26.5.0, SVG Export Plug-In . SVG Version: 6.00 Build 0)  -->
<svg version="1.1" id="Layer_2_00000063626788011925174610000014924038538671740047_"
	 xmlns="http://www.w3.org/2000/svg" xmlns:xlink="http://www.w3.org/1999/xlink" x="0px" y="0px" viewBox="0 0 831.3 121.6"
	 style="enable-background:new 0 0 831.3 121.6;" xml:space="preserve">
<style type="text/css">
	.st0{fill:#231F20;}
</style>
<path class="st0" d="M257.3,107h-14.4l-10.2-48.1l-19.6,48.8l-18.7-46.8l-9.7,46.1h-13.3l19.6-92.2l23.3,58.5l23.3-58.5L257.3,107z"
	/>
<path class="st0" d="M355.5,107h-15.2l-5.5-13.3h-34l-5.5,13.3h-14l37.2-92.2L355.5,107L355.5,107z M330,81.2l-12.1-30.5l-12.1,30.5
	H330z"/>
<path class="st0" d="M395.6,53.5V107h-14V14.8L433,71.5V16.2h14V109C447,109,395.6,53.5,395.6,53.5z"/>
<path class="st0" d="M497.1,107H483V16.2h14.1V107z"/>
<path class="st0" d="M545.8,64h25.4L570,77h-24.2v30h-14V16.2h45.6l1.2,13h-32.8L545.8,64L545.8,64z"/>
<path class="st0" d="M623.8,94h32.8l-1.2,13h-45.7V16.2h45.7l1.2,13h-32.8V64h27.9l-1.2,13h-26.7L623.8,94L623.8,94z"/>
<path class="st0" d="M682.6,88.4l11.7-8.1c6.1,8.4,11.2,14.9,21.7,14.9s13.5-7.9,13.5-11.7c0-17.6-39.3-18.2-39.3-43.6
	c0-15.9,12.5-24.8,27.4-24.8c8.8,0,18,3.8,24,9.4l-9.3,9.8c-4.3-4-9.8-6.9-14.8-6.9c-6.8,0-13.3,5.3-13.3,12.5
	c0,14.2,39.3,20.3,39.3,42c0,15.6-14.9,25.8-28,25.8C701.6,107.7,690.1,98.8,682.6,88.4z"/>
<path class="st0" d="M808.2,27.9V107H794V27.9h-23.2l1.2-11.8h58l1.2,11.8H808.2z"/>
<polygon class="st0" points="-290,0 -290,114.2 -265.9,0 "/>
<polygon class="st0" points="-246,0 -187.6,0 -216.8,73.3 "/>
<polygon class="st0" points="-267.7,121.6 -252.9,50.9 -224.6,121.6 "/>
<polygon class="st0" points="-213.4,121.6 -168.4,121.6 -183.6,47.3 "/>
<g>
	<polygon class="st0" points="35,22.3 54.4,71 15.6,71 	"/>
	<polygon class="st0" points="68.5,96.7 49.1,48 87.9,48 	"/>
	<polygon class="st0" points="102,22.3 121.4,71 82.6,71 	"/>
</g>
</svg>
