<?xml version="1.0" encoding="UTF-8"?>
<svg id="Layer_2" data-name="Layer 2" xmlns="http://www.w3.org/2000/svg" viewBox="0 0 831.35 121.64">
  <defs>
    <style>
      .cls-1 {
        fill: #231f20;
      }
    </style>
  </defs>
  <path class="cls-1" d="M257.26,107h-14.38l-10.16-48.09-19.58,48.83-18.71-46.85-9.67,46.1h-13.26L191.08,14.79l23.3,58.5,23.3-58.5,19.58,92.21Z"/>
  <path class="cls-1" d="M355.55,107h-15.24l-5.45-13.26h-33.96l-5.45,13.26h-14L318.61,14.79l36.93,92.21h.01Zm-25.53-25.78l-12.15-30.49-12.14,30.49h24.29Z"/>
  <path class="cls-1" d="M395.58,53.46v53.54h-14V14.79l51.43,56.76V16.16h14V108.98s-51.43-55.52-51.43-55.52Z"/>
  <path class="cls-1" d="M497.09,107h-14.13V16.16h14.13V107Z"/>
  <path class="cls-1" d="M545.79,64h25.41l-1.24,13.01h-24.17v29.99h-14V16.16h45.61l1.24,13.01h-32.84v34.83h0Z"/>
  <path class="cls-1" d="M623.75,93.99h32.84l-1.24,13.01h-45.73V16.16h45.73l1.24,13.01h-32.84v34.83h27.88l-1.24,13.01h-26.65v16.98h.01Z"/>
  <path class="cls-1" d="M682.62,88.41l11.65-8.06c6.07,8.43,11.15,14.87,21.69,14.87s13.51-7.93,13.51-11.65c0-17.6-39.29-18.22-39.29-43.62,0-15.86,12.52-24.79,27.39-24.79,8.8,0,17.97,3.84,24.04,9.42l-9.29,9.79c-4.34-3.97-9.79-6.94-14.75-6.94-6.82,0-13.26,5.33-13.26,12.52,0,14.25,39.29,20.33,39.29,42.01,0,15.62-14.87,25.78-28.01,25.78-14,0-25.53-8.92-32.97-19.33Z"/>
  <path class="cls-1" d="M808.17,27.93V107h-14.13V27.93h-23.18l1.24-11.77h58l1.24,11.77h-23.17Z"/>
  <g>
    <polygon class="cls-1" points="35 22.33 54.39 70.96 15.63 70.96 35 22.33"/>
    <polygon class="cls-1" points="68.49 96.67 49.12 48.05 87.87 48.05 68.49 96.67"/>
    <polygon class="cls-1" points="101.98 22.33 121.37 70.96 82.62 70.96 101.98 22.33"/>
  </g>
</svg>