<?xml version="1.0" encoding="UTF-8"?>
<svg id="Layer_2" data-name="Layer 2" xmlns="http://www.w3.org/2000/svg" viewBox="0 0 815.71 94.19">
  <defs>
    <style>
      .cls-1 {
        fill: #fff;
      }
    </style>
  </defs>
  <g id="Layer_2-2" data-name="Layer 2">
    <path class="cls-1" d="M241.63,92.21h-14.38l-10.16-48.09-19.58,48.83-18.71-46.85-9.67,46.1h-13.26L175.45,0l23.3,58.5L222.05,0l19.58,92.21Z"/>
    <path class="cls-1" d="M339.92,92.21h-15.24l-5.45-13.26h-33.96l-5.45,13.26h-14L302.98,0l36.93,92.21h.01Zm-25.53-25.78l-12.15-30.49-12.14,30.49h24.29Z"/>
    <path class="cls-1" d="M379.95,38.67v53.54h-14V0l51.43,56.76V1.37h14V94.19s-51.43-55.52-51.43-55.52Z"/>
    <path class="cls-1" d="M481.46,92.21h-14.13V1.37h14.13V92.21Z"/>
    <path class="cls-1" d="M530.16,49.21h25.41l-1.24,13.01h-24.17v29.99h-14V1.37h45.61l1.24,13.01h-32.84V49.21h0Z"/>
    <path class="cls-1" d="M608.12,79.2h32.84l-1.24,13.01h-45.73V1.37h45.73l1.24,13.01h-32.84V49.21h27.88l-1.24,13.01h-26.65v16.98s.01,0,.01,0Z"/>
    <path class="cls-1" d="M666.99,73.62l11.65-8.06c6.07,8.43,11.15,14.87,21.69,14.87s13.51-7.93,13.51-11.65c0-17.6-39.29-18.22-39.29-43.62,0-15.86,12.52-24.79,27.39-24.79,8.8,0,17.97,3.84,24.04,9.42l-9.29,9.79c-4.34-3.97-9.79-6.94-14.75-6.94-6.82,0-13.26,5.33-13.26,12.52,0,14.25,39.29,20.33,39.29,42.01,0,15.62-14.87,25.78-28.01,25.78-14,0-25.53-8.92-32.97-19.33Z"/>
    <path class="cls-1" d="M792.54,13.14V92.21h-14.13V13.14h-23.18l1.24-11.77h58l1.24,11.77h-23.17Z"/>
    <g>
      <polygon class="cls-1" points="19.37 7.54 38.76 56.17 0 56.17 19.37 7.54"/>
      <polygon class="cls-1" points="52.86 81.88 33.49 33.26 72.24 33.26 52.86 81.88"/>
      <polygon class="cls-1" points="86.35 7.54 105.74 56.17 66.99 56.17 86.35 7.54"/>
    </g>
  </g>
</svg>