<?xml version="1.0" encoding="UTF-8"?>
<svg id="Layer_2" data-name="Layer 2" xmlns="http://www.w3.org/2000/svg" viewBox="0 0 231.18 231.54">
  <defs>
    <style>
      .cls-1 {
        fill: #231f20;
      }
    </style>
  </defs>
  <g id="Layer_1-2" data-name="Layer 1">
    <g>
      <g>
        <path class="cls-1" d="M1.04,96.83l2.23-10.6,3.32,.7-1.47,6.96,4.52,.95,1.37-6.48,3.11,.66-1.37,6.48,7.92,1.67-.77,3.64-18.86-3.98Z"/>
        <path class="cls-1" d="M15.9,77.39c-5.3-2.64-6.85-8.48-4.46-13.29,2.4-4.81,8-7.12,13.3-4.48,5.3,2.64,6.84,8.5,4.44,13.31-2.4,4.81-7.99,7.09-13.29,4.46Zm10.13-6.03c1.48-2.97,.49-6.58-2.99-8.31-3.48-1.73-6.96-.34-8.43,2.63-1.46,2.94-.49,6.58,2.99,8.31,3.48,1.73,6.97,.32,8.43-2.62Z"/>
        <path class="cls-1" d="M38.87,46.97l-1.93,2.13,4.73,4.28-2.5,2.76-14.29-12.95,4.54-5.01c2.75-3.04,6.51-3.3,9.43-.66,2.05,1.86,2.65,4.2,1.86,6.48l8.22,1.36-2.66,2.94-7.39-1.35Zm-2.54-2.01c1.37-1.51,1.65-3.12-.02-4.63-1.65-1.5-3.24-1.07-4.61,.44l-1.79,1.97,4.63,4.19,1.79-1.97Z"/>
        <path class="cls-1" d="M44.09,23.56l3.34-2.03,9.88,9.03-3.12-13.12,2.53-1.53,10.16,8.86-3.4-12.95,3.34-2.03,4.86,19.6-2.51,1.52-10.46-8.84,3.01,13.35-2.53,1.53-15.1-13.39Z"/>
        <path class="cls-1" d="M87.07,3.46l12.2,16.68-3.88,1.05-2.14-3.02-7.92,2.13-.33,3.69-3.88,1.04,2.14-20.54,3.8-1.02Zm4.09,11.72l-4.77-6.73-.74,8.21,5.5-1.48Z"/>
        <path class="cls-1" d="M114.74,12.9l-2.88,.05,.1,6.38-3.72,.06L107.93,.11,114.69,0c4.1-.07,6.86,2.5,6.92,6.43,.04,2.77-1.25,4.8-3.46,5.79l4.62,6.93-3.96,.07-4.07-6.31Zm-.27-3.23c2.04-.03,3.41-.92,3.37-3.18-.04-2.23-1.44-3.1-3.47-3.07l-2.66,.04,.1,6.24,2.66-.04Z"/>
        <path class="cls-1" d="M137.03,1.75l6.75,1.76c5.15,1.34,8.01,6.19,6.58,11.68-1.43,5.49-6.29,8.32-11.45,6.98l-6.75-1.76,4.86-18.66Zm2.64,16.99c3.55,.92,6.02-1.01,6.93-4.53,.92-3.52-.29-6.42-3.84-7.34l-3.02-.79-3.1,11.88,3.02,.79Z"/>
        <path class="cls-1" d="M180.99,24.58l-3.72-2.78,2.05-2.74,10.42,7.78-2.05,2.74-3.72-2.78-9.49,12.71-2.98-2.23,9.49-12.71Z"/>
        <path class="cls-1" d="M198.59,52.67l-5.03-6.13-6.11,5.01-2.36-2.88,14.91-12.22,2.36,2.88-6.15,5.04,5.03,6.13,6.15-5.04,2.36,2.88-14.91,12.22-2.36-2.88,6.11-5.01Z"/>
        <path class="cls-1" d="M217.09,60.53l1.72,3.3-17.08,8.93-1.72-3.3,17.08-8.93Z"/>
        <path class="cls-1" d="M224.68,76.85l.99,3.58-10.33,12.05,.04,.13,12.69-3.52,.99,3.58-18.58,5.15-.99-3.58,10.33-12.05-.04-.13-12.69,3.52-.99-3.58,18.58-5.15Z"/>
        <path class="cls-1" d="M230.93,107.42l.06,3.72-8.79,.14,8.91,7.08,.07,4.18-8.89-7.16-10.38,8.1-.07-4.13,7.75-6.15-2.28-1.84-5.59,.09-.06-3.72,19.27-.31Z"/>
        <path class="cls-1" d="M229.21,136.49l-.72,3.65-18.92-3.75,.72-3.65,18.92,3.75Z"/>
        <path class="cls-1" d="M224.89,153.94l-1.47,3.42-15.59,2.92-.05,.12,12.09,5.21-1.47,3.42-17.7-7.63,1.47-3.42,15.59-2.92,.05-.12-12.09-5.21,1.47-3.42,17.7,7.63Z"/>
        <path class="cls-1" d="M203.2,175.89c4.63,3.82,4.75,9.82,1.29,14.01-1.64,1.99-4.37,3.85-8.18,3.35l.26-3.27c2.19,.16,3.92-.78,5.16-2.29,2.19-2.66,2.11-6.36-.95-8.88-3.04-2.5-6.75-2.01-8.98,.69-1.5,1.82-2.01,4.19-.07,6.53l2.94-3.56,2.41,1.99-5.23,6.35c-5.71-3.58-5.97-9.5-2.58-13.6,3.4-4.13,9.3-5.14,13.93-1.32Z"/>
        <path class="cls-1" d="M168.12,202.07l-2.03,2.63c-1.17-1.07-2.88-1.68-4.61-.77-1.35,.71-2.13,2.01-1.35,3.5,.66,1.25,1.69,1.41,3.79,1.2l1.3-.16c2.82-.29,5.43,0,6.79,2.6,1.5,2.86,.05,5.89-2.83,7.41-2.93,1.54-5.66,.67-7.38-.73l1.73-2.66c1.44,.99,2.73,1.17,3.98,.52,1.23-.64,1.83-1.72,1.23-2.85-.47-.89-1.34-1.32-3.59-1.06l-1.39,.15c-3.61,.36-5.81-.2-7.09-2.63-1.82-3.46,.33-6.74,3.19-8.24,2.98-1.56,6.33-1.08,8.25,1.1Z"/>
        <path class="cls-1" d="M147.96,217.16c1.27,5.78-2.3,10.66-7.55,11.81s-10.57-1.76-11.84-7.54c-1.27-5.78,2.32-10.66,7.57-11.82s10.54,1.77,11.81,7.55Zm-11.05-4.1c-3.24,.71-5.43,3.75-4.59,7.55,.84,3.79,4.1,5.63,7.34,4.92,3.21-.71,5.43-3.75,4.59-7.55-.84-3.79-4.13-5.62-7.34-4.92Z"/>
        <path class="cls-1" d="M115.93,231.54l-3.72-.15,.64-15.84-7.51-.3,.14-3.42,11.23,.46-.78,19.26Z"/>
        <path class="cls-1" d="M94.6,217.5l-3.24,11.67-3.58-.99,3.24-11.67c.81-2.9-.73-4.29-2.38-4.75-1.62-.45-3.68-.06-4.48,2.84l-3.24,11.67-3.58-1,3.24-11.67c1.29-4.66,5.1-6.31,9-5.22,3.9,1.08,6.32,4.46,5.02,9.12Z"/>
        <path class="cls-1" d="M62,214.56l4.05,2.28-1.68,2.98-11.34-6.37,1.68-2.98,4.05,2.28,7.77-13.82,3.24,1.82-7.77,13.82Z"/>
        <path class="cls-1" d="M42.41,205.57l-2.85-2.39,12.39-14.77,2.85,2.39-12.39,14.77Z"/>
        <path class="cls-1" d="M36.82,187.71c-4.71,3.58-10.63,2.38-13.88-1.9s-2.83-10.33,1.88-13.91c4.71-3.58,10.65-2.36,13.9,1.92,3.25,4.28,2.81,10.31-1.9,13.88Zm-.91-11.75c-2-2.64-5.68-3.35-8.78-1.01-3.09,2.35-3.39,6.08-1.39,8.72,1.99,2.62,5.68,3.35,8.78,1.01s3.37-6.11,1.39-8.72Z"/>
        <path class="cls-1" d="M9.99,164.31l-1.32-3.48,9.19-12.93-.05-.13-12.31,4.66-1.31-3.48,18.03-6.81,1.31,3.48-9.19,12.93,.05,.13,12.31-4.66,1.32,3.48-18.03,6.81Z"/>
        <path class="cls-1" d="M15.7,133.45l-1.7-2.85c1.43-.7,2.62-2.06,2.4-4-.17-1.51-1.09-2.72-2.76-2.54-1.4,.15-1.93,1.06-2.5,3.09l-.33,1.26c-.77,2.73-1.99,5.05-4.9,5.37-3.21,.35-5.5-2.1-5.86-5.34-.36-3.29,1.45-5.51,3.38-6.6l1.84,2.58c-1.45,.98-2.09,2.11-1.94,3.52,.15,1.38,.94,2.33,2.21,2.19,1-.11,1.72-.76,2.3-2.96l.37-1.35c.99-3.49,2.31-5.33,5.04-5.63,3.89-.42,6.15,2.77,6.5,5.98,.37,3.35-1.31,6.29-4.04,7.27Z"/>
      </g>
    </g>
  </g>
</svg>