<svg width="121" height="33" viewBox="0 0 121 33" fill="none" xmlns="http://www.w3.org/2000/svg">
<path d="M58.458 20.6409H52.1054L50.5125 25.4481C50.4888 25.5926 50.3916 25.6661 50.2233 25.6661H47.3504C47.156 25.6661 47.1086 25.5689 47.156 25.4006L52.8568 9.12332C52.9777 8.85784 53.0749 8.32688 53.0986 7.57784C53.0986 7.45695 53.172 7.40955 53.2929 7.40955H57.2301C57.3273 7.40955 57.3984 7.45695 57.4482 7.55414L63.8008 25.4267C63.8482 25.595 63.8008 25.6685 63.6325 25.6685H60.3969C60.276 25.6685 60.1789 25.595 60.1315 25.4741L58.4651 20.6433L58.458 20.6409ZM52.807 17.9838H57.7326C57.6591 17.7183 57.2728 16.5592 56.5735 14.5064C55.898 12.43 55.4381 11.0054 55.22 10.2327H55.1963C55.002 11.1737 54.2055 13.7598 52.8046 17.9861L52.807 17.9838Z" fill="#E63926"/>
<path d="M71.5234 25.9318C69.3972 25.9318 67.7072 25.3511 66.4035 24.218C65.1235 23.0589 64.4953 21.3451 64.4953 19.098C64.4953 17.069 65.1709 15.4026 66.548 14.0752C67.9252 12.7478 69.7836 12.0699 72.1018 12.0699C72.73 12.0699 73.2609 12.1173 73.6473 12.2382V6.10367C73.6473 5.98278 73.7208 5.9093 73.8417 5.9093H76.9563C77.0772 5.9093 77.1246 5.95671 77.1246 6.0776V22.5991C77.1246 22.912 77.1483 23.5401 77.1981 24.4598C77.2218 24.5807 77.1507 24.6779 77.0298 24.7016C75.316 25.5217 73.479 25.9342 71.5234 25.9342V25.9318ZM73.6236 23.0826V14.7745C73.2135 14.5801 72.6826 14.4853 72.0307 14.4853C70.8242 14.4853 69.8571 14.8717 69.1318 15.6681C68.4064 16.4408 68.0461 17.5288 68.0461 18.9534C68.0461 20.4515 68.4088 21.5608 69.1318 22.2862C69.8547 23.0115 70.7744 23.3718 71.9098 23.3718C72.6589 23.3955 73.2135 23.2983 73.6236 23.0826V23.0826Z" fill="#E63926"/>
<path d="M85.9424 12.0673C88.0188 12.0673 89.6615 12.7191 90.8443 14.0228C92.0271 15.3265 92.6316 16.9692 92.6316 18.9484C92.6316 21.0984 92.0034 22.8121 90.7708 24.0684C89.5382 25.301 87.8979 25.9292 85.8926 25.9292C83.6716 25.9292 82.0052 25.2536 80.8461 23.9238C79.687 22.5704 79.1323 20.9301 79.1323 18.9982C79.1323 16.9692 79.7605 15.3028 80.993 13.9991C82.2493 12.7191 83.892 12.0673 85.9447 12.0673H85.9424ZM85.7978 14.459C84.8567 14.459 84.084 14.869 83.5033 15.6655C82.9225 16.4619 82.6333 17.5499 82.6333 18.9508C82.6333 20.3517 82.9225 21.4634 83.5033 22.2836C84.084 23.1037 84.9042 23.5161 85.9424 23.5161C86.836 23.5161 87.5851 23.1298 88.1895 22.3807C88.794 21.608 89.0831 20.4726 89.0831 18.9745C89.0831 17.5973 88.8176 16.5117 88.263 15.6892C87.732 14.869 86.9095 14.4566 85.8002 14.4566L85.7978 14.459Z" fill="#E63926"/>
<path d="M94.8052 5.9093H97.8725C98.0171 5.9093 98.0905 5.98278 98.0905 6.12738V12.5748C98.9842 12.2358 99.9252 12.0912 100.94 12.0912C102.848 12.0912 104.37 12.6957 105.505 13.9259C106.664 15.1324 107.219 16.704 107.219 18.6121C107.219 20.9066 106.52 22.6939 105.093 24.0213C103.668 25.325 101.978 25.9768 99.9963 25.9768C98.0147 25.9768 96.2037 25.6379 94.7554 24.9386C94.6345 24.8912 94.5871 24.794 94.5871 24.6731V6.10367C94.6108 5.95908 94.6606 5.9093 94.8052 5.9093V5.9093ZM103.668 18.9274C103.668 17.5265 103.355 16.4646 102.701 15.7392C102.073 15.0139 101.227 14.6536 100.141 14.6536C99.3445 14.6536 98.6428 14.7982 98.0645 15.0874V23.0803C98.5954 23.3694 99.297 23.514 100.165 23.514C101.132 23.514 101.952 23.1277 102.627 22.3312C103.327 21.5348 103.666 20.3994 103.666 18.925L103.668 18.9274Z" fill="#E63926"/>
<path d="M117.701 19.6264H112.194C112.218 20.7381 112.557 21.6317 113.232 22.3073C113.932 22.9591 114.923 23.2981 116.252 23.2981C117.582 23.2981 118.691 23.08 119.659 22.6225C119.779 22.5751 119.827 22.6225 119.827 22.7671V24.8198C119.827 24.9881 119.779 25.0853 119.659 25.1588C118.499 25.6898 117.122 25.9553 115.529 25.9553C114.297 25.9553 113.235 25.7609 112.317 25.3745C111.4 24.9881 110.699 24.4809 110.191 23.8053C109.684 23.1535 109.298 22.4281 109.032 21.6554C108.79 20.859 108.669 20.0364 108.669 19.1428C108.669 17.1636 109.25 15.4711 110.383 14.12C111.542 12.7428 113.138 12.0673 115.141 12.0673C117.144 12.0673 118.473 12.6219 119.414 13.7573C120.355 14.8927 120.839 16.2201 120.839 17.7419C120.839 18.2966 120.792 18.8276 120.718 19.3111C120.694 19.432 120.621 19.5055 120.5 19.5292C119.993 19.6027 119.052 19.6264 117.698 19.6264H117.701ZM112.171 17.5001H116.058C116.928 17.5001 117.411 17.4764 117.506 17.4527C117.53 17.3793 117.53 17.2584 117.53 17.0664C117.53 16.3671 117.336 15.7627 116.925 15.2056C116.539 14.651 115.911 14.3855 115.017 14.3855C114.124 14.3855 113.472 14.6747 112.988 15.2791C112.528 15.8599 112.263 16.6065 112.168 17.5001H112.171Z" fill="#E63926"/>
<path d="M22.8835 0.5H36.2405V32.5L22.8835 0.5Z" fill="#E63926"/>
<path d="M13.466 0.5H0.0852661V32.5L13.466 0.5Z" fill="#E63926"/>
<path d="M18.1759 12.2854L26.6761 32.4999H21.0962L18.5623 26.0525H12.3306L18.1759 12.2854Z" fill="#E63926"/>
</svg>
