<svg width="89" height="50" viewBox="0 0 89 50" fill="none" xmlns="http://www.w3.org/2000/svg">
<path d="M53.9198 0H33.8946C31.2565 0 29.1179 2.13861 29.1179 4.77672V24.9241C29.1179 27.5622 31.2565 29.7008 33.8946 29.7008H53.9198C56.5579 29.7008 58.6965 27.5622 58.6965 24.9241V4.77672C58.6965 2.13861 56.5579 0 53.9198 0Z" fill="url(#paint0_linear_1_276)"/>
<path d="M44.1293 12.7859C44.8847 12.7859 45.4586 12.623 45.8474 12.2934C46.2363 11.9639 46.4325 11.4788 46.4325 10.8382C46.4325 10.1976 46.2363 9.72365 45.8474 9.39779C45.4549 9.06083 44.8847 8.8942 44.1293 8.8942H41.478V12.7896H44.1293M44.2922 20.836C45.255 20.836 45.9771 20.636 46.4584 20.2324C46.9472 19.8288 47.1916 19.2215 47.1916 18.4106C47.1916 17.5997 46.9509 17.0183 46.4695 16.6258C45.9881 16.2222 45.2624 16.0222 44.2922 16.0222H41.478V20.8397H44.2922M48.7505 14.2226C49.7799 14.5189 50.576 15.0632 51.1425 15.863C51.7054 16.6591 51.9905 17.6367 51.9905 18.7957C51.9905 20.5694 51.3832 21.8913 50.1724 22.7652C48.9615 23.6391 47.1175 24.0723 44.644 24.0723H36.6865V5.67639H43.8849C46.4658 5.67639 48.3358 6.06149 49.4874 6.8354C50.6501 7.6093 51.2314 8.84235 51.2314 10.5457C51.2314 11.4418 51.0204 12.2046 50.5982 12.8378C50.1761 13.4636 49.5577 13.9227 48.7542 14.2301" fill="white"/>
<path d="M2.4201 39.5839V44.5791H5.38241C6.37478 44.5791 7.11164 44.3755 7.5856 43.9682C8.06698 43.5534 8.30769 42.924 8.30769 42.0797C8.30769 41.2354 8.06698 40.5985 7.5856 40.1986C7.11164 39.7913 6.37478 39.5876 5.38241 39.5876H2.4201M2.4201 33.9778V38.0917H5.15283C6.05633 38.0917 6.72653 37.9251 7.16347 37.5881C7.60782 37.2474 7.83001 36.729 7.83001 36.0329C7.83001 35.3367 7.60782 34.8295 7.16347 34.4888C6.71913 34.1481 6.05633 33.9778 5.15283 33.9778H2.4201ZM0.572368 32.4633H5.28984C6.69693 32.4633 7.78189 32.7558 8.54468 33.3409C9.30748 33.9259 9.68516 34.7591 9.68516 35.8366C9.68516 36.6698 9.48892 37.3363 9.10012 37.8288C8.71131 38.3213 8.13736 38.6286 7.38197 38.7508C8.28918 38.947 8.99271 39.3544 9.4926 39.969C9.99619 40.5837 10.2406 41.3539 10.2406 42.2796C10.2406 43.4979 9.82587 44.4384 8.99642 45.1049C8.16698 45.7715 6.98944 46.101 5.46015 46.101H0.561249V32.4596" fill="#230F3D"/>
<path d="M17.2057 37.0399C16.3615 37.0102 15.5579 37.4102 15.0692 38.0989C14.5434 38.8024 14.2842 39.7615 14.2842 40.9871C14.2842 42.2128 14.5434 43.1755 15.0618 43.8828C15.5876 44.5863 16.3022 44.9344 17.2094 44.9344C18.0537 44.9603 18.8535 44.5641 19.3386 43.8754C19.8644 43.1681 20.1236 42.2054 20.1236 40.9871C20.1236 39.7689 19.8607 38.8172 19.3386 38.11C18.8127 37.3953 18.1055 37.0399 17.2094 37.0399M17.2094 35.6143C18.672 35.6143 19.8311 36.0882 20.6531 37.0399C21.4788 37.9915 21.9047 39.306 21.9047 40.9871C21.9047 42.6683 21.4862 43.9791 20.6531 44.9344C19.8199 45.886 18.6683 46.36 17.2094 46.36C15.7505 46.36 14.5878 45.886 13.7472 44.9344C12.9178 43.9791 12.5031 42.6608 12.5031 40.9871C12.5031 39.3134 12.9178 37.9915 13.7472 37.0399C14.5804 36.0882 15.732 35.6143 17.2094 35.6143Z" fill="#230F3D"/>
<path d="M28.555 37.0399C27.7107 37.0102 26.9072 37.4102 26.4184 38.0989C25.8926 38.8024 25.6334 39.7615 25.6334 40.9871C25.6334 42.2128 25.8927 43.1755 26.4111 43.8828C26.9369 44.5863 27.6515 44.9344 28.5587 44.9344C29.403 44.9603 30.2028 44.5641 30.6879 43.8754C31.2137 43.1681 31.4729 42.2054 31.4729 40.9871C31.4729 39.7689 31.21 38.8172 30.6879 38.11C30.1621 37.3953 29.4548 37.0399 28.5587 37.0399M28.5587 35.6143C30.0213 35.6143 31.1804 36.0882 32.0024 37.0399C32.8244 37.9915 33.254 39.306 33.254 40.9871C33.254 42.6683 32.8356 43.9791 32.0024 44.9344C31.1693 45.886 30.0176 46.36 28.5587 46.36C27.0998 46.36 25.9371 45.886 25.0965 44.9344C24.2671 43.9791 23.8524 42.6608 23.8524 40.9871C23.8524 39.3134 24.2671 37.9915 25.0965 37.0399C25.9297 36.0882 27.0813 35.6143 28.5587 35.6143Z" fill="#230F3D"/>
<path d="M37.5975 32.9556V35.8623H41.0597V37.1694H37.5975V42.7275C37.5975 43.5606 37.7086 44.0975 37.9345 44.3382C38.1641 44.5752 38.6306 44.6937 39.3341 44.6937H41.0634V46.1008H39.3341C38.0344 46.1008 37.142 45.8601 36.6496 45.3787C36.1571 44.8937 35.9016 44.0087 35.9016 42.7275V37.1694H34.6685V35.8623H35.9016V32.9593H37.5938M49.7096 36.166V37.7582C49.2394 37.5175 48.7432 37.3324 48.2285 37.2102C47.7175 37.088 47.188 37.0287 46.6363 37.0287C45.8031 37.0287 45.1736 37.1583 44.7552 37.4027C44.3404 37.6582 44.1331 38.0433 44.1331 38.5543C44.1331 38.9431 44.2812 39.2505 44.5811 39.4763C44.8811 39.6948 45.4809 39.9059 46.3807 40.1058L46.9547 40.2354C48.147 40.4909 48.995 40.8538 49.4949 41.3241C49.9985 41.7869 50.2429 42.4349 50.2429 43.2718C50.2688 44.1642 49.8503 45.0121 49.1209 45.5305C48.3729 46.086 47.3398 46.3711 46.0327 46.3711C45.4847 46.3711 44.9107 46.3156 44.3145 46.2082C43.7221 46.1156 43.0963 45.9453 42.4409 45.7342V43.9976C43.0629 44.3197 43.674 44.5641 44.2775 44.727C44.8626 44.8825 45.4624 44.964 46.0697 44.964C46.8621 44.964 47.4694 44.8307 47.8989 44.5604C48.3247 44.2864 48.5395 43.9013 48.5395 43.4088C48.5395 42.9533 48.384 42.6016 48.073 42.3572C47.7693 42.1128 47.0954 41.8906 46.0549 41.6536L45.4698 41.5166C44.4293 41.2982 43.6777 40.9612 43.2111 40.5131C42.7482 40.0577 42.5149 39.4319 42.5149 38.6395C42.5149 37.6767 42.8556 36.9325 43.5369 36.4104C44.2183 35.8883 45.1884 35.6253 46.4437 35.6253C47.0325 35.6253 47.6175 35.6698 48.1989 35.7624C48.7173 35.8438 49.2246 35.9845 49.717 36.1734M54.5197 32.963V35.8697H57.9819V37.1768H54.5197V42.7349C54.5197 43.568 54.6308 44.1049 54.8566 44.3456C55.0862 44.5826 55.5528 44.7011 56.2563 44.7011H57.9856V46.1082H56.2563C54.9566 46.1082 54.0642 45.8675 53.5717 45.3861C53.0793 44.9011 52.8238 44.0161 52.8238 42.7349V37.1768H51.5907V35.8697H52.8238V32.9667H54.5234M66.032 37.4435C65.8394 37.3324 65.6283 37.2509 65.4098 37.2065C65.1692 37.1472 64.9248 37.1213 64.6804 37.125C63.7288 37.125 62.9993 37.436 62.4883 38.0581C61.9847 38.6728 61.7403 39.5615 61.7403 40.7168V46.1082H60.0481V35.8697H61.7403V37.462C62.0958 36.8399 62.555 36.3807 63.1215 36.0808C63.688 35.7772 64.3768 35.6253 65.1877 35.6253C65.3173 35.6253 65.4432 35.6364 65.5728 35.6513L66.0393 35.7142L66.0504 37.4435M72.3898 40.9612C71.0308 40.9612 70.0903 41.1167 69.5645 41.4278C69.0387 41.7388 68.7795 42.2683 68.7795 43.02C68.7795 43.6162 68.9757 44.0938 69.3645 44.4456C69.7608 44.7937 70.2977 44.9677 70.9753 44.9677C71.9084 44.9677 72.6527 44.6382 73.2155 43.9791C73.782 43.3236 74.0635 42.4349 74.0635 41.3389V40.9649H72.3898M75.7446 40.2688V46.1082H74.0635V44.553C73.6895 45.1751 73.2044 45.6342 72.6305 45.9342C72.0565 46.2267 71.3567 46.3748 70.5273 46.3748C69.4793 46.3748 68.6462 46.0823 68.0241 45.4972C67.4094 44.9048 67.1021 44.116 67.1021 43.1311C67.1021 41.9795 67.4761 41.113 68.2537 40.528C69.0313 39.9429 70.1792 39.6504 71.7159 39.6504H74.0746V39.4875C74.0746 38.7136 73.8191 38.1174 73.3081 37.6953C72.8045 37.2694 72.0899 37.0547 71.1716 37.0547C70.5865 37.0547 70.0162 37.125 69.4645 37.2657C68.9054 37.4064 68.3685 37.6175 67.8649 37.8952V36.34C68.4795 36.103 69.0794 35.9253 69.657 35.8105C70.2125 35.692 70.779 35.629 71.3493 35.629C72.8304 35.629 73.9376 36.003 74.6671 36.7806C75.3965 37.5583 75.7631 38.7136 75.7631 40.2725M80.7694 44.5715V49.9999H79.0772V35.8734H80.7694V37.4287C81.1249 36.8214 81.5692 36.3696 82.1024 36.0771C82.6467 35.7772 83.2911 35.629 84.0391 35.629C85.2277 35.6031 86.357 36.1548 87.0643 37.1102C87.8456 38.0989 88.2344 39.3949 88.2344 41.0019C88.2344 42.609 87.8456 43.9087 87.0643 44.8937C86.357 45.849 85.2277 46.4007 84.0391 46.3748C83.2911 46.3748 82.6356 46.2304 82.1024 45.9342C81.5655 45.6342 81.1212 45.1825 80.7694 44.5715ZM86.4904 40.9982C86.4904 39.7615 86.2348 38.7913 85.7239 38.0915C85.2203 37.3842 84.5204 37.0324 83.6317 37.0324C82.7949 37.0028 82.0025 37.4027 81.5285 38.0915C81.0249 38.795 80.7805 39.7615 80.7805 40.9982C80.7805 42.235 81.0323 43.2051 81.5285 43.9124C82.0395 44.6159 82.743 44.964 83.6317 44.964C84.5204 44.964 85.2203 44.6122 85.7239 43.9124C86.2348 43.2051 86.4904 42.235 86.4904 40.9982Z" fill="#230F3D"/>
<defs>
<linearGradient id="paint0_linear_1_276" x1="42.1224" y1="41.987" x2="68.5008" y2="15.1485" gradientUnits="userSpaceOnUse">
<stop stop-color="#121134"/>
<stop offset="1" stop-color="#612E50"/>
</linearGradient>
</defs>
</svg>
