<svg width="315" height="97" viewBox="0 0 315 97" fill="none" xmlns="http://www.w3.org/2000/svg">
<g clip-path="url(#clip0_958_5959)">
<path d="M47.2965 0.962769H0V96.2779H47.2965C71.005 96.2779 94.7134 74.9764 94.7134 48.6203C94.7134 22.2643 71.005 0.962769 47.2965 0.962769ZM47.2965 70.2829C43.0121 70.2829 38.8239 69.0124 35.2615 66.6321C31.6991 64.2518 28.9225 60.8685 27.283 56.9102C25.6434 52.9519 25.2144 48.5963 26.0502 44.3942C26.8861 40.1921 28.9492 36.3322 31.9788 33.3026C35.0084 30.2731 38.8683 28.2099 43.0704 27.374C47.2725 26.5382 51.6281 26.9672 55.5864 28.6068C59.5447 30.2464 62.928 33.0229 65.3083 36.5853C67.6886 40.1477 68.9591 44.3359 68.9591 48.6203C68.9591 54.3656 66.6768 59.8755 62.6143 63.9381C58.5517 68.0006 53.0418 70.2829 47.2965 70.2829V70.2829Z" fill="url(#paint0_linear_958_5959)"/>
<path d="M143.213 1.08313C157.535 1.08313 164.876 9.62779 164.876 21.5422V32.2531C164.876 44.0471 157.535 52.7122 143.213 52.7122H120.708V0.962779L143.213 1.08313ZM152.119 21.5422C152.119 14.9231 148.629 11.433 141.047 11.433H133.345V42.3623H141.047C148.629 42.3623 152.119 38.7519 152.119 32.2531V21.5422ZM204.229 43.2047H185.335L182.447 52.8325H169.81L188.223 1.08313H201.221L219.754 52.8325H206.997L204.229 43.2047ZM188.584 32.9752H201.1L194.842 12.5161L188.584 32.9752ZM259.95 1.08313V11.794H245.99V52.7122H233.474V11.794H219.514V0.962779L259.95 1.08313ZM290.759 53.7953C275.114 53.7953 267.051 43.6861 267.051 30.2072V23.5881C267.051 9.98883 275.114 0 290.759 0C306.404 0 314.468 9.98883 314.468 23.5881V30.0868C314.468 43.5658 306.404 53.6749 290.759 53.6749V53.7953ZM290.759 10.4702C283.298 10.4702 279.687 15.5248 279.687 22.866V30.8089C279.687 38.2705 283.298 43.2047 290.759 43.2047C298.221 43.2047 301.711 38.2705 301.711 30.8089V22.866C301.711 15.5248 298.1 10.5906 290.759 10.5906V10.4702ZM131.901 90.5012C132.708 90.5858 133.525 90.4992 134.297 90.247C135.068 89.9949 135.778 89.5828 136.38 89.0377C136.982 88.4926 137.462 87.8268 137.79 87.0836C138.117 86.3404 138.284 85.5366 138.279 84.7246H145.5C145.38 91.3437 140.445 97 132.141 97C122.393 97 117.7 90.8623 117.7 82.5583V78.4665C117.7 70.2829 122.393 64.1452 132.141 64.1452C140.445 64.1452 145.38 69.6811 145.38 76.4206H138.159C138.177 75.6206 138.029 74.8255 137.724 74.0857C137.418 73.346 136.963 72.6777 136.386 72.1233C135.809 71.5688 135.123 71.1404 134.371 70.865C133.62 70.5896 132.82 70.4733 132.021 70.5236C127.207 70.5236 125.402 73.6526 125.402 78.1055V82.9194C125.402 87.4926 127.327 90.5012 132.021 90.5012H131.901ZM176.55 64.7469H183.77V96.2779H176.309V79.67L171.375 89.2978H165.237L160.303 79.67V96.2779H152.841V64.7469H160.062L168.246 81.9566L176.55 64.7469ZM203.989 97C196.407 97 191.352 93.3896 191.352 87.0112V86.1687H198.814V86.7705C198.814 89.4181 200.499 91.103 203.989 91.103C207.238 91.103 209.404 89.7792 209.404 87.2519C209.444 86.6054 209.246 85.9666 208.847 85.4565C208.448 84.9465 207.875 84.6004 207.238 84.4839L199.295 82.5583C194.481 81.3548 191.834 79.1886 191.834 74.0136C191.834 67.7556 196.287 64.1452 203.868 64.1452C210.849 64.1452 215.422 67.9963 215.422 73.773V74.495H208.201V74.0136C208.201 71.8474 206.997 70.0422 203.868 70.0422C201.1 70.0422 199.416 71.005 199.416 73.2916C199.379 73.8923 199.569 74.4851 199.947 74.9529C200.326 75.4207 200.866 75.7297 201.461 75.8189L209.886 78.2258C214.82 79.4293 216.866 82.3176 216.866 86.6501C216.866 92.9082 211.33 97 203.989 97V97Z" fill="#FF7751"/>
</g>
<defs>
<linearGradient id="paint0_linear_958_5959" x1="0" y1="48.6203" x2="94.7134" y2="48.6203" gradientUnits="userSpaceOnUse">
<stop stop-color="#FF593D"/>
<stop offset="1" stop-color="#FF7751"/>
</linearGradient>
<clipPath id="clip0_958_5959">
<rect width="314.468" height="97" fill="white"/>
</clipPath>
</defs>
</svg>
