<svg width="75" height="35" viewBox="0 0 75 35" fill="none" xmlns="http://www.w3.org/2000/svg">
<path d="M6.67491 35.0001C9.89232 35.0001 12.5056 32.3868 12.5056 29.1694V23.3386H6.67491C3.45751 23.3386 0.844177 25.952 0.844177 29.1694C0.844177 32.3868 3.45751 35.0001 6.67491 35.0001Z" fill="#48BA7F"/>
<path d="M0.838989 17.4999C0.838989 14.2825 3.45232 11.6692 6.66972 11.6692H12.5005V23.3384H6.66972C3.45232 23.3384 0.838989 20.7251 0.838989 17.5077V17.5025V17.4999Z" fill="#8162AA"/>
<path d="M0.838997 5.83074C0.838997 2.61333 3.45233 0 6.66973 0H12.5005V11.6667H6.66973C3.45233 11.6667 0.838997 9.05333 0.838997 5.83592V5.83074V5.83074Z" fill="#F05023"/>
<path d="M12.4512 0H18.2819C21.4993 0 24.1127 2.61333 24.1127 5.83073C24.1127 9.04814 21.4993 11.6615 18.2819 11.6615H12.4512V0Z" fill="#F37264"/>
<path d="M24.1749 17.4999C24.1749 20.7173 21.5616 23.3307 18.3442 23.3307C15.1268 23.3307 12.4512 20.7173 12.4512 17.4999C12.4512 14.2825 15.0645 11.6692 18.2819 11.6692C21.4993 11.6692 24.1127 14.2825 24.1127 17.4999H24.1749Z" fill="#47B8E9"/>
<path d="M30.5527 9.66772V21.8944H32.1263V16.0559H35.909V14.5392H32.1263V11.1974H37.0393V9.66772H30.5527ZM39.8834 12.1514C40.4512 12.1514 40.9126 11.6925 40.9126 11.1222C40.9126 10.5518 40.4486 10.1551 39.8834 10.1551C39.3182 10.1551 38.8541 10.614 38.8541 11.1844C38.8541 11.4592 38.963 11.7159 39.16 11.9181C39.3571 12.1203 39.6138 12.224 39.8938 12.224L39.8808 12.1514H39.8834ZM39.0875 13.694V21.8944H40.5989V13.694H39.0875ZM46.5023 13.4503C44.4101 13.4503 42.953 15.2859 42.953 17.3185C42.953 19.3511 44.4204 21.1736 46.5023 21.1736C47.3786 21.1892 48.2186 20.8366 48.82 20.2014V21.2903C48.8149 21.9436 48.5608 22.5736 48.1097 23.0455C47.6482 23.5147 47.0182 23.7792 46.3597 23.7792C45.8593 23.7636 45.3745 23.6029 44.9649 23.3151L44.1689 24.6788C46.046 25.8844 48.5427 25.3425 49.7508 23.4655C50.1708 22.8096 50.3938 22.0473 50.3938 21.2696V13.6811H48.82V14.4148C48.2186 13.7796 47.376 13.427 46.5023 13.4425V13.4477V13.4503ZM44.5319 17.3185C44.4593 16.507 44.8534 15.724 45.5482 15.2988C46.2456 14.8711 47.1219 14.8711 47.8115 15.2988C48.5011 15.7266 48.8952 16.5096 48.8278 17.3185C48.9004 18.1299 48.5063 18.9129 47.8115 19.3381C47.1141 19.7659 46.2378 19.7659 45.5482 19.3381C44.856 18.9103 44.4645 18.1273 44.5319 17.3185Z" fill="#010101"/>
<path d="M56.0664 15.0526C55.1252 15.0552 54.363 15.8174 54.3604 16.7585V21.9463H52.7867V13.7459H54.3604V14.4381C54.8374 13.8029 55.5971 13.4348 56.393 13.4478C57.3964 13.4244 58.3323 13.9611 58.8275 14.8374C59.4393 13.9818 60.3208 13.4607 61.2749 13.4478C63.0689 13.4478 64.1811 14.8918 64.1863 16.6781V21.897H62.6126V16.6963C62.7449 15.7603 62.0941 14.8918 61.1582 14.7596C60.7538 14.7026 60.3441 14.7907 59.9993 15.0085C59.4367 15.374 59.1412 16.0352 59.2397 16.6963V21.884H57.7282V16.7015C57.7256 15.7603 56.9634 14.9981 56.0223 14.9955L56.0664 15.05V15.0526ZM72.5863 14.6248C71.863 13.8703 70.8596 13.4478 69.8148 13.4555C67.4711 13.4555 65.8378 15.4389 65.8378 17.7385C65.8378 20.0381 67.4893 22.0214 69.8148 22.0214C70.8596 22.0292 71.863 21.6066 72.5863 20.8522V21.7829H74.16V13.5826H72.5863V14.6222V14.6248ZM67.3856 17.8059C67.3052 16.8259 67.7822 15.8848 68.6222 15.3715C69.4597 14.8581 70.4578 14.8581 71.3523 15.3715C72.1871 15.89 72.6615 16.8285 72.5889 17.8059C72.6693 18.7859 72.1923 19.727 71.3523 20.2403C70.5148 20.7537 69.5167 20.7537 68.6222 20.2403C67.7874 19.7218 67.313 18.7833 67.3856 17.8059Z" fill="#010101"/>
</svg>
