<svg width="144" height="35" viewBox="0 0 144 35" fill="none" xmlns="http://www.w3.org/2000/svg">
<g clip-path="url(#clip0_4_379)">
<path d="M33.1484 0H4.44839C2.44839 0 0.848389 1.4 0.848389 3.15V31.85C0.848389 33.6 2.44839 35 4.44839 35H33.1484C35.1484 35 36.7484 33.6 36.7484 31.85V3.15C36.7484 1.4 35.1484 0 33.1484 0ZM34.7484 31.85C34.7484 32.6375 34.0484 33.25 33.1484 33.25H4.44839C3.54839 33.25 2.84839 32.6375 2.84839 31.85V3.15C2.84839 2.3625 3.54839 1.75 4.44839 1.75H33.1484C34.0484 1.75 34.7484 2.3625 34.7484 3.15V31.85V31.85ZM9.84839 29.75L14.3484 26.25L9.84839 22.75V29.75ZM26.0484 15.575C25.2484 14.875 23.7484 14 21.2484 14C18.5484 14 15.7484 14.6125 13.7484 15.225V5.25H9.74839V20.3875L12.5484 19.25C12.5484 19.25 17.1484 17.4125 21.1484 17.4125C23.1484 17.4125 23.6484 18.375 23.6484 19.25V29.75H27.6484V19.25C27.7484 18.9875 27.7484 17.0625 26.0484 15.575ZM20.7484 10.9375H24.7484C26.5484 9.1 27.4484 7.2625 27.7484 5.25H23.7484C23.3484 7.2625 22.3484 9.1 20.7484 10.9375ZM131.248 19.1625V11.4625H135.248V19.1625C135.248 20.9125 135.948 21.7875 137.548 21.7875C139.148 21.7875 139.748 21 139.748 19.1625V11.4625H143.648V19.25C143.648 22.6625 141.748 24.675 137.448 24.675C133.148 24.5875 131.248 22.575 131.248 19.1625ZM114.448 11.4625H118.448V16.1875L122.548 11.4625H127.148L122.148 16.5375L127.548 24.4125H123.048L119.548 19.25L118.448 20.3875V24.4125H114.448V11.4625ZM95.4484 17.85C95.4484 13.125 99.1484 11.1125 102.748 11.1125C106.348 11.1125 110.048 13.125 110.048 17.85C110.048 22.575 106.348 24.5875 102.748 24.5875C99.1484 24.5875 95.4484 22.6625 95.4484 17.85ZM105.948 17.85C105.948 15.4875 104.748 14 102.648 14C100.548 14 99.3484 15.4875 99.3484 17.85C99.3484 20.2125 100.548 21.7875 102.648 21.7875C104.748 21.7875 105.948 20.3 105.948 17.85ZM79.3484 11.4625H85.1484C88.9484 11.4625 91.2484 12.6 91.2484 15.6625C91.2484 17.675 90.2484 18.9 88.3484 19.425L91.4484 24.4125H87.2484L84.3484 19.95H83.2484V24.4125H79.3484V11.4625ZM85.0484 17.2375C86.6484 17.2375 87.4484 16.8 87.4484 15.75C87.4484 14.7 86.7484 14.2625 85.0484 14.2625H83.3484V17.2375H85.0484V17.2375ZM64.0484 11.4625H74.6484V14.35H68.0484V16.45H72.7484V19.1625H68.0484V21.525H74.9484V24.325H64.0484V11.4625V11.4625ZM45.9484 11.4625H49.9484V16.275H54.8484V11.4625H58.8484V24.4125H54.8484V19.1625H49.9484V24.4125H45.9484V11.4625Z" fill="#430098"/>
</g>
<defs>
<clipPath id="clip0_4_379">
<rect width="143" height="35" fill="white" transform="translate(0.848389)"/>
</clipPath>
</defs>
</svg>
