<svg width="32" height="36" viewBox="0 0 32 36" fill="none" xmlns="http://www.w3.org/2000/svg">
<path d="M0.688599 0.5L3.46527 31.9041L16.1249 35.5L28.7301 31.9041L31.5612 0.5H0.691194H0.688599ZM26.3916 29.97L16.1249 32.9022L5.80897 29.9752L3.42379 3.00185H28.826L26.3916 29.97Z" fill="#333333"/>
<path d="M3.42119 3.00439L5.80638 29.9777L16.1223 32.9048L26.389 29.9777L28.8234 3.00439H3.42119ZM25.733 7.96143L25.5282 9.94476L25.4608 10.764H10.6467L10.989 14.7281H16.0808V14.7203H25.1108L24.9734 15.747L24.0842 25.9333L24.0167 26.6177L16.1223 28.7903V28.8033H16.0549L8.11896 26.6151L7.63933 20.5303H11.4686L11.7408 23.6077L16.0471 24.7692H16.0808L20.3871 23.6077L20.8667 18.6248H16.1223V18.6325H7.43971L6.48304 7.96921L6.41563 6.94254H25.8082L25.733 7.96143V7.96143Z" fill="#E6E6E5"/>
<path d="M6.41045 6.94006L6.48563 7.95896L7.4423 18.6223H16.1223V18.6171H20.8745L20.3949 23.6078L16.0886 24.7693V24.7745H16.0549L11.7486 23.613L11.4738 20.5304H7.64711L8.11896 26.6204L16.0549 28.8086H16.1223V28.7878L24.0193 26.6152L24.0945 25.9308L24.9812 15.7445L25.1186 14.7204H16.0886V14.7256H10.9967L10.6467 10.7693H25.4608L25.5282 9.94747L25.7356 7.95896L25.803 6.94006H16.0886H6.41045Z" fill="#333333"/>
</svg>
