<svg width="110" height="35" viewBox="0 0 110 35" fill="none" xmlns="http://www.w3.org/2000/svg">
<path d="M44.7521 12.4322L44.8377 13.9642C45.8149 12.7796 47.0955 12.1886 48.6819 12.1886C51.4297 12.1886 52.8295 13.7698 52.8787 16.9297V25.6862H49.9158V17.1008C49.9158 16.2609 49.7344 15.6388 49.374 15.2318C49.0111 14.8274 48.4201 14.6253 47.5984 14.6253C46.4034 14.6253 45.5116 15.1696 44.9258 16.2532V25.6836H41.9603V12.4322H44.7521V12.4322ZM61.713 25.9299C59.8336 25.9299 58.312 25.3363 57.1455 24.149C55.979 22.9618 55.3931 21.378 55.3931 19.4027V19.0346C55.3931 17.7126 55.6472 16.5305 56.1553 15.4885C56.6633 14.4464 57.3788 13.6376 58.2964 13.057C59.2167 12.4789 60.2406 12.1886 61.3708 12.1886C63.1672 12.1886 64.5566 12.7641 65.5365 13.915C66.5163 15.0659 67.0063 16.6938 67.0063 18.8013V20.0015H58.3794C58.4701 21.0954 58.833 21.9612 59.4707 22.5963C60.1084 23.2314 60.912 23.5502 61.8815 23.5502C63.2398 23.5502 64.3466 23.0007 65.1995 21.8964L66.7963 23.4284C66.2675 24.219 65.5624 24.8334 64.681 25.2715C63.7971 25.7095 62.8095 25.9273 61.7104 25.9273L61.713 25.9299ZM61.3604 14.5786C60.5465 14.5786 59.8906 14.8637 59.3903 15.4366C58.89 16.0069 58.5712 16.8053 58.4312 17.824H64.0796V17.6037C64.0148 16.6083 63.7504 15.854 63.2864 15.3433C62.8224 14.8326 62.1796 14.5786 61.3578 14.5786H61.3604ZM73.0228 9.21272V12.4348H75.3532V14.6382H73.0228V22.0364C73.0228 22.5419 73.1239 22.9074 73.3209 23.1329C73.5205 23.3584 73.8756 23.4699 74.3889 23.4699C74.7388 23.4699 75.0862 23.4284 75.4257 23.348V25.6499C74.7518 25.8391 74.1011 25.9325 73.4738 25.9325C71.1978 25.9325 70.0573 24.6726 70.0573 22.1478V14.6408H67.885V12.4374H70.0573V9.21532H73.0228V9.21272ZM80.7709 25.6862H77.8054V6.87455H80.7709V25.6862V25.6862ZM87.1529 25.6862H84.1874V12.4348H87.1529V25.6862ZM84.006 8.99238C84.006 8.53615 84.1511 8.1551 84.4389 7.85441C84.7292 7.55371 85.1413 7.40077 85.6779 7.40077C86.2145 7.40077 86.6293 7.55112 86.9222 7.85441C87.2151 8.1577 87.3603 8.53615 87.3603 8.99238C87.3603 9.44861 87.2151 9.81411 86.9222 10.1122C86.6293 10.4103 86.2145 10.5607 85.6779 10.5607C85.1413 10.5607 84.7292 10.4103 84.4389 10.1122C84.1511 9.81411 84.006 9.44083 84.006 8.99238ZM91.4249 25.6862V14.6382H89.4107V12.4348H91.4249V11.2217C91.4249 9.7519 91.8318 8.61651 92.6432 7.81811C93.4571 7.01712 94.5951 6.61792 96.0597 6.61792C96.5808 6.61792 97.1329 6.6905 97.7187 6.83825L97.6462 9.16607C97.2729 9.09608 96.8918 9.06497 96.5108 9.06756C95.0954 9.06756 94.3877 9.79855 94.3877 11.2606V12.4348H97.0707V14.6382H94.3877V25.6862H91.4223H91.4249ZM103.857 21.4246L106.54 12.4348H109.7L104.453 27.6952C103.647 29.9245 102.281 31.0391 100.352 31.0391C99.9221 31.0391 99.4451 30.9665 98.9241 30.8188V28.5169L99.4866 28.5532C100.236 28.5532 100.798 28.4158 101.177 28.1436C101.555 27.8714 101.853 27.4126 102.074 26.7672L102.501 25.6292L97.8639 12.44H101.06L103.854 21.4298L103.857 21.4246Z" fill="#101F25"/>
<path d="M25.6916 12.1497L25.6787 12.1445C25.6787 12.1445 25.6631 12.1393 25.6579 12.1315C25.6372 12.1082 25.6268 12.0771 25.632 12.046L26.3371 7.73256L29.6396 11.0428L26.2049 12.5074C26.2049 12.5074 26.1841 12.5126 26.1738 12.5126H26.1608C26.1608 12.5126 26.1505 12.5074 26.1427 12.497C26.0157 12.3545 25.8627 12.2378 25.6916 12.1497ZM30.4846 11.8879L34.0178 15.4262C34.7514 16.1624 35.1195 16.5279 35.2517 16.953C35.2724 17.0153 35.288 17.0801 35.3009 17.1449L26.8581 13.565C26.8581 13.565 26.8478 13.5624 26.8452 13.5598C26.8115 13.5469 26.7726 13.5313 26.7726 13.495C26.7726 13.4587 26.8115 13.4432 26.8452 13.4302L26.8555 13.4251L30.482 11.8879H30.4846ZM35.1584 18.2803C34.9769 18.6224 34.6218 18.9802 34.0204 19.5816L30.0388 23.5684L24.888 22.4952L24.8595 22.49C24.8129 22.4822 24.7662 22.4745 24.7662 22.433C24.7273 22.0027 24.5096 21.6087 24.17 21.3442C24.1493 21.3235 24.1544 21.2898 24.1596 21.2613C24.1596 21.2561 24.1596 21.2509 24.1596 21.2483L25.1291 15.2914V15.2707C25.1369 15.224 25.1473 15.1722 25.1861 15.1722C25.6061 15.1204 25.9871 14.9 26.2438 14.5656C26.2515 14.5552 26.2567 14.5475 26.2671 14.5397C26.2956 14.5267 26.3319 14.5397 26.3604 14.5527L35.1558 18.2777L35.1584 18.2803ZM29.1211 24.486L22.5732 31.0443L23.693 24.1438V24.1335C23.693 24.1335 23.6982 24.1153 23.7008 24.1075C23.7112 24.0868 23.7345 24.0764 23.7552 24.0687L23.7656 24.0635C24.0119 23.9598 24.227 23.7965 24.3981 23.5917C24.4189 23.5658 24.4474 23.5424 24.4811 23.5373C24.4888 23.5373 24.4992 23.5373 24.507 23.5373L29.1185 24.486H29.1211ZM21.1864 32.4311L20.4476 33.1699L12.2873 21.3572C12.2873 21.3572 12.2821 21.3494 12.2769 21.3442C12.264 21.3261 12.251 21.3105 12.2536 21.2898C12.2536 21.2743 12.264 21.2613 12.2744 21.2509L12.2847 21.238C12.308 21.2017 12.3314 21.1654 12.3521 21.1265L12.3703 21.0954H12.3729C12.3858 21.0695 12.3962 21.0487 12.4195 21.0384C12.4377 21.028 12.4662 21.0332 12.4869 21.0384L21.5285 22.9048C21.5545 22.9074 21.5778 22.9203 21.5985 22.9359C21.6115 22.9488 21.6141 22.9618 21.6167 22.9747C21.7437 23.4595 22.0911 23.8561 22.5525 24.0479C22.5784 24.0609 22.568 24.0894 22.5551 24.1179C22.5499 24.1309 22.5447 24.1438 22.5421 24.1594C22.428 24.8541 21.4508 30.8214 21.189 32.4311H21.1864ZM19.644 33.9735C19.0996 34.5127 18.7782 34.7978 18.4153 34.9145C18.0576 35.0285 17.6739 35.0285 17.3162 34.9145C16.8911 34.7797 16.523 34.4116 15.7894 33.678L7.59282 25.471L9.73399 22.1452C9.74435 22.1297 9.75473 22.1141 9.77028 22.1012C9.79361 22.0856 9.82471 22.0908 9.85322 22.1012C10.3457 22.2489 10.872 22.223 11.3463 22.026C11.3697 22.0156 11.3956 22.0104 11.4137 22.026C11.4241 22.0338 11.4319 22.0441 11.4397 22.0545L19.6414 33.9735H19.644ZM6.80479 24.6752L4.92544 22.7933L8.63748 21.2069C8.63748 21.2069 8.65822 21.2017 8.66859 21.2017C8.6997 21.2017 8.71784 21.2328 8.7334 21.2613C8.76969 21.3183 8.81116 21.3754 8.85264 21.4298L8.86559 21.4453C8.87596 21.4609 8.86819 21.4765 8.85782 21.492L6.80738 24.6804L6.80479 24.6752ZM4.09334 21.9586L1.71369 19.5764C1.3093 19.172 1.01639 18.8765 0.811606 18.625L8.04387 20.1285C8.04387 20.1285 8.06201 20.1311 8.07238 20.1337C8.11645 20.1415 8.1657 20.1492 8.1657 20.1907C8.1657 20.2374 8.11126 20.2581 8.0672 20.2737L8.04645 20.284L4.09334 21.9612V21.9586ZM0.396851 17.3989C0.404627 17.246 0.433143 17.093 0.479803 16.9479C0.614598 16.5227 0.980097 16.1547 1.71628 15.4211L4.75954 12.3726C6.16192 14.4101 7.5669 16.445 8.97447 18.4747C8.9978 18.5084 9.02631 18.5447 8.9978 18.5706C8.8656 18.7183 8.7308 18.8791 8.63748 19.0527C8.62711 19.0761 8.61156 19.0942 8.59082 19.1098C8.57786 19.1175 8.56749 19.115 8.55194 19.1098L0.396851 17.3963V17.3989ZM5.57349 11.5561L9.664 7.45778C10.0502 7.62628 11.45 8.21989 12.7021 8.7487C13.6508 9.15049 14.514 9.51601 14.7862 9.63525C14.8147 9.64562 14.838 9.65599 14.851 9.6845C14.8588 9.70005 14.8536 9.72078 14.851 9.73893C14.7188 10.3403 14.8977 10.9676 15.328 11.4083C15.3565 11.4368 15.328 11.4757 15.3046 11.5094L15.2917 11.5276L11.1364 17.9744C11.126 17.9925 11.1156 18.0081 11.0975 18.021C11.0768 18.034 11.0456 18.0288 11.0197 18.021C10.859 17.9796 10.6931 17.9562 10.5246 17.9536C10.3743 17.9536 10.2135 17.9822 10.0476 18.0107C10.0295 18.0133 10.0139 18.0159 9.99839 18.0055C9.98283 17.9925 9.96729 17.977 9.95692 17.9588L5.57608 11.5587L5.57349 11.5561ZM10.4935 6.62828L15.792 1.32203C16.5256 0.588436 16.8937 0.220338 17.3188 0.0855429C17.6765 -0.0285143 18.0602 -0.0285143 18.4179 0.0855429C18.843 0.220338 19.2111 0.588436 19.9447 1.32203L21.093 2.47297L17.324 8.3184C17.3136 8.33655 17.3006 8.3495 17.2877 8.36246C17.2644 8.37802 17.2332 8.37283 17.2047 8.36246C16.6007 8.17842 15.9475 8.30543 15.455 8.69945C15.4317 8.72537 15.3928 8.70983 15.3617 8.69687C14.8691 8.48172 11.043 6.86158 10.4935 6.63087V6.62828ZM21.8914 3.27396L25.3702 6.75789L24.5329 11.9579V11.9708C24.5329 11.9708 24.5303 11.9941 24.5251 12.0045C24.5148 12.0227 24.4966 12.0253 24.4785 12.033C24.2996 12.0875 24.1311 12.1704 23.9782 12.2819C23.9704 12.2871 23.9652 12.2923 23.96 12.2974C23.9497 12.3078 23.9393 12.3182 23.9237 12.3208C23.9108 12.3208 23.8978 12.3208 23.8849 12.3156L18.5838 10.0604L18.5734 10.0552C18.5397 10.0422 18.5008 10.0241 18.5008 9.99038C18.4697 9.69487 18.3738 9.40972 18.2183 9.15568C18.1924 9.1142 18.1639 9.07014 18.1872 9.02607L21.894 3.27396H21.8914ZM18.309 11.1284L23.2809 13.2358C23.3094 13.2488 23.3379 13.2617 23.3509 13.2877C23.356 13.3058 23.356 13.324 23.3509 13.3395C23.3353 13.4121 23.3224 13.495 23.3224 13.5806V13.7206C23.3224 13.7543 23.2861 13.7698 23.255 13.7828H23.2446C22.4565 14.1224 12.1888 18.5084 12.1733 18.5084C12.1577 18.5084 12.1422 18.5084 12.1266 18.4928C12.0981 18.4643 12.1266 18.428 12.1499 18.3917C12.1551 18.3865 12.1577 18.3788 12.1629 18.3736L16.2482 12.0408L16.256 12.0304C16.2793 11.9916 16.3078 11.9501 16.3519 11.9501L16.3934 11.9553C16.4867 11.9682 16.5696 11.9812 16.65 11.9812C17.2695 11.9812 17.845 11.6779 18.1898 11.162C18.1975 11.1491 18.2079 11.1361 18.2209 11.1258C18.2442 11.1076 18.2831 11.1154 18.309 11.1284V11.1284ZM12.6165 19.5116L23.8071 14.7315C23.8071 14.7315 23.8226 14.7315 23.8382 14.7471C23.9004 14.8093 23.9523 14.8482 24.0015 14.8871L24.0248 14.9026C24.0482 14.9156 24.0715 14.9311 24.0715 14.9544C24.0715 14.9648 24.0715 14.97 24.0715 14.9778L23.1124 20.8751V20.8984C23.102 20.945 23.0968 20.9969 23.0528 20.9969C22.5343 21.0332 22.0651 21.3209 21.8007 21.7694L21.7955 21.7771C21.7826 21.7979 21.7722 21.8186 21.7489 21.829C21.7307 21.8394 21.7048 21.8342 21.6841 21.829L12.7591 19.9859C12.7591 19.9859 12.6217 19.5116 12.6113 19.5116H12.6165Z" fill="url(#paint0_radial_1_286)"/>
<defs>
<radialGradient id="paint0_radial_1_286" cx="0" cy="0" r="1" gradientUnits="userSpaceOnUse" gradientTransform="translate(19.6906 -14.748) scale(35.2068 35.2068)">
<stop stop-color="#3BBEB3"/>
<stop offset="1" stop-color="#4E9ABF"/>
</radialGradient>
</defs>
</svg>
