<svg width="138" height="36" viewBox="0 0 138 36" fill="none" xmlns="http://www.w3.org/2000/svg">
<path d="M8.14501 20.4822C8.14501 20.4978 8.12945 20.5133 8.10094 20.5419L4.0542 22.2554H4.03864C4.03864 22.2554 4.02309 22.2554 4.00753 22.2399L0.761849 18.9968C0.746295 18.9812 0.73074 18.9527 0.746295 18.9372C0.761849 18.9216 0.777403 18.906 0.790365 18.906H0.80592L8.10094 20.4382C8.13204 20.4382 8.14501 20.4537 8.14501 20.4822V20.4822ZM8.53387 19.4686C8.5235 19.4686 8.5235 19.4686 8.53387 19.4686L0.124118 17.685C0.0930096 17.685 0.0800476 17.6695 0.0800476 17.6539C0.0800476 17.641 0.0800476 17.6254 0.095602 17.6098L4.80081 12.9695C4.80081 12.9539 4.81636 12.9539 4.83192 12.9539C4.85093 12.9643 4.86562 12.9738 4.87599 12.9824C4.87599 12.998 8.89162 18.8335 8.93569 18.8931C8.95124 18.9086 8.95124 18.9372 8.93569 18.9527C8.80088 19.1005 8.66608 19.2612 8.57794 19.4375C8.56238 19.453 8.54683 19.4686 8.53387 19.4686V19.4686ZM10.3123 7.62392C10.2967 7.60837 10.2811 7.60837 10.2967 7.57985C10.2967 7.56429 10.2967 7.55133 10.3123 7.53578L17.3999 0.515558C17.3999 0.500003 17.4154 0.5 17.431 0.5C17.4465 0.5 17.4465 0.500003 17.4621 0.515558L20.503 3.53829C20.5185 3.55385 20.5185 3.58237 20.503 3.59792L16.8218 9.28565C16.8062 9.3012 16.7907 9.31417 16.7777 9.31417H16.7621C16.1814 9.12233 15.5437 9.23898 15.0667 9.62007C15.0563 9.63044 15.0468 9.63562 15.0382 9.63562H15.0226C14.8308 9.54748 10.3148 7.62392 10.3148 7.62392H10.3123ZM9.85858 18.3953L5.64852 12.2202C5.63297 12.2047 5.63297 12.1762 5.64852 12.1606L9.44639 8.40164C9.44639 8.38609 9.46195 8.38609 9.4775 8.38609H9.49306C9.49306 8.40164 13.9624 10.2941 14.4679 10.5144C14.4834 10.53 14.499 10.543 14.499 10.5741C14.3642 11.1496 14.5301 11.7536 14.9423 12.1788C14.9552 12.1943 14.9552 12.2228 14.9423 12.2384L10.9474 18.4109C10.9318 18.4265 10.9163 18.442 10.9033 18.442H10.8878C10.7244 18.3953 10.5533 18.3694 10.3822 18.3668C10.2319 18.3668 10.0712 18.3953 9.9208 18.4239H9.90525C9.88969 18.4239 9.87673 18.4083 9.86118 18.3928L9.85858 18.3953ZM11.2326 22.2399L19.0875 33.7061C19.1031 33.7216 19.1031 33.7501 19.0875 33.7657L17.361 35.4844C17.361 35.5 17.3454 35.5 17.3299 35.5C17.3299 35.5 17.3143 35.5 17.2988 35.4844L7.48135 25.7085C7.4658 25.693 7.4658 25.6644 7.48135 25.6489L7.49691 25.6333L9.64341 22.3125C9.65897 22.2969 9.67193 22.2839 9.68749 22.2839H9.70304C9.92599 22.3591 10.1334 22.3876 10.3563 22.3876C10.6389 22.3876 10.9059 22.328 11.1755 22.2139H11.1911C11.2066 22.2139 11.2222 22.2295 11.2351 22.2425L11.2326 22.2399ZM8.7957 21.6618C8.81125 21.6747 8.81125 21.6903 8.81125 21.6903L6.76844 24.8504C6.75289 24.866 6.73733 24.8815 6.72437 24.8815C6.72437 24.8815 6.70882 24.8815 6.69326 24.866L4.89932 23.0824C4.88377 23.0668 4.88377 23.0513 4.88377 23.0383C4.88377 23.0228 4.89932 23.0072 4.91488 23.0072L8.60386 21.4388H8.61942C8.63497 21.4388 8.64793 21.4544 8.66349 21.4673C8.70756 21.5425 8.75163 21.5996 8.79829 21.6592L8.7957 21.6618ZM12.381 20.2411C12.381 20.1245 12.3525 20.0208 12.3369 19.9015C12.3369 19.8704 12.3369 19.8575 12.368 19.8445L22.945 15.3467H22.9606C22.9606 15.3467 22.9761 15.3467 22.9891 15.3622C23.0617 15.4348 23.1213 15.4789 23.1809 15.523C23.212 15.523 23.212 15.5541 23.212 15.567L22.2788 21.2288C22.2788 21.2599 22.2632 21.2729 22.2347 21.2729C21.7292 21.3014 21.2833 21.5944 21.0292 22.0351C21.0137 22.0506 20.9981 22.0662 20.9852 22.0662H20.9696L12.4277 20.2826C12.3965 20.2826 12.3836 20.2671 12.3836 20.2385L12.381 20.2411ZM21.7525 24.1608C21.7836 24.1738 21.7836 24.2049 21.7525 24.2049L20.3967 32.4436C20.3967 32.4591 20.3811 32.4591 20.3811 32.4747L19.9041 32.9439C19.9041 32.9595 19.8886 32.9594 19.8756 32.9594C19.8653 32.9594 19.8549 32.9543 19.8445 32.9439L12.0206 21.5684C12.0051 21.5529 12.0051 21.5244 12.0206 21.5088C12.0647 21.4492 12.0958 21.3896 12.1399 21.317C12.1555 21.3014 12.1684 21.2859 12.184 21.2859H12.1995L20.8167 23.085C20.8478 23.1006 20.8607 23.1161 20.8607 23.1291C20.9774 23.5957 21.3066 23.9768 21.7499 24.1608H21.7525ZM28.2465 24.6456C28.262 24.6456 28.2776 24.6586 28.2776 24.7027C28.2776 24.7182 28.2776 24.7338 28.262 24.7467L21.7992 31.137C21.7992 31.1525 21.7836 31.1525 21.7681 31.1525H21.737C21.7214 31.137 21.7084 31.1214 21.7084 31.0929L22.8387 24.2386C22.8387 24.2231 22.8543 24.1945 22.8673 24.1945C23.1317 24.0908 23.3624 23.9172 23.5387 23.6942C23.5542 23.6942 23.5698 23.6787 23.5828 23.6812H23.5983L28.2491 24.6482L28.2465 24.6456ZM22.5017 13.9494C22.5173 13.9649 22.5328 13.9779 22.5328 14.0064C22.5173 14.079 22.5017 14.1671 22.5017 14.2579V14.3901C22.5017 14.4056 22.4862 14.4186 22.4706 14.4342L11.9532 18.9009H11.9377C11.9221 18.9009 11.9066 18.9009 11.8936 18.8879C11.8781 18.8723 11.8781 18.8438 11.8936 18.8283L15.8444 12.7284C15.86 12.7128 15.873 12.6998 15.8885 12.6998H15.9041C16.0078 12.7154 16.0985 12.7284 16.1866 12.7309C16.7803 12.7309 17.3325 12.438 17.6591 11.9403C17.6747 11.9247 17.6902 11.9117 17.7032 11.9117H17.7187L22.4991 13.952L22.5017 13.9494ZM34.0846 18.8879C34.1001 18.9035 34.1001 18.919 34.0975 18.932C34.0975 18.9449 34.0975 18.9605 34.082 18.976L29.2264 23.7798C29.2264 23.7953 29.2109 23.7953 29.1953 23.7953H29.1823L23.8938 22.6806C23.8627 22.6806 23.8498 22.665 23.8498 22.6365C23.8135 22.2295 23.6087 21.8562 23.2872 21.6047C23.2717 21.5892 23.2717 21.5736 23.2717 21.5607L24.2205 15.8081C24.2205 15.7796 24.2516 15.7641 24.2646 15.7641C24.6664 15.7148 25.0319 15.5022 25.2756 15.1782C25.2911 15.1626 25.3067 15.1626 25.3197 15.1626H25.3352L34.082 18.8879H34.0846ZM34.9919 18.0065C35.023 18.022 35.023 18.0661 34.9919 18.0661L34.9608 18.0946C34.9608 18.1102 34.9452 18.1102 34.9323 18.1102H34.9167L25.7993 14.2216C25.7837 14.2216 25.7681 14.1931 25.7681 14.1775C25.7681 14.1619 25.7837 14.1464 25.7993 14.1334L29.5038 12.565H29.5194C29.5194 12.565 29.5349 12.565 29.5479 12.5806L34.9919 18.0065V18.0065ZM17.6487 10.0089C17.6332 9.99337 17.6332 9.96486 17.6487 9.93634L21.2418 4.38082C21.2418 4.36527 21.2574 4.35231 21.2729 4.35231C21.2885 4.35231 21.2885 4.35231 21.3014 4.36787L24.4771 7.53837C24.4927 7.55392 24.4927 7.56689 24.4927 7.58244L23.6502 12.7465C23.6502 12.7776 23.6346 12.7906 23.619 12.7906C23.4298 12.845 23.2535 12.9357 23.098 13.055C23.098 13.0706 23.0824 13.0706 23.0695 13.0706H23.0539L17.9754 10.8981C17.9598 10.8826 17.9443 10.8696 17.9443 10.8541C17.9132 10.5559 17.8121 10.2682 17.6487 10.0141V10.0089ZM24.7312 12.8917C24.7156 12.8917 24.7001 12.8632 24.6871 12.8476L25.3948 8.56755C25.3948 8.53644 25.4104 8.52348 25.426 8.52348H25.4415C25.4415 8.52348 25.4545 8.52348 25.47 8.53904L28.6587 11.7095C28.6742 11.7251 28.6742 11.7407 28.6742 11.7536C28.6742 11.7666 28.6587 11.7821 28.6431 11.7977L25.2212 13.2468H25.2056C25.1952 13.2468 25.1849 13.2416 25.1745 13.2313C25.0501 13.0913 24.8971 12.9746 24.7286 12.8917H24.7312Z" fill="#C9DB48"/>
<path d="M77.2428 11.3026L79.6201 11.3077L79.6253 9.18975L77.248 9.18457L77.2428 11.3026ZM84.289 10.1826C83.6331 10.8282 83.3065 11.7562 83.3039 12.9617V13.9494L81.681 13.9468V15.7407L83.2987 15.7433L83.2806 24.7519L85.6578 24.7571L85.6759 15.7485L87.8302 15.7537V13.9598L85.6785 13.9546V12.998C85.6837 11.8055 86.2488 11.217 87.3921 11.2196C87.7343 11.2196 88.0454 11.2507 88.2994 11.2948L88.3642 9.39455C87.9261 9.28049 87.4777 9.22086 87.0266 9.21568C85.8678 9.20012 84.9449 9.53455 84.289 10.1826V10.1826ZM93.0954 21.2963L90.8659 13.965L88.2943 13.9598L92.004 24.7105L91.6592 25.6359C91.4803 26.1648 91.2418 26.5329 90.9281 26.7533C90.63 26.9736 90.1686 27.0903 89.5749 27.0903L89.129 27.0592V28.9439C89.4971 29.0553 89.8808 29.115 90.2697 29.1227C91.8147 29.1253 92.9165 28.2154 93.575 26.4059L97.8187 13.9805L95.2782 13.9753L93.0928 21.2989L93.0954 21.2963ZM77.2169 24.739L79.5942 24.7442L79.6149 13.9416L77.2377 13.9364L77.2169 24.739ZM66.9951 22.6288C66.8318 22.4525 66.7566 22.1414 66.7592 21.7318L66.7721 15.6967H68.6439L68.6464 13.9053H66.7747L66.7799 11.2818L64.4027 11.2766L64.3975 13.895H62.658L62.6554 15.6889H64.3949L64.3819 21.8147C64.3768 23.8757 65.2971 24.9075 67.1247 24.9101C67.6302 24.9101 68.1487 24.8375 68.7009 24.6768V22.7921C68.4209 22.8647 68.1383 22.8932 67.8713 22.8932C67.441 22.9062 67.1584 22.818 66.9951 22.6262V22.6288ZM59.2749 18.2865L54.7408 18.2787C54.8471 17.4388 55.1167 16.7933 55.5185 16.337C55.9204 15.8678 56.457 15.6474 57.1103 15.65C57.7635 15.6526 58.2846 15.8574 58.6553 16.2722C59.026 16.6844 59.2334 17.304 59.2905 18.1128V18.2891H59.2749V18.2865ZM57.1129 13.6902C56.2392 13.6798 55.3811 13.9235 54.6449 14.3927C53.9009 14.8619 53.3357 15.523 52.9184 16.3759C52.5165 17.2288 52.3065 18.1854 52.304 19.2586V19.5516C52.3014 21.1563 52.7732 22.4525 53.7064 23.4246C54.6423 24.3968 55.8581 24.8867 57.3747 24.8893C58.2509 24.8893 59.0546 24.7156 59.7701 24.3631C60.4622 24.0312 61.0507 23.5128 61.4655 22.8647L60.19 21.6099C59.5056 22.5043 58.6113 22.9606 57.5276 22.958C56.7551 22.958 56.1018 22.691 55.5989 22.1751C55.0804 21.6592 54.7978 20.9515 54.7253 20.0545L61.6496 20.0675V19.0979C61.6547 17.3766 61.2555 16.0492 60.4856 15.1056C59.669 14.162 58.5568 13.6902 57.1154 13.6876L57.1129 13.6902ZM46.8418 13.6694C45.5637 13.6694 44.5371 14.1516 43.7464 15.1056L43.6739 13.8535L41.447 13.8483L41.4262 24.6508L43.8035 24.656L43.819 16.9747C44.296 16.0933 45.0115 15.6526 45.9629 15.6552C46.6162 15.6552 47.0906 15.8185 47.3888 16.1581C47.6869 16.4822 47.8191 16.9981 47.8165 17.6747L47.8035 24.6664L50.1808 24.6716L50.1937 17.5347C50.1678 14.9734 49.0583 13.6772 46.8418 13.672V13.6694ZM71.1481 24.726L73.5279 24.7312L73.559 9.39714L71.1792 9.39196L71.1481 24.726Z" fill="#1E1F21"/>
<path d="M105.007 22.8776C105.612 22.8776 106.114 22.7039 106.514 22.3513C106.913 21.9988 107.128 21.5632 107.154 21.0448L109.438 21.0499C109.409 21.724 109.189 22.3747 108.805 22.9294C108.411 23.5101 107.88 23.969 107.206 24.3086C106.532 24.6482 105.785 24.8193 105.028 24.8141C103.519 24.8115 102.324 24.3216 101.44 23.339C100.556 22.3591 100.118 21.0085 100.121 19.2871V19.0382C100.123 17.3947 100.567 16.0803 101.446 15.0952C102.324 14.1101 103.525 13.6175 105.041 13.6201C106.324 13.6201 107.369 13.9986 108.178 14.7478C108.984 15.497 109.407 16.4821 109.443 17.698L107.159 17.6928C107.133 17.0758 106.923 16.5651 106.529 16.1659C106.135 15.7666 105.63 15.5644 105.018 15.5644C104.232 15.5644 103.626 15.847 103.201 16.4121C102.775 16.9799 102.558 17.8431 102.547 18.9994V19.3882C102.545 20.56 102.755 21.431 103.175 22.0091C103.597 22.5847 104.206 22.8724 105.005 22.875L105.007 22.8776ZM113.396 13.8353L113.464 14.963C114.223 14.0816 115.263 13.6409 116.58 13.6435C118.024 13.6461 119.009 14.2008 119.538 15.3052C120.326 14.2034 121.43 13.6538 122.854 13.6564C124.043 13.6564 124.93 13.9908 125.511 14.6493C126.091 15.3104 126.387 16.2799 126.397 17.5632L126.384 24.656L123.961 24.6508L123.973 17.628C123.973 16.941 123.826 16.4407 123.528 16.1192C123.229 15.7977 122.734 15.6396 122.042 15.637C121.49 15.637 121.039 15.7822 120.689 16.0777C120.339 16.3733 120.093 16.7595 119.953 17.2391L119.947 24.6404L117.524 24.6352L117.537 17.5321C117.505 16.2618 116.857 15.6241 115.595 15.6215C114.625 15.6215 113.933 16.0129 113.526 16.8036L113.511 24.6249L111.087 24.6197L111.107 13.8249L113.391 13.8301L113.396 13.8353ZM134.76 21.7395C134.76 21.3066 134.584 20.9774 134.229 20.7492C133.874 20.5237 133.283 20.3215 132.458 20.1478C131.634 19.9715 130.947 19.7537 130.395 19.4841C129.184 18.8957 128.583 18.048 128.585 16.9358C128.585 16.0051 128.982 15.2274 129.767 14.6026C130.553 13.9779 131.551 13.6694 132.762 13.672C134.053 13.672 135.095 13.996 135.888 14.6364C136.681 15.2767 137.078 16.1062 137.075 17.1225L134.652 17.1173C134.652 16.6506 134.48 16.2644 134.136 15.9533C133.791 15.6422 133.332 15.4893 132.759 15.4867C132.228 15.4867 131.792 15.6085 131.458 15.8522C131.121 16.0985 130.952 16.4251 130.952 16.8399C130.952 17.2132 131.108 17.501 131.419 17.7083C131.733 17.9157 132.362 18.1257 133.314 18.3357C134.265 18.5483 135.009 18.7997 135.551 19.0875C136.093 19.3778 136.495 19.7252 136.757 20.1322C137.018 20.5392 137.148 21.0318 137.148 21.6099C137.148 22.5795 136.741 23.365 135.935 23.9664C135.129 24.5652 134.073 24.866 132.769 24.8634C131.885 24.8634 131.097 24.7001 130.408 24.3812C129.716 24.0597 129.179 23.6216 128.795 23.0617C128.412 22.5017 128.22 21.9003 128.22 21.2548L130.574 21.2599C130.607 21.8329 130.82 22.2736 131.219 22.5821C131.618 22.8931 132.147 23.0487 132.806 23.0487C133.464 23.0487 133.931 22.9294 134.263 22.6883C134.595 22.4473 134.763 22.1284 134.763 21.7369L134.76 21.7395Z" fill="#C9DB48"/>
</svg>
