<svg width="125" height="26" viewBox="0 0 125 26" fill="none" xmlns="http://www.w3.org/2000/svg">
<path d="M82.6026 0.512939H104.203V4.49995H95.6351V25.474H91.3493V4.49995H82.6026V0.512939V0.512939Z" fill="#231F20"/>
<path d="M47.0798 0.512939V4.49995H29.7649V10.9123H43.687V14.8993H29.7649V21.487H47.0798V25.474H25.4824V4.49995V0.512939H47.0831H47.0798Z" fill="#231F20"/>
<path d="M57.8623 0.522827H52.2551L72.3363 25.4839H77.9597L67.9175 13.0131L77.9435 0.542307L72.3363 0.552047L65.1091 9.52607L57.859 0.522827H57.8623Z" fill="#231F20"/>
<path d="M63.6188 18.3507L60.8104 14.8605L52.2422 25.5001H57.8656L63.6188 18.3507V18.3507Z" fill="#231F20"/>
<path d="M25.6318 25.4708L5.5214 0.5H0.167511V25.461H4.45321V5.83766L20.2519 25.474H25.635L25.6318 25.4708Z" fill="#231F20"/>
<path d="M105.164 25.3181C104.849 25.3181 104.583 25.211 104.359 24.9935C104.135 24.7759 104.025 24.5129 104.028 24.2013C104.028 23.8993 104.135 23.6363 104.359 23.4188C104.583 23.2013 104.849 23.0941 105.164 23.0941C105.479 23.0941 105.729 23.2013 105.953 23.4188C106.18 23.6363 106.294 23.8961 106.297 24.2013C106.297 24.4058 106.242 24.5974 106.138 24.7662C106.031 24.9383 105.895 25.0714 105.723 25.1688C105.554 25.2694 105.369 25.3214 105.164 25.3214V25.3181Z" fill="#231F20"/>
<path d="M112.476 14.8052H114.375V22.1201C114.375 22.7922 114.226 23.3669 113.943 23.8506C113.654 24.3344 113.258 24.7045 112.749 24.9643C112.242 25.2208 111.645 25.3539 110.969 25.3539C110.353 25.3539 109.797 25.2435 109.304 25.0259C108.81 24.8084 108.418 24.4837 108.132 24.0519C107.843 23.6234 107.7 23.0877 107.7 22.448H109.603C109.603 22.7273 109.671 22.9708 109.791 23.1753C109.911 23.3799 110.08 23.5325 110.297 23.6428C110.515 23.75 110.765 23.8052 111.047 23.8052C111.353 23.8052 111.612 23.7435 111.827 23.6136C112.038 23.487 112.2 23.2987 112.314 23.0487C112.424 22.7987 112.482 22.4903 112.486 22.1234V14.8084L112.476 14.8052Z" fill="#231F20"/>
<path d="M122.187 17.6656C122.142 17.2208 121.937 16.8766 121.583 16.6299C121.226 16.3799 120.765 16.2565 120.197 16.2565C119.801 16.2565 119.456 16.3182 119.171 16.4351C118.885 16.5552 118.664 16.7143 118.515 16.9188C118.366 17.1234 118.288 17.3539 118.281 17.6136C118.281 17.8312 118.333 18.0195 118.434 18.1786C118.534 18.3377 118.671 18.474 118.849 18.5812C119.025 18.6915 119.219 18.7857 119.43 18.8571C119.645 18.9318 119.859 18.9935 120.073 19.0454L121.064 19.2889C121.463 19.3799 121.846 19.5032 122.216 19.6623C122.586 19.8182 122.918 20.013 123.213 20.25C123.505 20.487 123.739 20.7727 123.911 21.1071C124.083 21.4416 124.171 21.8344 124.171 22.2857C124.171 22.8961 124.015 23.4286 123.697 23.8928C123.382 24.3539 122.924 24.7143 122.327 24.974C121.732 25.2305 121.012 25.3636 120.164 25.3636C119.317 25.3636 118.632 25.237 118.031 24.987C117.427 24.737 116.956 24.3734 116.619 23.8928C116.278 23.4123 116.096 22.8247 116.07 22.1364H117.95C117.976 22.4967 118.093 22.7987 118.291 23.0389C118.492 23.2792 118.752 23.4578 119.073 23.5779C119.395 23.6948 119.755 23.7565 120.155 23.7565C120.554 23.7565 120.937 23.6948 121.252 23.5714C121.567 23.448 121.814 23.276 121.989 23.0552C122.168 22.8344 122.258 22.5747 122.262 22.276C122.262 22.0032 122.177 21.7792 122.021 21.6006C121.862 21.4221 121.642 21.276 121.359 21.1558C121.073 21.0357 120.742 20.9286 120.366 20.8312L119.164 20.5292C118.297 20.3084 117.609 19.974 117.106 19.526C116.603 19.0779 116.353 18.4805 116.353 17.7338C116.353 17.1201 116.521 16.5844 116.862 16.1234C117.2 15.6623 117.661 15.3052 118.245 15.0519C118.833 14.7954 119.492 14.6688 120.229 14.6688C120.966 14.6688 121.635 14.7954 122.2 15.0519C122.765 15.3052 123.21 15.6623 123.531 16.1136C123.853 16.5649 124.021 17.0844 124.031 17.6688H122.19L122.187 17.6656Z" fill="#231F20"/>
</svg>
