<?xml version="1.0" encoding="utf-8"?>
<!-- Generator: Adobe Illustrator 26.5.0, SVG Export Plug-In . SVG Version: 6.00 Build 0)  -->
<svg version="1.1" id="layer" xmlns="http://www.w3.org/2000/svg" xmlns:xlink="http://www.w3.org/1999/xlink" x="0px" y="0px"
	 viewBox="0 0 496.8 200" style="enable-background:new 0 0 496.8 200;" xml:space="preserve">
<style type="text/css">
	.st0{fill:#F0D500;}
	.st1{fill:#040000;}
</style>
<polygon class="st0" points="10.9,21 25.7,55.8 6.8,55.8 13.1,71.1 51.4,71.1 "/>
<polygon class="st0" points="61.3,147.9 54.9,132.5 46.2,132.5 33.6,103 25.8,103 38.3,132.5 16,132.5 57.2,182.7 42.4,147.9 "/>
<g>
	<path class="st1" d="M66.4,86.5c0.5,0,1.6-0.6,1.6-5.9c0-5.3-1.1-5.9-1.6-5.9H40l5,11.8H66.4z"/>
	<path class="st1" d="M51,100.7h17.7c0.5,0,1.6-0.6,1.6-5.9s-1.1-5.9-1.6-5.9H46L51,100.7z"/>
	<path class="st1" d="M66.4,117.2H42.5l5,11.8h18.9c0.5,0,1.6-0.6,1.6-5.9C67.9,117.7,66.8,117.2,66.4,117.2"/>
	<path class="st1" d="M68.7,103H36.5l5,11.8h27.2c0.5,0,1.6-0.6,1.6-5.9C70.3,103.5,69.2,103,68.7,103"/>
	<path class="st1" d="M66.4,117.2H42.5l5,11.8h18.9c0.5,0,1.6-0.6,1.6-5.9C67.9,117.7,66.8,117.2,66.4,117.2"/>
	<path class="st1" d="M68.7,103H36.5l5,11.8h27.2c0.5,0,1.6-0.6,1.6-5.9C70.3,103.5,69.2,103,68.7,103"/>
	<path class="st1" d="M32.7,100.6l-6-14.1h2.9l6,14.2h12.7l-11-26H9.7c-2.1,0-3.3,0-4.2,3.1c-1.1,3.7-1.3,10.6-1.3,24.1
		s0.2,20.4,1.3,24.1c1,3.1,2.1,3.1,4.2,3.1h24.2l-12-28.3L32.7,100.6z"/>
	<path class="st1" d="M170.6,78.2h-13l-18.9,48.3H152l3.3-8.2h17.2l3.1,8.2h13.3L170.6,78.2z M158.7,108.9l5.1-15.5h0.2l5.1,15.5
		H158.7z"/>
	<path class="st1" d="M121.3,78.2h-19.1v48.4h13v-16.5h6.5c10.9,0,17-4.7,17-16.1C138.7,83,131.6,78.2,121.3,78.2 M116.7,100.6h-1.6
		V88.8h1.6c4.8,0,9-0.1,9,6C125.7,100.6,121.3,100.6,116.7,100.6"/>
	<polygon class="st1" points="365.3,107.7 378.3,107.7 378.3,97.1 365.3,97.1 365.3,88.9 382.9,88.9 382.9,78.2 352.3,78.2 
		352.3,126.6 382.9,126.6 382.9,114.8 365.3,114.8 	"/>
	<polygon class="st1" points="252,91.2 263.8,91.2 263.9,126.6 276.7,126.6 276.7,91.2 288.6,91.2 288.6,78.2 252,78.2 	"/>
	<polygon class="st1" points="328.6,97.1 311,97.1 311,78.2 298,78.2 298,126.6 311,126.6 311,107.7 328.6,107.7 328.6,126.6 
		341.6,126.6 341.6,78.2 328.6,78.2 	"/>
	<path class="st1" d="M414.3,91.2c6.2,0,11.2,5.1,11.2,11.2c0,6.2-5.1,11.2-11.2,11.2c-6.2,0-11.2-5.1-11.2-11.2
		C403,96.2,408.1,91.2,414.3,91.2 M414.3,78.2c-13.4,0-24.2,10.9-24.2,24.2s10.9,24.2,24.2,24.2c13.4,0,24.2-10.9,24.2-24.2
		S427.6,78.2,414.3,78.2"/>
	<polygon class="st1" points="480.9,105.3 460,78.2 447.9,78.2 447.9,126.6 460.9,126.6 460.9,99.5 480.7,126.6 493.9,126.6 
		493.9,78.2 480.9,78.2 	"/>
	<polygon class="st1" points="229.5,105.3 208.8,78.2 196.5,78.2 196.5,126.6 209.6,126.6 209.5,99.5 229.4,126.6 242.6,126.6 
		242.6,78.2 229.6,78.2 	"/>
</g>
</svg>
