<svg width="110" height="38" viewBox="0 0 110 38" fill="none" xmlns="http://www.w3.org/2000/svg">
<path d="M20.79 22.6538C22.8285 22.6538 24.4809 21.0013 24.4809 18.9629C24.4809 16.9245 22.8285 15.272 20.79 15.272C18.7516 15.272 17.0991 16.9245 17.0991 18.9629C17.0991 21.0013 18.7516 22.6538 20.79 22.6538Z" fill="#4DC8ED"/>
<path d="M20.7901 11.4598C25.7436 11.4598 30.3472 12.1706 33.8173 13.3659C37.9982 14.8062 40.5692 16.9868 40.5692 18.9628C40.5692 20.9389 37.8447 23.3402 33.3543 24.8263C29.9595 25.9516 25.4932 26.5385 20.7901 26.5385C16.0869 26.5385 11.4026 25.9866 7.9701 24.8155C3.62768 23.3322 1.01093 20.9819 1.01093 18.9628C1.01093 16.9437 3.46616 14.8385 7.58782 13.4009C11.0714 12.1867 15.7881 11.4598 20.7901 11.4598V11.4598Z" stroke="#4DC8ED" stroke-width="1.66" stroke-miterlimit="10"/>
<path d="M14.2589 15.2342C16.733 10.943 19.6486 7.31128 22.4188 4.90182C25.7543 1.9997 28.9284 0.860923 30.6406 1.84894C32.4255 2.87733 33.0716 6.39596 32.1159 11.0291C31.3944 14.5316 29.6714 18.6936 27.3212 22.7695C24.9117 26.9477 22.155 30.6279 19.4224 33.0131C15.9657 36.0337 12.6248 37.1267 10.8776 36.1172C9.17886 35.1399 8.53005 31.9309 9.34577 27.6423C10.035 24.0187 11.7606 19.5713 14.2589 15.2369V15.2342Z" stroke="#4DC8ED" stroke-width="1.66" stroke-miterlimit="10"/>
<path d="M14.2643 22.7777C11.7821 18.4918 10.0915 14.1494 9.38613 10.55C8.53811 6.21025 9.13845 2.89084 10.848 1.90283C12.6302 0.871742 16.0007 2.06705 19.5382 5.20877C22.2115 7.58324 24.9574 11.1557 27.3158 15.2262C29.7306 19.399 31.5424 23.6257 32.2478 27.1847C33.1389 31.6859 32.4174 35.1265 30.6702 36.1387C28.9741 37.1214 25.8701 36.0822 22.5615 33.2339C19.7643 30.8271 16.7734 27.1093 14.267 22.7804L14.2643 22.7777Z" stroke="#4DC8ED" stroke-width="1.66" stroke-miterlimit="10"/>
<path fill-rule="evenodd" clip-rule="evenodd" d="M61.7482 28.3908L57.2254 21.5581C59.511 21.3562 61.5705 19.7006 61.5705 16.6746C61.5705 13.6486 59.3845 11.6241 56.3209 11.6241H49.5905V28.3773H51.6769V21.7197H55.0179L59.2876 28.3773L61.7509 28.3908H61.7482ZM56.0705 19.8998H51.6742V13.4952H56.0705C58.0546 13.4952 59.4114 14.8009 59.4114 16.6854C59.4114 18.5699 58.0546 19.9025 56.0705 19.9025V19.8998ZM69.5096 28.6896C71.4937 28.6896 73.1279 28.0354 74.334 26.832L73.4294 25.6017C72.4737 26.5817 71.0684 27.1336 69.6873 27.1336C67.076 27.1336 65.4661 25.2248 65.3153 22.9392H75.1362V22.4627C75.1362 18.8202 72.9744 15.9558 69.3077 15.9558C65.8403 15.9558 63.3312 18.796 63.3312 22.3119C63.3312 26.1051 65.9183 28.6815 69.5096 28.6815V28.6923V28.6896ZM73.2786 21.5554H65.3153C65.4149 19.6979 66.6964 17.5092 69.2835 17.5092C72.0483 17.5092 73.2517 19.7463 73.2786 21.5554ZM87.6466 28.3881V20.0478C87.6466 17.108 85.5117 15.9531 82.9488 15.9531C80.9647 15.9531 79.4059 16.6073 78.1003 17.9641L78.9806 19.2698C80.0601 18.1149 81.242 17.5872 82.6984 17.5872C84.4564 17.5872 85.7648 18.516 85.7648 20.1501V22.3362C84.7848 21.2055 83.4038 20.6778 81.7454 20.6778C79.6859 20.6778 77.4999 21.9593 77.4999 24.6729C77.4999 27.3866 79.6859 28.6923 81.7454 28.6923C83.3795 28.6923 84.7606 28.1135 85.7648 27.0097V28.3908H87.6466V28.3881ZM82.4238 27.3355C80.6659 27.3355 79.4329 26.2317 79.4329 24.6972C79.4329 23.1627 80.6632 22.0346 82.4238 22.0346C83.7564 22.0346 85.0352 22.5381 85.7648 23.5422V25.8279C85.0352 26.832 83.7537 27.3355 82.4238 27.3355V27.3355ZM96.7568 28.6923C98.967 28.6923 100.273 27.7877 101.204 26.5817L99.9469 25.4267C99.142 26.5063 98.1136 27.0097 96.8671 27.0097C94.28 27.0097 92.6728 24.9987 92.6728 22.3119C92.6728 19.6252 94.28 17.6411 96.8671 17.6411C98.1244 17.6411 99.1528 18.1176 99.9469 19.2241L101.204 18.0691C100.275 16.8631 98.967 15.9585 96.7568 15.9585C93.1385 15.9585 90.7022 18.7233 90.7022 22.3146C90.7022 25.9059 93.1385 28.6842 96.7568 28.6842V28.6923V28.6923ZM106.906 28.6923C108.01 28.6923 108.691 28.3666 109.168 27.9143L108.616 26.5063C108.365 26.7836 107.873 27.0097 107.334 27.0097C106.505 27.0097 106.104 26.3555 106.104 25.451V17.9157H108.567V16.2573H106.104V12.9406H104.219V16.2573H102.208V17.9157H104.219V25.8548C104.219 27.6639 105.124 28.695 106.909 28.695L106.906 28.6923Z" fill="#4DC8ED"/>
</svg>
