<svg width="128" height="26" viewBox="0 0 128 26" fill="none" xmlns="http://www.w3.org/2000/svg">
<path opacity="0.7" d="M95.1182 9.50903L95.0858 25.2406L89.9133 25.2309L89.9392 12.1845L95.1149 9.50903H95.1182Z" fill="black"/>
<path opacity="0.7" d="M25.8842 25.5L37.9805 19.2054L36.4984 15.343L28.537 19.0368L25.8842 25.5V25.5Z" fill="black"/>
<path opacity="0.5" d="M89.9424 12.1714L103.067 5.48763L100.858 1.73877L89.9522 7.04101L89.9424 12.1714Z" fill="black"/>
<path opacity="0.7" d="M53.0278 8.1795L52.9954 25.1564L48.0629 25.1467L48.1115 0.967163L53.0278 8.1795V8.1795Z" fill="black"/>
<path opacity="0.5" d="M33.3917 7.20327L25.8843 25.5L22.0479 22.1857L30.9919 0.937866L33.3917 7.2065V7.20327Z" fill="black"/>
<path d="M30.9919 0.93457L36.0866 0.944299L45.4588 25.1433L40.2441 25.1335L30.9919 0.93457V0.93457Z" fill="black"/>
<path d="M53.8061 0.980187L64.6344 17.5225L64.6182 25.1824L48.1115 0.970459L53.8061 0.980187V0.980187Z" fill="black"/>
<path d="M79.1012 1.03195L73.9676 1.02222L73.919 25.205L79.0526 25.2147L79.1012 1.03195Z" fill="black"/>
<path d="M89.9554 5.46497L82.0555 5.44876L82.0653 1.03833L100.466 1.074L103.067 5.49092L95.1279 5.4747L89.9554 5.46497Z" fill="black"/>
<path opacity="0.5" d="M118.198 16.1117L118.179 25.286L113.084 25.2763L113.104 16.1019" fill="black"/>
<path d="M113.104 16.1017L121.753 1.11597L127.165 1.1257L118.198 16.1114L113.104 16.1017Z" fill="black"/>
<path opacity="0.7" d="M113.104 16.1018L104.273 1.08044L109.848 1.09017L115.831 11.3833L113.107 16.0986L113.104 16.1018Z" fill="black"/>
<path d="M2.96298 3.67163C2.9565 7.03782 5.06768 9.04522 9.30298 10.1122L13.7912 11.1434C17.7995 12.0547 20.2383 14.3085 20.2285 17.9698C20.2577 19.5654 19.7259 21.122 18.7238 22.377C18.7303 18.7222 16.8104 16.7472 12.173 15.5506L7.76583 14.5582C4.23749 13.7605 1.51664 11.9055 1.52313 7.92964C1.50691 6.39248 2.01283 4.89747 2.95978 3.67163" fill="black"/>
<path opacity="0.7" d="M64.6376 16.2803L64.6668 1.00269L69.5994 1.01241L69.5507 25.1919L64.6182 25.1822L64.6344 16.2803H64.6376Z" fill="black"/>
<path opacity="0.7" d="M15.9803 17.0648C17.8936 18.2712 18.7303 19.9576 18.7238 22.3736C17.1348 24.3647 14.349 25.4803 11.0737 25.4738C5.56386 25.4641 1.71448 22.7919 0.864822 18.161L6.15735 18.1707C6.83513 20.2981 8.63496 21.2872 11.0445 21.2904C13.9826 21.2969 15.9413 19.7597 15.9835 17.0583" fill="black"/>
<path opacity="0.7" d="M5.70333 8.66904C4.83097 8.15666 4.11427 7.4205 3.63107 6.54166C3.14787 5.66282 2.9176 4.67047 2.963 3.67164C4.49692 1.69668 7.15941 0.49354 10.4024 0.500026C16.0159 0.509755 19.2556 3.43166 20.0502 7.53076L14.962 7.52103C14.4042 5.9028 13 4.64129 10.438 4.63805C7.70098 4.63156 5.82981 6.19466 5.71631 8.66904" fill="black"/>
</svg>
