<svg width="122" height="32" viewBox="0 0 122 32" fill="none" xmlns="http://www.w3.org/2000/svg">
<g opacity="0.97">
<path fill-rule="evenodd" clip-rule="evenodd" d="M18.8136 23.3276V14.5397C18.8136 14.2269 18.56 13.9733 18.2471 13.9733H9.50193V4.901H27.2744C27.5872 4.901 27.8408 5.15459 27.8408 5.46742V23.3276H18.8112H18.8136Z" fill="#7C73B5"/>
<path opacity="0.4" fill-rule="evenodd" clip-rule="evenodd" d="M9.50193 4.901V13.9733H1.15488C0.998464 13.9733 0.870497 13.8453 0.870497 13.6889C0.870497 13.613 0.901301 13.5419 0.953441 13.4898L9.50193 4.901V4.901Z" fill="#7C73B5"/>
<path opacity="0.4" fill-rule="evenodd" clip-rule="evenodd" d="M18.8136 31.7151V23.3301H27.8432L19.2994 31.9165C19.188 32.0279 19.0103 32.0279 18.8989 31.9165C18.8444 31.8644 18.8159 31.7909 18.8159 31.7151H18.8136Z" fill="#7C73B5"/>
<path opacity="0.4" fill-rule="evenodd" clip-rule="evenodd" d="M9.50193 13.9733H18.5292C18.6856 13.9733 18.8136 14.1012 18.8136 14.2577V23.3299H10.0684C9.75552 23.3299 9.50193 23.0763 9.50193 22.7635V13.9756V13.9733Z" fill="#7C73B5"/>
</g>
<path d="M62.6249 11.1626H59.0534V17.9289C59.0534 18.4929 59.1932 18.9053 59.4752 19.166C59.7573 19.4267 60.1673 19.5736 60.7076 19.6044C61.203 19.6352 61.8049 19.6329 62.5183 19.5973C62.5444 19.5973 62.5775 19.595 62.6202 19.5926C62.6723 19.5902 62.7174 19.6305 62.7197 19.6826C62.7197 19.6826 62.7197 19.685 62.7197 19.6874V23.3063C62.7197 23.3561 62.6818 23.3964 62.6344 23.4011C62.6084 23.4035 62.587 23.4059 62.5681 23.4082C59.7715 23.7069 57.7926 23.4296 56.636 22.5787C55.4581 21.7113 54.868 20.1614 54.868 17.9265V11.1602H52.1402C52.088 11.1602 52.0454 11.1176 52.0454 11.0654V7.22369C52.0454 7.17155 52.088 7.12888 52.1402 7.12888H54.868V4.44133C54.868 4.36549 54.913 4.29676 54.9818 4.26595L58.9183 2.52876C58.9657 2.50743 59.0226 2.52876 59.0439 2.57853C59.0486 2.59038 59.051 2.6046 59.051 2.61645V7.12888H62.6226C62.6747 7.12888 62.7174 7.17155 62.7174 7.22369V11.0654C62.7174 11.1176 62.6747 11.1602 62.6226 11.1602L62.6249 11.1626ZM70.3108 9.92546C70.6995 8.88504 71.3441 8.10294 72.2423 7.58392C73.0647 7.10755 73.9724 6.84923 74.9654 6.80894C75.0104 6.80894 75.0697 6.80657 75.1479 6.8042C75.2 6.8042 75.2451 6.84448 75.2451 6.89899V11.3119C75.2451 11.3996 75.1739 11.4707 75.0863 11.4707C75.0815 11.4707 75.0768 11.4707 75.0721 11.4707C73.8657 11.3617 72.7803 11.6271 71.8205 12.2694C70.8156 12.9424 70.3108 14.0587 70.3108 15.6205V23.3016C70.3108 23.3537 70.2681 23.3964 70.216 23.3964H66.2226C66.1704 23.3964 66.1278 23.3537 66.1278 23.3016V7.22605C66.1278 7.17391 66.1704 7.13125 66.2226 7.13125H70.216C70.2681 7.13125 70.3108 7.17391 70.3108 7.22605V9.92782V9.92546ZM90.1048 7.12652H94.0982C94.1503 7.12652 94.193 7.16917 94.193 7.22131V23.2968C94.193 23.349 94.1503 23.3917 94.0982 23.3917H90.1048C90.0527 23.3917 90.01 23.349 90.01 23.2968V21.472C88.7563 23.0551 86.993 23.8467 84.7202 23.8467C82.4474 23.8467 80.7007 23.0172 79.1555 21.3582C77.6079 19.6992 76.8353 17.6658 76.8353 15.2579C76.8353 12.85 77.6079 10.8166 79.1555 9.15758C80.7031 7.4986 82.5565 6.66911 84.7202 6.66911C86.9907 6.66911 88.7539 7.46068 90.01 9.04382V7.21894C90.01 7.1668 90.0527 7.12414 90.1048 7.12414V7.12652ZM82.2862 18.5782C83.13 19.4243 84.2012 19.8462 85.4999 19.8462C86.7987 19.8462 87.8747 19.4172 88.7278 18.5616C89.5834 17.7037 90.01 16.604 90.01 15.2603C90.01 13.9165 89.5834 12.8145 88.7278 11.9589C87.8723 11.101 86.7963 10.6744 85.4999 10.6744C84.2035 10.6744 83.13 11.1033 82.2862 11.9589C81.4425 12.8168 81.0207 13.9165 81.0207 15.2603C81.0207 16.604 81.4425 17.7108 82.2862 18.5782V18.5782ZM106.78 6.67148C108.965 6.67148 110.83 7.50097 112.378 9.15995C113.925 10.8189 114.698 12.8524 114.698 15.2603C114.698 17.6682 113.925 19.7016 112.378 21.3606C110.83 23.0196 108.965 23.8491 106.78 23.8491C104.595 23.8491 102.756 23.0575 101.523 21.4743V29.8048C101.523 29.8569 101.481 29.8996 101.429 29.8996H97.4351C97.383 29.8996 97.3404 29.8569 97.3404 29.8048V7.22131C97.3404 7.16917 97.383 7.12652 97.4351 7.12652H101.429C101.481 7.12652 101.523 7.16917 101.523 7.22131V9.0462C102.756 7.46305 104.509 6.67148 106.78 6.67148ZM102.789 18.5782C103.633 19.4243 104.704 19.8462 106.003 19.8462C107.301 19.8462 108.377 19.4172 109.23 18.5616C110.086 17.7037 110.513 16.604 110.513 15.2603C110.513 13.9165 110.086 12.8145 109.23 11.9589C108.375 11.101 107.299 10.6744 106.003 10.6744C104.706 10.6744 103.633 11.1033 102.789 11.9589C101.945 12.8168 101.523 13.9165 101.523 15.2603C101.523 16.604 101.945 17.7108 102.789 18.5782ZM119.267 5.17366C118.575 5.17366 117.976 4.9177 117.466 4.40815C116.957 3.89861 116.703 3.29663 116.703 2.60223C116.703 1.90783 116.957 1.30111 117.466 0.77972C117.976 0.258326 118.575 0 119.267 0C119.959 0 120.592 0.260696 121.102 0.77972C121.611 1.30111 121.865 1.90783 121.865 2.60223C121.865 3.29663 121.611 3.89861 121.102 4.40815C120.592 4.9177 119.983 5.17366 119.267 5.17366ZM117.191 23.2968V7.22131C117.191 7.16917 117.234 7.12652 117.286 7.12652H121.279C121.332 7.12652 121.374 7.16917 121.374 7.22131V23.2968C121.374 23.349 121.332 23.3917 121.279 23.3917H117.286C117.234 23.3917 117.191 23.349 117.191 23.2968ZM42.2147 11.7456C42.2147 12.1793 42.5015 12.5324 43.075 12.8026C43.6486 13.0728 44.3453 13.3122 45.1677 13.5183C45.9901 13.7245 46.8125 13.9852 47.6348 14.2981C48.4572 14.6133 49.154 15.1394 49.7275 15.8765C50.3011 16.6135 50.5878 17.5354 50.5878 18.6422C50.5878 20.3131 49.9669 21.5976 48.7227 22.4982C47.4784 23.3988 45.9261 23.8491 44.0657 23.8491C40.8093 23.8491 38.565 22.6167 37.3349 20.1495C37.3255 20.1282 37.3112 20.0998 37.2946 20.0666C37.2709 20.0192 37.2923 19.9623 37.3397 19.9386C37.3397 19.9386 37.3397 19.9386 37.3421 19.9386L40.8638 18.3744C40.9563 18.3341 41.0653 18.372 41.1127 18.4621C41.1127 18.4621 41.1127 18.4621 41.1127 18.4645C41.6601 19.5167 42.6461 20.0429 44.0657 20.0429C45.5588 20.0429 46.3053 19.576 46.3053 18.6446C46.3053 18.2109 46.0185 17.8578 45.445 17.5876C44.8715 17.3174 44.1747 17.0733 43.3523 16.8553C42.5299 16.6372 41.7075 16.367 40.8852 16.0424C40.0628 15.7177 39.366 15.201 38.7925 14.4971C38.219 13.7933 37.9322 12.9093 37.9322 11.8451C37.9322 10.2407 38.5223 8.97746 39.7002 8.05554C40.8781 7.13362 42.3451 6.67385 44.0965 6.67385C45.4166 6.67385 46.6158 6.97247 47.6988 7.5697C48.68 8.11005 49.4645 8.82105 50.0688 9.77615C50.0996 9.82592 50.1423 9.89227 50.1921 9.98233C50.2181 10.0274 50.2039 10.0866 50.1589 10.1127C50.1565 10.1127 50.1518 10.1174 50.1494 10.1174L46.6181 11.684C46.5565 11.7124 46.483 11.6911 46.4451 11.6318C45.9142 10.8213 45.1322 10.416 44.0941 10.416C43.5538 10.416 43.1035 10.5345 42.748 10.7739C42.3901 11.0133 42.2123 11.338 42.2123 11.7503L42.2147 11.7456Z" fill="#2F3289"/>
</svg>
