<svg width="172" height="36" viewBox="0 0 172 36" fill="none" xmlns="http://www.w3.org/2000/svg">
<path fill-rule="evenodd" clip-rule="evenodd" d="M14.7518 12.1655C16.6943 4.3885 21.5558 0.5 29.3328 0.5C40.9983 0.5 42.4543 9.24649 48.2888 10.706C52.1773 11.679 55.5793 10.223 58.4948 6.3345C56.5523 14.1115 51.6908 18 43.9138 18C32.2483 18 30.7923 9.2535 24.9578 7.794C21.0693 6.821 17.6673 8.277 14.7518 12.1655ZM0.170776 29.6655C2.11678 21.8885 6.97479 18 14.7518 18C26.4173 18 27.8733 26.7465 33.7078 28.206C37.5963 29.179 40.9983 27.723 43.9138 23.8345C41.9713 31.6115 37.1098 35.5 29.3328 35.5C17.6673 35.5 16.2113 26.7535 10.3768 25.294C6.48829 24.321 3.08628 25.777 0.170776 29.6655Z" fill="url(#paint0_linear_1_269)"/>
<path fill-rule="evenodd" clip-rule="evenodd" d="M69.1103 13.9539H65.2918V11.6685H75.5888V13.9539H71.7738V24.3244H69.1068V13.9539H69.1103ZM80.5763 23.1555C80.2228 23.558 79.8064 23.8974 79.3409 24.1669C78.8859 24.4259 78.2978 24.5589 77.5733 24.5589C77.1743 24.5589 76.7788 24.5065 76.3938 24.398C76.0193 24.2895 75.6938 24.125 75.4173 23.901C75.1408 23.677 74.9168 23.3935 74.7523 23.04C74.5878 22.6865 74.5003 22.2769 74.5003 21.7869C74.5003 21.1499 74.6438 20.6285 74.9273 20.226C75.2143 19.8235 75.5993 19.4979 76.0473 19.2879C76.5093 19.0639 77.0238 18.9029 77.6013 18.8084C78.1823 18.7139 78.7668 18.6544 79.3513 18.6299L80.5413 18.5775V18.1155C80.5413 17.5485 80.3873 17.1564 80.0723 16.9464C79.7573 16.7364 79.3863 16.6279 78.9628 16.6279C77.9793 16.6279 77.4158 16.999 77.2758 17.748L75.0043 17.5345C75.1688 16.565 75.5958 15.865 76.2818 15.431C76.9678 14.997 77.8918 14.7834 79.0538 14.7834C79.7643 14.7834 80.3663 14.8675 80.8633 15.039C81.3603 15.2105 81.7629 15.4554 82.0604 15.7739C82.3684 16.1029 82.5923 16.502 82.7183 16.936C82.8548 17.391 82.9214 17.9055 82.9214 18.4725V24.3244H80.5729V23.1555H80.5763ZM80.5238 20.1909L79.4214 20.2435C78.8999 20.2645 78.4798 20.3204 78.1613 20.4044C77.8428 20.4884 77.5943 20.5899 77.4263 20.7159C77.2583 20.8419 77.1358 20.9819 77.0798 21.1499C77.0238 21.3179 76.9923 21.4999 76.9923 21.6994C76.9923 22.0074 77.1008 22.249 77.3108 22.424C77.5208 22.599 77.8184 22.69 78.1964 22.69C78.8369 22.69 79.3583 22.5429 79.7573 22.2454C79.9813 22.0774 80.1669 21.8675 80.3069 21.6155C80.4469 21.3635 80.5203 21.0449 80.5203 20.6669V20.1874L80.5238 20.1909ZM84.9409 15.0635H87.4293V24.3174H84.9409V15.0635ZM84.9058 11.6579H87.4608V13.8909H84.9058V11.6579ZM89.5538 11.6579H92.0423V24.3174H89.5538V11.6579ZM93.1554 15.0635H95.8538L97.1523 21.199L98.9234 15.1544H101.09L102.759 21.2199L104.058 15.0845H106.651L103.953 24.3385H101.538L99.8859 18.2379L98.2163 24.3385H95.8573L93.1589 15.0845V15.0669L93.1554 15.0635ZM107.778 15.0635H110.267V24.3174H107.778V15.0635ZM107.743 11.6579H110.298V13.8909H107.743V11.6579ZM112.374 15.0635H114.789V16.3409C115.156 15.7984 115.59 15.403 116.091 15.151C116.591 14.899 117.116 14.7799 117.659 14.7799C118.712 14.7799 119.496 15.0565 120.004 15.606C120.511 16.1555 120.767 17.0199 120.767 18.203V24.3174H118.282V18.539C118.282 17.8705 118.159 17.4469 117.907 17.2089C117.655 16.9709 117.33 16.8555 116.913 16.8555C116.595 16.8555 116.318 16.9044 116.087 16.9989C115.856 17.0934 115.639 17.2299 115.44 17.4049C115.272 17.5729 115.135 17.7689 115.023 17.9999C114.911 18.2344 114.855 18.4935 114.855 18.7525V24.3174H112.353V15.0635H112.37H112.374ZM129.198 23.0924C128.565 24.0584 127.476 24.629 126.321 24.601C125.019 24.601 124.05 24.1635 123.409 23.2885C122.769 22.4135 122.45 21.2025 122.45 19.6555C122.443 18.987 122.538 18.322 122.727 17.678C122.909 17.0794 123.171 16.565 123.518 16.1345C123.854 15.7075 124.288 15.3644 124.778 15.1334C125.278 14.8989 125.838 14.7799 126.465 14.7799C126.927 14.7799 127.382 14.864 127.837 15.032C128.292 15.2 128.722 15.5324 129.125 15.9909V11.665H131.613V24.3244H129.198V23.0994V23.0924ZM129.146 19.5784C129.146 18.9869 129.097 18.5145 128.978 18.161C128.859 17.8075 128.715 17.517 128.491 17.293C128.278 17.0795 128.043 16.9605 127.791 16.8765C127.546 16.8135 127.294 16.7784 127.039 16.7784C126.773 16.7784 126.51 16.831 126.265 16.9395C126.02 17.048 125.81 17.2124 125.625 17.4364C125.439 17.6604 125.296 17.958 125.191 18.322C125.086 18.686 125.03 19.1235 125.03 19.6345C125.03 20.1875 125.079 20.653 125.198 21.0275C125.313 21.402 125.436 21.703 125.614 21.9305C125.793 22.158 125.999 22.326 126.234 22.4275C126.468 22.529 126.727 22.5954 126.997 22.5954C127.588 22.5954 128.075 22.424 128.453 22.081C128.691 21.8395 128.869 21.5454 128.974 21.2199C129.083 20.8839 129.142 20.45 129.142 19.918V19.582L129.146 19.5784ZM148.578 19.932C148.518 20.6075 148.361 21.2305 148.109 21.801C147.864 22.361 147.507 22.8685 147.062 23.2885C146.59 23.726 146.033 24.0585 145.428 24.272C144.784 24.5065 144.035 24.6254 143.184 24.6254C142.225 24.6254 141.382 24.4644 140.654 24.1459C139.95 23.8449 139.324 23.383 138.827 22.7985C138.333 22.221 137.966 21.5174 137.717 20.6949C137.469 19.8724 137.346 18.9659 137.346 17.9754C137.346 16.9849 137.479 16.026 137.752 15.2105C138.025 14.395 138.417 13.6984 138.925 13.1174C139.432 12.5364 140.048 12.0954 140.769 11.7874C141.49 11.4794 142.309 11.3254 143.223 11.3254C144.028 11.3254 144.731 11.427 145.326 11.6265C145.921 11.826 146.429 12.1164 146.838 12.4944C147.248 12.8724 147.573 13.3275 147.822 13.8595C148.081 14.43 148.266 15.032 148.371 15.6515L145.743 15.9874C145.613 15.2419 145.358 14.6575 144.99 14.2305C144.623 13.8035 144.024 13.5935 143.219 13.5935C142.201 13.5935 141.427 13.9749 140.906 14.7379C140.384 15.5009 140.111 16.579 140.111 17.972C140.111 19.365 140.395 20.4744 140.955 21.2164C141.469 21.9514 142.32 22.3784 143.219 22.3504C144.038 22.3504 144.637 22.1404 145.022 21.7204C145.407 21.3004 145.645 20.7019 145.739 19.9214H148.578V19.932ZM152.445 20.1874C152.505 20.9679 152.757 21.535 153.198 21.8885C153.639 22.242 154.293 22.424 155.158 22.424C155.571 22.424 155.921 22.3784 156.204 22.2909C156.488 22.2034 156.719 22.0844 156.897 21.9374C157.069 21.8009 157.198 21.6189 157.279 21.4159C157.359 21.2059 157.398 20.9855 157.394 20.7615C157.394 20.429 157.272 20.1175 157.023 19.8305C156.775 19.5435 156.32 19.3299 155.655 19.2004L154.003 18.8994C153.334 18.7839 152.778 18.6264 152.281 18.4374C151.784 18.2484 151.367 18.0035 151.028 17.7025C150.688 17.4015 150.433 17.0305 150.258 16.593C150.083 16.1555 149.992 15.634 149.992 15.032C149.981 14.4789 150.107 13.9295 150.356 13.436C150.597 12.9775 150.944 12.582 151.367 12.2845C151.801 11.9765 152.319 11.742 152.921 11.5845C153.523 11.427 154.188 11.3464 154.909 11.3464C155.833 11.3464 156.603 11.455 157.219 11.665C157.835 11.875 158.332 12.1584 158.71 12.5084C159.088 12.8584 159.368 13.261 159.554 13.723C159.736 14.1885 159.858 14.6609 159.921 15.1579L157.419 15.4765C157.289 14.78 157.037 14.276 156.666 13.968C156.295 13.66 155.728 13.506 154.969 13.506C154.517 13.506 154.15 13.5444 153.859 13.6214C153.569 13.6984 153.334 13.8 153.159 13.9225C152.995 14.0275 152.865 14.178 152.785 14.3565C152.715 14.5245 152.676 14.6924 152.676 14.8709C152.676 15.3434 152.809 15.7005 153.075 15.935C153.341 16.1695 153.793 16.355 154.433 16.4845L156.173 16.8204C157.545 17.0934 158.553 17.5345 159.193 18.14C159.834 18.7455 160.152 19.6415 160.152 20.772C160.152 21.325 160.047 21.8394 159.841 22.3084C159.627 22.7809 159.312 23.1974 158.917 23.5334C158.465 23.9044 157.944 24.1845 157.384 24.349C156.771 24.545 156.047 24.6395 155.217 24.6395C153.488 24.6395 152.165 24.2719 151.248 23.5299C150.331 22.7879 149.838 21.6924 149.747 20.1874H152.445V20.1874ZM163.964 20.1874C164.023 20.9679 164.275 21.535 164.716 21.8885C165.157 22.242 165.819 22.424 166.676 22.424C167.093 22.424 167.439 22.3784 167.726 22.2909C168.013 22.2034 168.241 22.0844 168.419 21.9374C168.591 21.8009 168.72 21.6189 168.801 21.4159C168.881 21.2059 168.92 20.9855 168.916 20.7615C168.913 20.415 168.78 20.0825 168.545 19.8305C168.293 19.54 167.842 19.3299 167.177 19.2004L165.525 18.8994C164.856 18.7839 164.3 18.6264 163.803 18.4374C163.306 18.2484 162.889 18.0035 162.55 17.7025C162.21 17.4015 161.955 17.0305 161.776 16.593C161.598 16.1555 161.51 15.634 161.51 15.032C161.5 14.4789 161.626 13.9295 161.874 13.436C162.119 12.974 162.455 12.5889 162.886 12.2669C163.316 11.9449 163.838 11.7244 164.44 11.5669C165.042 11.4094 165.707 11.3289 166.428 11.3289C167.352 11.3289 168.122 11.4375 168.738 11.6475C169.354 11.8575 169.851 12.1409 170.229 12.4909C170.607 12.8409 170.89 13.2435 171.072 13.7055C171.254 14.1675 171.377 14.6434 171.44 15.1404L168.937 15.4589C168.808 14.7624 168.556 14.2584 168.185 13.9504C167.814 13.6424 167.247 13.4885 166.487 13.4885C166.036 13.4885 165.668 13.5269 165.378 13.6039C165.087 13.6809 164.853 13.7824 164.678 13.9049C164.513 14.0099 164.384 14.1605 164.303 14.339C164.23 14.507 164.195 14.6749 164.195 14.8534C164.195 15.3259 164.328 15.6829 164.594 15.9174C164.86 16.1519 165.311 16.3374 165.952 16.4669L167.709 16.8169C169.081 17.0899 170.089 17.5309 170.729 18.1364C171.37 18.7419 171.688 19.638 171.688 20.7685C171.695 21.297 171.587 21.8185 171.377 22.3015C171.167 22.774 170.848 23.194 170.453 23.5265C170.047 23.8765 169.536 24.1459 168.916 24.3454C168.297 24.5449 167.579 24.636 166.75 24.636C165.021 24.636 163.698 24.2685 162.781 23.5265C161.864 22.7845 161.37 21.6889 161.3 20.1839H163.964V20.1874Z" fill="#252A2F"/>
<defs>
<linearGradient id="paint0_linear_1_269" x1="0.167279" y1="-30.6045" x2="58.4948" y2="66.601" gradientUnits="userSpaceOnUse">
<stop stop-color="#2683AF"/>
<stop offset="1" stop-color="#77C9B3"/>
</linearGradient>
</defs>
</svg>
