<svg width="142" height="33" viewBox="0 0 142 33" fill="none" xmlns="http://www.w3.org/2000/svg">
<path d="M19.1983 0.5L37.6991 32.5H0.699951L19.2007 0.5H19.1983ZM80.4985 17.5003C80.4985 12.3495 76.6988 8.75126 71.2493 8.75126C65.7998 8.75126 62.0001 12.3519 62.0001 17.5003C62.0001 22.6487 66.1008 26.2493 71.7494 26.2493C74.8499 26.2493 77.6493 25.0997 79.4484 22.9996L76.0493 21.0487C74.9992 22.0988 73.449 22.7483 71.7494 22.7483C69.2487 22.7483 67.0988 21.3972 66.3497 19.3492L66.2004 18.9984H80.3515C80.4511 18.4982 80.5008 17.9981 80.5008 17.4979L80.4985 17.5003ZM66.1482 15.9999L66.2478 15.6988C66.8973 13.5489 68.7983 12.2499 71.1971 12.2499C73.596 12.2499 75.497 13.5489 76.1465 15.6988L76.246 15.9999H66.1459H66.1482ZM134.349 17.5003C134.349 12.3495 130.549 8.75126 125.099 8.75126C119.65 8.75126 115.85 12.3519 115.85 17.5003C115.85 22.6487 119.951 26.2493 125.6 26.2493C128.7 26.2493 131.499 25.0997 133.298 22.9996L129.899 21.0487C128.849 22.0988 127.299 22.7483 125.6 22.7483C123.099 22.7483 120.949 21.3972 120.2 19.3492L120.05 18.9984H134.202C134.301 18.4982 134.351 17.9981 134.351 17.4979L134.349 17.5003ZM119.998 15.9999L120.098 15.6988C120.747 13.5489 122.648 12.2499 125.047 12.2499C127.446 12.2499 129.347 13.5489 129.997 15.6988L130.096 15.9999H119.996H119.998ZM110.349 14.6487L113.748 12.6979C112.148 10.1972 109.298 8.79867 105.847 8.79867C100.398 8.79867 96.598 12.3993 96.598 17.5477C96.598 22.6962 100.398 26.2967 105.847 26.2967C109.296 26.2967 112.148 24.8959 113.748 22.3975L110.349 20.4467C109.448 21.9471 107.848 22.7957 105.85 22.7957C102.699 22.7957 100.599 20.6956 100.599 17.5453C100.599 14.3951 102.699 12.295 105.85 12.295C107.8 12.295 109.45 13.1459 110.349 14.644V14.6487ZM141.848 3.29941H137.847V25.799H141.848V3.29941ZM64.9488 3.29941H60.3479L51.5468 18.5006L42.7479 3.29941H38.0973L51.5468 26.5006L64.9465 3.29941H64.9488ZM93.2487 13.3996C93.6991 13.3996 94.1494 13.4493 94.5998 13.5489V9.29881C91.2007 9.39837 88.0007 11.2994 88.0007 13.6485V9.29881H83.9995V25.799H88.0007V18.6499C88.0007 15.5495 90.1506 13.3996 93.2511 13.3996H93.2487Z" fill="black"/>
</svg>
