<svg version="1.2" xmlns="http://www.w3.org/2000/svg" viewBox="0 0 209 35" width="209" height="35">
	<title>Full_Logo_Blue_Black-svg</title>
	<style>
		.s0 { fill: #146ef5 } 
		.s1 { fill: #080808 } 
	</style>
	<g id="Folder 1">
		<path id="Layer" fill-rule="evenodd" class="s0" d="m55.9 0.1l-17.9 34.8h-16.7l7.4-14.4h-0.3c-6.1 8-15.3 13.3-28.4 14.4v-14.2c0 0 8.4-0.5 13.3-5.6h-13.3v-15h14.9v12.3h0.4l6.1-12.3h11.3v12.2h0.3l6.3-12.2z"/>
		<path id="Layer" class="s1" d="m157.8 3.5v27.6h-4.8v-27.6z"/>
		<path id="Layer" fill-rule="evenodd" class="s1" d="m123.8 29q-0.2-0.2-0.4-0.5v2.6h-4.8v-27.6h4.9v10.5q0-0.1 0.1-0.1 1.1-1.3 2.7-2 1.5-0.6 3.3-0.6 2.7 0 4.8 1.2 2.1 1.3 3.3 3.6 1.2 2.3 1.2 5.2 0 3-1.1 5.3-1.2 2.3-3.3 3.6-2.1 1.3-4.8 1.3-1.6 0-3.2-0.7-1.6-0.6-2.7-1.8zm9.5-4.7q0.6-1.3 0.6-3 0-1.7-0.6-3-0.7-1.3-1.9-2-1.1-0.7-2.6-0.7-1.6 0-2.8 0.7-1.3 0.8-2 2.1-0.7 1.3-0.7 2.9 0 1.7 0.7 3 0.8 1.3 2 2 1.3 0.8 2.8 0.8 1.5 0 2.6-0.7 1.2-0.8 1.9-2.1z"/>
		<path id="Layer" class="s1" d="m62.8 5.2h5.5l4.9 17.9 5.3-17.9h4.5l5.7 17.6 4.7-17.6h5.1l-7.5 25.9h-4.7l-5.8-17.2-5.3 17.2h-4.8z"/>
		<path id="Layer" fill-rule="evenodd" class="s1" d="m106.6 31.6q-2.9 0-5.2-1.3-2.3-1.3-3.6-3.6-1.3-2.3-1.3-5.3 0-2.8 1.3-5.2 1.4-2.3 3.7-3.6 2.3-1.3 5.1-1.3 3.1 0 5.5 1.4 2.4 1.4 3.6 4 1.2 2.6 0.9 5.9h-15.1q0 1.3 0.6 2.4 0.7 1.2 1.9 1.9 1.2 0.6 2.7 0.6 1.1 0 2.1-0.3 0.9-0.4 1.6-1.1 0.7-0.6 1-1.5h5q-0.4 2.1-1.8 3.6-1.4 1.6-3.5 2.5-2 0.9-4.5 0.9zm-4.4-13.8q-0.5 0.7-0.6 1.5h10q-0.1-1-0.7-1.9-0.6-1.1-1.7-1.6-1.1-0.6-2.5-0.6-1.4 0-2.6 0.7-1.2 0.6-1.9 1.9z"/>
		<path id="Layer" class="s1" d="m142.5 11.7q0-2.4 1.1-4.2 1-1.8 3-2.9 1.9-1 4.5-1v4.2q-1.2 0.1-2.1 0.6-0.8 0.4-1.3 1.3-0.4 0.9-0.4 2h3.7v4.1h-3.7v15.3h-4.8v-15.3h-3.1v-4.1z"/>
		<path id="Layer" fill-rule="evenodd" class="s1" d="m170.1 31.5q-3 0-5.3-1.3-2.3-1.3-3.6-3.6-1.3-2.3-1.3-5.2 0-2.9 1.3-5.2 1.3-2.3 3.6-3.6 2.3-1.3 5.3-1.3 2.9 0 5.3 1.3 2.3 1.3 3.6 3.6 1.3 2.3 1.3 5.2 0 2.9-1.3 5.2-1.3 2.3-3.6 3.6-2.4 1.3-5.3 1.3zm0-4.4q1.5 0 2.7-0.7 1.2-0.7 1.9-2 0.6-1.3 0.6-3 0-1.7-0.6-3-0.7-1.3-1.9-2-1.2-0.7-2.7-0.7-1.6 0-2.8 0.7-1.1 0.7-1.8 2-0.6 1.3-0.6 3 0 1.7 0.6 3 0.7 1.3 1.9 2 1.1 0.7 2.7 0.7z"/>
		<path id="Layer" class="s1" d="m185.5 11.7h-5.3l5.8 19.4h4.6l3.9-12.4 4.1 12.4h4.6l5.8-19.4h-4.8l-3.3 12.1-3.7-12.1h-4.7l-3.6 12.3z"/>
	</g>
</svg>