<svg width="98" height="50" viewBox="0 0 98 50" fill="none" xmlns="http://www.w3.org/2000/svg">
<path d="M44.093 40.1711H39.0489V40.697C40.6265 40.697 40.8895 41.0229 40.8895 43.0117V46.5855C40.8895 48.5853 40.6265 48.952 39.0489 48.952C37.8416 48.7964 37.0009 48.1113 35.8936 46.904L34.5788 45.4856C36.312 45.1597 37.2602 44.0671 37.2602 42.8598C37.2602 41.334 35.9454 40.1267 33.4752 40.1267H28.5349V40.6526C30.1126 40.6526 30.3755 40.9785 30.3755 42.9672V46.541C30.3755 48.5409 30.1126 48.9075 28.5349 48.9075V49.4334H34.1049V48.9075C32.5272 48.9075 32.2642 48.5409 32.2642 46.541V45.5411H32.7382L35.838 49.4297H44.0374C48.0852 49.4297 49.8185 47.2743 49.8185 44.7523C49.8703 42.2821 48.1371 40.1786 44.0893 40.1786L44.093 40.1711ZM32.3198 44.7449V41.0229H33.4789C34.7418 41.0229 35.3195 41.9155 35.3195 42.9154C35.3195 43.9153 34.7418 44.756 33.4789 44.756L32.3198 44.7449V44.7449ZM44.1967 48.6335H43.9856C42.9857 48.6335 42.8264 48.3705 42.8264 47.1077V41.0155H44.193C47.1372 41.0155 47.6594 43.1709 47.6594 44.8004C47.6594 46.5336 47.0817 48.6372 44.193 48.6372L44.1967 48.6335ZM12.8731 45.8078L14.8174 40.0786C15.3951 38.3972 15.1433 37.9232 13.3471 37.9232V37.3454H18.6541V37.9232C16.869 37.9232 16.4469 38.3454 15.7618 40.3933L12.5545 50H12.1324L9.23999 41.2229L6.34759 50H5.98096L2.88123 40.3822C2.1961 38.3342 1.78867 37.912 0.148056 37.912V37.3343H6.3513V37.912C4.66994 37.912 4.2478 38.2787 4.82553 40.0674L6.71794 45.7966L9.55853 37.3343H10.0844L12.8731 45.8078V45.8078ZM22.4354 49.9075C19.3356 49.9075 16.8098 47.6484 16.8098 44.8634C16.8098 42.0784 19.3208 39.8193 22.4354 39.8193C25.5499 39.8193 28.0608 42.0784 28.0608 44.8634C28.0608 47.6484 25.5499 49.9075 22.4354 49.9075ZM22.4354 40.66C19.8615 40.66 18.9689 42.9746 18.9689 44.8115C18.9689 46.6484 19.8615 48.9631 22.4354 48.9631C25.0092 48.9631 25.9573 46.6484 25.9573 44.8115C25.9573 42.9746 25.0648 40.66 22.4354 40.66ZM56.8068 48.9631V49.5408H50.3406V48.9631C52.2331 48.9631 52.5479 48.489 52.5479 45.6522V41.1303C52.5479 38.2898 52.222 37.8713 50.3406 37.8713V37.2936H56.1735C59.0659 37.2936 60.6954 38.7638 60.6954 40.76C60.6954 42.7561 59.0659 44.2264 56.1735 44.2264H54.5959V45.6967C54.5959 48.4816 54.9218 48.9557 56.8031 48.9557L56.8068 48.9631ZM56.1772 38.3491H54.5996V43.2376H56.1772C57.7549 43.2376 58.4919 42.1451 58.4919 40.8192C58.4919 39.4934 57.7549 38.3491 56.1772 38.3491ZM79.9866 46.9151L79.8311 47.441C79.5681 48.3853 79.2534 48.7038 77.2572 48.7038H76.8905C75.4202 48.7038 75.1573 48.3779 75.1573 46.3892V45.0745C77.3646 45.0745 77.5239 45.2856 77.5239 46.7558H78.0497V42.5524H77.5239C77.5239 44.0227 77.3683 44.2338 75.1573 44.2338V41.0859H76.6832C78.683 41.0859 78.9978 41.4118 79.257 42.3488L79.4126 42.8746H79.8866L79.6755 40.2489H71.4243V40.7748C73.002 40.7748 73.2649 41.1007 73.2649 43.0894V46.6632C73.2649 48.5039 73.0538 48.9779 71.7947 49.0297C70.6355 48.8742 69.7948 48.1891 68.6949 46.9818L67.3801 45.5633C69.1133 45.2374 70.0614 44.1449 70.0614 42.9376C70.0614 41.4118 68.7467 40.2045 66.2765 40.2045H61.3361V40.7304C62.9138 40.7304 63.1768 41.0563 63.1768 43.045V46.6188C63.1768 48.6187 62.9138 48.9853 61.3361 48.9853V49.5112H66.9061V48.9853C65.3284 48.9853 65.0655 48.6187 65.0655 46.6188V45.6189H65.5395L68.6393 49.5075H80.2014L80.3569 46.8818H79.9903V46.9336L79.9866 46.9151ZM65.1137 44.7597V41.0266H66.2728C67.5357 41.0266 68.1134 41.9192 68.1134 42.9191C68.1134 43.919 67.5357 44.7597 66.2728 44.7597H65.1137V44.7597Z" fill="#04759B"/>
<path d="M85.7158 49.9074C84.6121 49.9074 83.6122 49.3297 83.2048 48.963C83.0493 49.1186 82.8382 49.5408 82.7308 49.9074H82.2049V46.0188H82.7827C82.9938 47.8594 84.3085 48.963 85.938 48.963C86.8305 48.963 87.5675 48.4371 87.5675 47.5965C87.5675 46.8595 86.9379 46.2817 85.7824 45.7559L84.2047 45.0189C83.1011 44.493 82.2604 43.5486 82.2604 42.3376C82.2604 40.971 83.5233 39.8267 85.2565 39.8267C86.2009 39.8267 86.9897 40.1452 87.4638 40.5636C87.6193 40.4599 87.7267 40.1415 87.8304 39.8267H88.3564V43.1375H87.7786C87.5675 41.8228 86.8342 40.7192 85.3602 40.7192C84.5714 40.7192 83.8344 41.1932 83.8344 41.8784C83.8344 42.6153 84.4121 42.982 85.7787 43.6116L87.3045 44.3485C88.6711 44.9781 89.197 46.0299 89.197 46.8595C89.1452 48.6445 87.6193 49.9074 85.7306 49.9074H85.7195H85.7158Z" fill="#04759B"/>
<path d="M94.3892 49.9074C93.2855 49.9074 92.2857 49.3297 91.8783 48.963C91.7228 49.1186 91.5117 49.5408 91.4043 49.9074H90.8783V46.0188H91.4561C91.6672 47.8594 92.9819 48.963 94.6114 48.963C95.5039 48.963 96.2409 48.4371 96.2409 47.5965C96.2409 46.8595 95.6114 46.2817 94.4559 45.7559L92.8782 45.0189C91.7746 44.493 90.9339 43.5486 90.9339 42.3376C90.9339 40.971 92.1967 39.8267 93.9299 39.8267C94.8743 39.8267 95.6632 40.1452 96.1373 40.5636C96.2928 40.4599 96.4002 40.1415 96.5039 39.8267H97.0298V43.1375H96.452C96.2409 41.8228 95.5076 40.7192 94.0336 40.7192C93.2448 40.7192 92.5079 41.1932 92.5079 41.8784C92.5079 42.6153 93.0856 42.982 94.4522 43.6116L95.9779 44.3485C97.3445 44.9781 97.8704 46.0299 97.8704 46.8595C97.8186 48.6445 96.2927 49.9074 94.404 49.9074H94.3929H94.3892Z" fill="#04759B"/>
<path d="M34.5936 16.7839C34.5936 22.4983 37.8786 27.4239 42.682 29.7348L35.8714 10.9473C35.0826 12.7694 34.5936 14.7174 34.5936 16.7839V16.7839ZM58.7364 16.0507C58.7364 14.2878 58.066 13.0102 57.5216 12.0991C56.7921 10.8844 56.1254 9.91038 56.1254 8.69566C56.1254 7.35872 57.1586 6.14029 58.5585 6.14029H58.7401C56.1847 3.77379 52.7812 2.3739 49.0222 2.3739C43.9744 2.43686 39.597 4.98852 36.9824 8.88083H37.8935C39.4119 8.88083 41.7227 8.69936 41.7227 8.69936C42.5116 8.6364 42.5745 9.79187 41.8302 9.91408C41.8302 9.91408 41.0414 10.0215 40.1896 10.0215L45.4299 25.587L48.5926 16.1618L46.3446 10.0215L44.8263 9.91408C44.0374 9.85112 44.1559 8.69936 44.8892 8.69936C44.8892 8.69936 47.2594 8.88083 48.6593 8.88083C50.1777 8.88083 52.4886 8.69936 52.4886 8.69936C53.2775 8.6364 53.3404 9.79187 52.596 9.91408C52.596 9.91408 51.8072 10.0215 50.9555 10.0215L56.1958 25.5277L57.6549 20.7244C58.2623 18.7171 58.7474 17.3209 58.7474 16.0433L58.7364 16.0544V16.0507ZM49.2518 18.0616L44.9337 30.5866C46.2114 30.9496 47.6076 31.194 49.0074 31.194C50.711 31.194 52.2924 30.8903 53.8108 30.4052C53.7478 30.3422 53.7478 30.2978 53.7034 30.2237L49.2518 18.0616V18.0616ZM61.6583 9.91408L61.7657 11.3732C61.7657 12.8324 61.5213 14.473 60.6732 16.5432L56.3069 29.2497C60.5621 26.7573 63.4804 22.1354 63.4804 16.7839C63.4174 14.2915 62.7508 11.9806 61.6583 9.91408ZM49.0112 0C39.7674 0 32.2309 7.54018 32.2309 16.7802C32.2309 26.0203 39.7711 33.5642 49.0112 33.5642C58.2512 33.5642 65.7913 26.024 65.7913 16.7839C65.7913 7.54389 58.2512 0 49.0112 0V0ZM49.0112 32.8346C40.1933 32.8346 33.0197 25.6611 33.0197 16.7839C33.0197 7.90682 40.1933 0.792534 49.0112 0.792534C57.829 0.792534 65.0025 7.96608 65.0025 16.7839C65.0025 25.6018 57.829 32.8346 49.0112 32.8346V32.8346Z" fill="#04759B"/>
</svg>
