<?xml version="1.0" encoding="utf-8"?>
<!-- Generator: Adobe Illustrator 26.5.0, SVG Export Plug-In . SVG Version: 6.00 Build 0)  -->
<svg version="1.1" id="Layer_1" xmlns="http://www.w3.org/2000/svg" xmlns:xlink="http://www.w3.org/1999/xlink" x="0px" y="0px"
	 viewBox="0 0 100 100" style="enable-background:new 0 0 100 100;" xml:space="preserve">
<style type="text/css">
	.st0{fill:#C7EDE6;}
	.st1{fill:#FDFCEF;}
	.st2{fill:#472B29;}
	.st3{fill:#88AE45;}
	.st4{fill:#EE3E54;}
	.st5{fill:#FFFFFF;}
	.st6{fill:none;}
</style>
<path class="st0" d="M87.2,56.7c1.1-2.2,1.8-4.6,1.8-7.2c0-6.6-4.2-12.3-10-14.5c0,0,0,0,0,0c0-11.6-9.4-21-21-21
	c-9.8,0-18,6.7-20.3,15.8c-1.5-0.5-3-0.8-4.7-0.8c-7.7,0-14,5.8-14.9,13.3C12.9,43.4,9,48,9,53.5C9,59.9,14.1,65,20.5,65
	c0.2,0,0.4,0,0.5,0c0,0.2,0,0.3,0,0.5C21,76.8,30.2,86,41.5,86c6.4,0,12.2-3,15.9-7.6c2.2,2.2,5.2,3.6,8.6,3.6
	c4.7,0,8.7-2.7,10.7-6.5c1.1,0.3,2.2,0.5,3.3,0.5c6.1,0,11-4.9,11-11C91,61.7,89.5,58.7,87.2,56.7z"/>
<path class="st1" d="M33.9,37.5c0,0,3.6,0,6.1,0s4.5-2,4.5-4.5c0-2.3-1.8-4.2-4.1-4.5c0-0.2,0.1-0.4,0.1-0.5c0-2.5-2-4.5-4.5-4.5
	c-1.4,0-2.7,0.7-3.5,1.7c-0.1-2.6-2.3-4.7-5-4.7c-2.8,0-5,2.2-5,5c0,0.4,0.1,0.9,0.2,1.3C22,26,21.1,25.5,20,25.5
	c-1.8,0-3.2,1.3-3.5,3.1c-0.2,0-0.4-0.1-0.5-0.1c-2.5,0-4.5,2-4.5,4.5s2,4.5,4.5,4.5s9.5,0,9.5,0h5.4V38h3V37.5z"/>
<path class="st2" d="M27.5,20c-3,0-5.5,2.5-5.5,5.5c0,0,0,0,0,0c-0.6-0.4-1.3-0.5-2-0.5c-1.8,0-3.4,1.3-3.9,3c0,0-0.1,0-0.1,0
	c-2.8,0-5,2.2-5,5s2.2,5,5,5h14.9c0.3,0,0.5-0.2,0.5-0.5S31.2,37,30.9,37H16c-2.2,0-4-1.8-4-4s1.8-4,4-4c0.1,0,0.2,0,0.3,0l0.1,0
	c0,0,0,0,0.1,0c0.2,0,0.5-0.2,0.5-0.4c0.2-1.5,1.5-2.6,3-2.6c0.9,0,1.7,0.4,2.3,1.1c0.1,0.1,0.2,0.2,0.4,0.2c0.1,0,0.2,0,0.2-0.1
	c0.2-0.1,0.3-0.3,0.3-0.6c-0.1-0.4-0.2-0.8-0.2-1.2c0-2.5,2-4.5,4.5-4.5c2.4,0,4.3,1.9,4.5,4.3c0,0.2,0.2,0.4,0.3,0.5
	c0,0,0.1,0,0.2,0c0.2,0,0.3-0.1,0.4-0.2c0.8-1,1.9-1.5,3.1-1.5c2.2,0,4,1.8,4,4c0,0.1,0,0.2,0,0.3l0,0.1c0,0.1,0,0.3,0.1,0.4
	s0.2,0.2,0.3,0.2c2.1,0.2,3.6,1.9,3.6,4c0,2.2-1.8,4-4,4h-6.1c-0.3,0-0.5,0.2-0.5,0.5s0.2,0.5,0.5,0.5H40c2.8,0,5-2.2,5-5
	c0-2.4-1.7-4.4-4-4.9c0,0,0-0.1,0-0.1c0-2.8-2.2-5-5-5c-1.2,0-2.3,0.4-3.2,1.2C32.2,21.8,30.1,20,27.5,20L27.5,20z"/>
<path class="st2" d="M26,27c-1.4,0-2.6,1-2.9,2.3c-0.4-0.2-0.8-0.3-1.2-0.3c-1.2,0-2.2,0.9-2.4,2.1c-0.2,0-0.4-0.1-0.6-0.1
	c-1.5,0-2.8,1.2-2.9,2.7c0,0.1,0.1,0.3,0.2,0.3c0,0,0,0,0,0c0.1,0,0.2-0.1,0.2-0.2c0.1-1.3,1.2-2.3,2.4-2.3c0.2,0,0.5,0,0.7,0.1
	c0,0,0,0,0.1,0c0.1,0,0.1,0,0.2-0.1c0.1,0,0.1-0.1,0.1-0.2c0-1,0.8-1.9,1.9-1.9c0.4,0,0.9,0.2,1.2,0.5c0,0,0.1,0.1,0.2,0.1
	c0,0,0.1,0,0.1,0c0.1,0,0.1-0.1,0.2-0.2c0.1-1.3,1.2-2.3,2.5-2.3c0.2,0,0.4,0,0.7,0.1c0,0,0,0,0.1,0c0.1,0,0.2-0.1,0.2-0.2
	c0-0.1,0-0.3-0.2-0.3C26.5,27,26.3,27,26,27L26,27z"/>
<path class="st2" d="M39.9,28.5c-1.3,0-2.5,0.9-2.9,2.2c0,0.1,0,0.3,0.2,0.3c0,0,0,0,0.1,0c0.1,0,0.2-0.1,0.2-0.2
	c0.3-1.1,1.3-1.8,2.4-1.8c0.1,0,0.2,0,0.3,0c0,0,0,0,0,0c0.1,0,0.2-0.1,0.2-0.2c0-0.1-0.1-0.3-0.2-0.3C40.2,28.5,40,28.5,39.9,28.5
	L39.9,28.5z"/>
<path class="st3" d="M43,34H26.2c-1.8,0-3.2,1.5-3.2,3.2v31.5c0,1.8,1.5,3.2,3.2,3.2H43V34z"/>
<path class="st4" d="M75.8,34H59v38h16.8c1.8,0,3.2-1.5,3.2-3.2V37.2C79,35.5,77.5,34,75.8,34z"/>
<path class="st5" d="M35.4,80h-9.9c-0.3,0-0.5-0.2-0.5-0.5s0.2-0.5,0.5-0.5h9.9c0.3,0,0.5,0.2,0.5,0.5S35.7,80,35.4,80z"/>
<path class="st5" d="M38.5,80h-1c-0.3,0-0.5-0.2-0.5-0.5s0.2-0.5,0.5-0.5h1c0.3,0,0.5,0.2,0.5,0.5S38.8,80,38.5,80z"/>
<path class="st5" d="M43.5,82h-9c-0.3,0-0.5-0.2-0.5-0.5s0.2-0.5,0.5-0.5h9c0.3,0,0.5,0.2,0.5,0.5S43.8,82,43.5,82z"/>
<path class="st5" d="M32.5,82h-1c-0.3,0-0.5-0.2-0.5-0.5s0.2-0.5,0.5-0.5h1c0.3,0,0.5,0.2,0.5,0.5S32.8,82,32.5,82z"/>
<path class="st5" d="M29.5,82h-2c-0.3,0-0.5-0.2-0.5-0.5s0.2-0.5,0.5-0.5h2c0.3,0,0.5,0.2,0.5,0.5S29.8,82,29.5,82z"/>
<path class="st5" d="M35.5,84h-2c-0.3,0-0.5-0.2-0.5-0.5s0.2-0.5,0.5-0.5h2c0.3,0,0.5,0.2,0.5,0.5S35.8,84,35.5,84z"/>
<path class="st5" d="M38.5,75c-0.2,0-0.8,0-1,0c-0.3,0-0.5,0.2-0.5,0.5s0.2,0.5,0.5,0.5c0.2,0,0.8,0,1,0c0.3,0,0.5-0.2,0.5-0.5
	S38.8,75,38.5,75z"/>
<path class="st5" d="M38.5,77c-0.2,0-4.8,0-5,0c-0.3,0-0.5,0.2-0.5,0.5s0.2,0.5,0.5,0.5c0.2,0,4.8,0,5,0c0.3,0,0.5-0.2,0.5-0.5
	S38.8,77,38.5,77z"/>
<path class="st5" d="M43.5,79c-0.2,0-2.8,0-3,0c-0.3,0-0.5,0.2-0.5,0.5s0.2,0.5,0.5,0.5c0.2,0,2.8,0,3,0c0.3,0,0.5-0.2,0.5-0.5
	S43.8,79,43.5,79z"/>
<path class="st5" d="M71.5,25h-10c-0.3,0-0.5-0.2-0.5-0.5s0.2-0.5,0.5-0.5h10c0.3,0,0.5,0.2,0.5,0.5S71.8,25,71.5,25z"/>
<path class="st5" d="M75.5,25h-2c-0.3,0-0.5-0.2-0.5-0.5s0.2-0.5,0.5-0.5h2c0.3,0,0.5,0.2,0.5,0.5S75.8,25,75.5,25z"/>
<path class="st5" d="M80.5,27h-10c-0.3,0-0.5-0.2-0.5-0.5s0.2-0.5,0.5-0.5h10c0.3,0,0.5,0.2,0.5,0.5S80.8,27,80.5,27z"/>
<path class="st5" d="M68.5,27h-1c-0.3,0-0.5-0.2-0.5-0.5s0.2-0.5,0.5-0.5h1c0.3,0,0.5,0.2,0.5,0.5S68.8,27,68.5,27z"/>
<path class="st5" d="M65.4,27h-1.9c-0.3,0-0.5-0.2-0.5-0.5s0.2-0.5,0.5-0.5h1.9c0.3,0,0.5,0.2,0.5,0.5S65.7,27,65.4,27z"/>
<path class="st5" d="M74.5,23h-5c-0.3,0-0.5-0.2-0.5-0.5s0.2-0.5,0.5-0.5h5c0.3,0,0.5,0.2,0.5,0.5S74.8,23,74.5,23z"/>
<path class="st5" d="M71.5,29h-2c-0.3,0-0.5-0.2-0.5-0.5s0.2-0.5,0.5-0.5h2c0.3,0,0.5,0.2,0.5,0.5S71.8,29,71.5,29z"/>
<path class="st2" d="M75.5,37.8H70c-0.1,0-0.2-0.1-0.2-0.2s0.1-0.2,0.2-0.2h5.5c0.1,0,0.2,0.1,0.2,0.2S75.6,37.8,75.5,37.8z"/>
<path class="st2" d="M75.5,68.8H70c-0.1,0-0.2-0.1-0.2-0.2s0.1-0.2,0.2-0.2h5.5c0.1,0,0.2,0.1,0.2,0.2S75.6,68.8,75.5,68.8z"/>
<rect x="42" y="34" class="st5" width="18" height="37"/>
<path class="st2" d="M52,68.8H26.5c-0.1,0-0.2-0.1-0.2-0.2s0.1-0.2,0.2-0.2H52c0.1,0,0.2,0.1,0.2,0.2S52.1,68.8,52,68.8z"/>
<g>
	<path class="st2" d="M46.5,37.8H35c-0.1,0-0.2-0.1-0.2-0.2s0.1-0.2,0.2-0.2h11.5c0.1,0,0.2,0.1,0.2,0.2S46.6,37.8,46.5,37.8z"/>
</g>
<g>
	<path class="st2" d="M33,37.8h-6.5c-0.1,0-0.2-0.1-0.2-0.2s0.1-0.2,0.2-0.2H33c0.1,0,0.2,0.1,0.2,0.2S33.1,37.8,33,37.8z"/>
</g>
<g>
	<path class="st2" d="M26.5,68.8c-0.1,0-0.2-0.1-0.2-0.2V59c0-0.1,0.1-0.2,0.2-0.2s0.2,0.1,0.2,0.2v9.5
		C26.8,68.6,26.6,68.8,26.5,68.8z"/>
</g>
<g>
	<path class="st2" d="M75.5,68.8c-0.1,0-0.2-0.1-0.2-0.2V60c0-0.1,0.1-0.2,0.2-0.2s0.2,0.1,0.2,0.2v8.5
		C75.8,68.6,75.6,68.8,75.5,68.8z"/>
</g>
<g>
	<path class="st2" d="M75.5,44.8c-0.1,0-0.2-0.1-0.2-0.2v-7c0-0.1,0.1-0.2,0.2-0.2s0.2,0.1,0.2,0.2v7C75.8,44.6,75.6,44.8,75.5,44.8
		z"/>
</g>
<g>
	<path class="st2" d="M75.5,57.8c-0.1,0-0.2-0.1-0.2-0.2v-11c0-0.1,0.1-0.2,0.2-0.2s0.2,0.1,0.2,0.2v11
		C75.8,57.6,75.6,57.8,75.5,57.8z"/>
</g>
<g>
	<path class="st2" d="M75.8,35.4c1,0,1.8,0.8,1.8,1.8v31.5c0,1-0.8,1.8-1.8,1.8H26.2c-1,0-1.9-0.8-1.9-1.8V37.2c0-1,0.8-1.8,1.9-1.8
		H75.8 M75.8,34H26.2c-1.8,0-3.2,1.5-3.2,3.2v31.5c0,1.8,1.5,3.2,3.2,3.2h49.5c1.8,0,3.2-1.5,3.2-3.2V37.2C79,35.5,77.5,34,75.8,34
		L75.8,34z"/>
</g>
<g>
	<line class="st6" x1="26.5" y1="50" x2="26.5" y2="56.5"/>
	<path class="st2" d="M26.5,56.8L26.5,56.8c-0.1,0-0.2-0.1-0.2-0.2l0-6.5c0-0.1,0.1-0.2,0.2-0.2l0,0c0.1,0,0.2,0.1,0.2,0.2l0,6.5
		C26.8,56.6,26.6,56.8,26.5,56.8z"/>
</g>
<g>
	<line class="st6" x1="26.5" y1="37.5" x2="26.5" y2="43.5"/>
	<path class="st2" d="M26.5,43.8L26.5,43.8c-0.1,0-0.2-0.1-0.2-0.2l0-6c0-0.1,0.1-0.2,0.2-0.2l0,0c0.1,0,0.2,0.1,0.2,0.2l0,6
		C26.7,43.6,26.6,43.8,26.5,43.8z"/>
</g>
<g>
	<path class="st2" d="M68,37.8H49.5c-0.1,0-0.2-0.1-0.2-0.2s0.1-0.2,0.2-0.2H68c0.1,0,0.2,0.1,0.2,0.2S68.1,37.8,68,37.8z"/>
</g>
<g>
	<path class="st2" d="M68,68.8H55c-0.1,0-0.2-0.1-0.2-0.2s0.1-0.2,0.2-0.2h13c0.1,0,0.2,0.1,0.2,0.2S68.1,68.8,68,68.8z"/>
</g>
<g>
	<path class="st2" d="M42.5,48c-0.3,0-0.5-0.2-0.5-0.5v-13c0-0.3,0.2-0.5,0.5-0.5s0.5,0.2,0.5,0.5v13C43,47.8,42.8,48,42.5,48z"/>
</g>
<g>
	<path class="st2" d="M59.5,44c-0.3,0-0.5-0.2-0.5-0.5v-9c0-0.3,0.2-0.5,0.5-0.5s0.5,0.2,0.5,0.5v9C60,43.8,59.8,44,59.5,44z"/>
</g>
<g>
	<path class="st2" d="M59.5,56c-0.3,0-0.5-0.2-0.5-0.5v-9c0-0.3,0.2-0.5,0.5-0.5s0.5,0.2,0.5,0.5v9C60,55.8,59.8,56,59.5,56z"/>
</g>
<g>
	<path class="st2" d="M59.5,72c-0.3,0-0.5-0.2-0.5-0.5v-13c0-0.3,0.2-0.5,0.5-0.5s0.5,0.2,0.5,0.5v13C60,71.8,59.8,72,59.5,72z"/>
</g>
<g>
	<path class="st2" d="M42.5,72c-0.3,0-0.5-0.2-0.5-0.5v-21c0-0.3,0.2-0.5,0.5-0.5s0.5,0.2,0.5,0.5v21C43,71.8,42.8,72,42.5,72z"/>
</g>
<g>
	<path class="st1" d="M86.5,64.5c0,0,1.6,0,3.5,0s3.5-1.6,3.5-3.5c0-1.8-1.3-3.2-3.1-3.5c0-0.2,0.1-0.4,0.1-0.5
		c0-1.9-1.6-3.5-3.5-3.5c-1,0-1.9,0.5-2.6,1.2c-0.4-1.8-2-3.2-3.9-3.2c-2.2,0-4,1.8-4,4c0,0.2,0,0.4,0.1,0.6c-0.4-0.3-1-0.6-1.6-0.6
		c-1.2,0-2.2,0.9-2.5,2.1c-0.2,0-0.4-0.1-0.5-0.1c-1.9,0-3.5,1.6-3.5,3.5s1.6,3.5,3.5,3.5s7.5,0,7.5,0V65h7V64.5z"/>
	<path class="st2" d="M88.2,60c-0.1,0-0.2-0.1-0.2-0.2c0-1.2,1-2.2,2.2-2.2c0,0,0.7,0,1.2,0.1c0.1,0,0.2,0.2,0.2,0.3
		c0,0.1-0.2,0.2-0.3,0.2C90.9,58,90.2,58,90.2,58c-0.9,0-1.7,0.8-1.7,1.7C88.5,59.9,88.4,60,88.2,60z"/>
	<circle class="st2" cx="81.5" cy="64.5" r="0.5"/>
	<path class="st2" d="M90,65h-3.5c-0.3,0-0.5-0.2-0.5-0.5s0.2-0.5,0.5-0.5H90c1.7,0,3-1.3,3-3c0-1.5-1.1-2.8-2.6-3
		c-0.1,0-0.3-0.1-0.3-0.2s-0.1-0.2-0.1-0.4c0-0.2,0-0.3,0-0.5c0-1.7-1.3-3-3-3c-0.8,0-1.6,0.4-2.2,1c-0.1,0.1-0.3,0.2-0.5,0.1
		c-0.2,0-0.3-0.2-0.4-0.4c-0.3-1.6-1.8-2.8-3.4-2.8c-1.9,0-3.5,1.6-3.5,3.5c0,0.1,0,0.3,0,0.4c0,0.2-0.1,0.4-0.2,0.5
		c-0.2,0.1-0.4,0.1-0.6,0C75.9,56.2,75.4,56,75,56c-1,0-1.8,0.7-2,1.6c0,0.3-0.3,0.4-0.6,0.4c-0.2,0-0.3,0-0.5,0c-1.7,0-3,1.3-3,3
		s1.3,3,3,3h7.5c0.3,0,0.5,0.2,0.5,0.5S79.8,65,79.5,65H72c-2.2,0-4-1.8-4-4s1.8-4,4-4c0.1,0,0.1,0,0.2,0c0.4-1.2,1.5-2,2.8-2
		c0.3,0,0.7,0.1,1,0.2c0.2-2.3,2.1-4.2,4.5-4.2c1.8,0,3.5,1.1,4.2,2.8c0.7-0.5,1.5-0.8,2.3-0.8c2.2,0,4,1.8,4,4c0,0,0,0.1,0,0.1
		c1.7,0.4,3,2,3,3.9C94,63.2,92.2,65,90,65z"/>
	<path class="st2" d="M84.5,64c-0.2,0-0.8,0-1,0c-0.3,0-0.5,0.2-0.5,0.5s0.2,0.5,0.5,0.5c0.2,0,0.8,0,1,0c0.3,0,0.5-0.2,0.5-0.5
		S84.8,64,84.5,64z"/>
</g>
</svg>
