<svg xmlns="http://www.w3.org/2000/svg"  viewBox="0 0 100 100" width="100px" height="100px"><path fill="#c7ede6" d="M87.215,56.71C88.35,54.555,89,52.105,89,49.5c0-6.621-4.159-12.257-10.001-14.478 C78.999,35.015,79,35.008,79,35c0-11.598-9.402-21-21-21c-9.784,0-17.981,6.701-20.313,15.757C36.211,29.272,34.638,29,33,29 c-7.692,0-14.023,5.793-14.89,13.252C12.906,43.353,9,47.969,9,53.5C9,59.851,14.149,65,20.5,65c0.177,0,0.352-0.012,0.526-0.022 C21.022,65.153,21,65.324,21,65.5C21,76.822,30.178,86,41.5,86c6.437,0,12.175-2.972,15.934-7.614C59.612,80.611,62.64,82,66,82 c4.65,0,8.674-2.65,10.666-6.518C77.718,75.817,78.837,76,80,76c6.075,0,11-4.925,11-11C91,61.689,89.53,58.727,87.215,56.71z"/><path fill="#fdfcef" d="M33.875,37.5c0,0,3.64,0,6.125,0s4.5-2.015,4.5-4.5c0-2.333-1.782-4.229-4.055-4.455 C40.467,28.364,40.5,28.187,40.5,28c0-2.485-2.015-4.5-4.5-4.5c-1.438,0-2.703,0.686-3.527,1.736 C32.333,22.6,30.171,20.5,27.5,20.5c-2.761,0-5,2.239-5,5c0,0.446,0.077,0.87,0.187,1.282C22.045,26.005,21.086,25.5,20,25.5 c-1.781,0-3.234,1.335-3.455,3.055C16.364,28.533,16.187,28.5,16,28.5c-2.485,0-4.5,2.015-4.5,4.5s2.015,4.5,4.5,4.5s9.5,0,9.5,0 h5.375V38h3V37.5z"/><path fill="#472b29" d="M27.5,20c-3.033,0-5.5,2.467-5.5,5.5c0,0.016,0,0.031,0,0.047C21.398,25.192,20.71,25,20,25 c-1.831,0-3.411,1.261-3.858,3.005C16.095,28.002,16.048,28,16,28c-2.757,0-5,2.243-5,5s2.243,5,5,5h14.875 c0.276,0,0.5-0.224,0.5-0.5s-0.224-0.5-0.5-0.5H16c-2.206,0-4-1.794-4-4s1.794-4,4-4c0.117,0,0.23,0.017,0.343,0.032l0.141,0.019 c0.021,0.003,0.041,0.004,0.062,0.004c0.246,0,0.462-0.185,0.495-0.437C17.232,27.125,18.504,26,20,26 c0.885,0,1.723,0.401,2.301,1.1c0.098,0.118,0.241,0.182,0.386,0.182c0.078,0,0.156-0.018,0.228-0.056 c0.209-0.107,0.314-0.346,0.254-0.573C23.054,26.218,23,25.852,23,25.5c0-2.481,2.019-4.5,4.5-4.5 c2.381,0,4.347,1.872,4.474,4.263c0.011,0.208,0.15,0.387,0.349,0.45c0.05,0.016,0.101,0.024,0.152,0.024 c0.15,0,0.296-0.069,0.392-0.192C33.638,24.563,34.779,24,36,24c2.206,0,4,1.794,4,4c0,0.117-0.017,0.23-0.032,0.343l-0.019,0.141 c-0.016,0.134,0.022,0.268,0.106,0.373c0.084,0.105,0.207,0.172,0.34,0.185C42.451,29.247,44,30.949,44,33c0,2.206-1.794,4-4,4 h-6.125c-0.276,0-0.5,0.224-0.5,0.5s0.224,0.5,0.5,0.5H40c2.757,0,5-2.243,5-5c0-2.397-1.689-4.413-4.003-4.877 C40.999,28.082,41,28.041,41,28c0-2.757-2.243-5-5-5c-1.176,0-2.293,0.416-3.183,1.164C32.219,21.76,30.055,20,27.5,20L27.5,20z"/><path fill="#472b29" d="M26,27c-1.403,0-2.609,0.999-2.913,2.341C22.72,29.119,22.301,29,21.875,29 c-1.202,0-2.198,0.897-2.353,2.068C19.319,31.022,19.126,31,18.937,31c-1.529,0-2.811,1.2-2.918,2.732 C16.01,33.87,16.114,33.99,16.251,34c0.006,0,0.012,0,0.018,0c0.13,0,0.24-0.101,0.249-0.232c0.089-1.271,1.151-2.268,2.419-2.268 c0.229,0,0.47,0.042,0.738,0.127c0.022,0.007,0.045,0.01,0.067,0.01c0.055,0,0.11-0.02,0.156-0.054 C19.962,31.537,20,31.455,20,31.375c0-1.034,0.841-1.875,1.875-1.875c0.447,0,0.885,0.168,1.231,0.473 c0.047,0.041,0.106,0.063,0.165,0.063c0.032,0,0.063-0.006,0.093-0.019c0.088-0.035,0.148-0.117,0.155-0.212 C23.623,28.512,24.712,27.5,26,27.5c0.208,0,0.425,0.034,0.682,0.107c0.023,0.007,0.047,0.01,0.07,0.01 c0.109,0,0.207-0.073,0.239-0.182c0.038-0.133-0.039-0.271-0.172-0.309C26.517,27.04,26.256,27,26,27L26,27z"/><path fill="#472b29" d="M39.883,28.5c-1.326,0-2.508,0.897-2.874,2.182c-0.038,0.133,0.039,0.271,0.172,0.309 C37.205,30.997,37.228,31,37.25,31c0.109,0,0.209-0.072,0.24-0.182C37.795,29.748,38.779,29,39.883,29 c0.117,0,0.23,0.014,0.342,0.029c0.012,0.002,0.023,0.003,0.035,0.003c0.121,0,0.229-0.092,0.246-0.217 c0.019-0.137-0.077-0.263-0.214-0.281C40.158,28.516,40.022,28.5,39.883,28.5L39.883,28.5z"/><path fill="#fff" d="M35.405,80H25.5c-0.276,0-0.5-0.224-0.5-0.5s0.224-0.5,0.5-0.5h9.905c0.276,0,0.5,0.224,0.5,0.5 S35.682,80,35.405,80z"/><path fill="#fff" d="M38.5,80h-1c-0.276,0-0.5-0.224-0.5-0.5s0.224-0.5,0.5-0.5h1c0.276,0,0.5,0.224,0.5,0.5 S38.777,80,38.5,80z"/><path fill="#fff" d="M43.491,82H34.5c-0.276,0-0.5-0.224-0.5-0.5s0.224-0.5,0.5-0.5h8.991c0.276,0,0.5,0.224,0.5,0.5 S43.767,82,43.491,82z"/><path fill="#fff" d="M32.5,82h-1c-0.276,0-0.5-0.224-0.5-0.5s0.224-0.5,0.5-0.5h1c0.276,0,0.5,0.224,0.5,0.5 S32.777,82,32.5,82z"/><path fill="#fff" d="M29.5,82h-2c-0.276,0-0.5-0.224-0.5-0.5s0.224-0.5,0.5-0.5h2c0.276,0,0.5,0.224,0.5,0.5 S29.777,82,29.5,82z"/><path fill="#fff" d="M35.5,84h-2c-0.276,0-0.5-0.224-0.5-0.5s0.224-0.5,0.5-0.5h2c0.276,0,0.5,0.224,0.5,0.5 S35.776,84,35.5,84z"/><path fill="#fff" d="M38.5,75c-0.177,0-0.823,0-1,0c-0.276,0-0.5,0.224-0.5,0.5c0,0.276,0.224,0.5,0.5,0.5 c0.177,0,0.823,0,1,0c0.276,0,0.5-0.224,0.5-0.5C39,75.224,38.776,75,38.5,75z"/><path fill="#fff" d="M38.5,77c-0.177,0-4.823,0-5,0c-0.276,0-0.5,0.224-0.5,0.5c0,0.276,0.224,0.5,0.5,0.5 c0.177,0,4.823,0,5,0c0.276,0,0.5-0.224,0.5-0.5C39,77.224,38.776,77,38.5,77z"/><path fill="#fff" d="M43.5,79c-0.177,0-2.823,0-3,0c-0.276,0-0.5,0.224-0.5,0.5c0,0.276,0.224,0.5,0.5,0.5 c0.177,0,2.823,0,3,0c0.276,0,0.5-0.224,0.5-0.5C44,79.224,43.776,79,43.5,79z"/><path fill="#fff" d="M71.5,25h-10c-0.276,0-0.5-0.224-0.5-0.5s0.224-0.5,0.5-0.5h10c0.276,0,0.5,0.224,0.5,0.5 S71.776,25,71.5,25z"/><path fill="#fff" d="M75.5,25h-2c-0.276,0-0.5-0.224-0.5-0.5s0.224-0.5,0.5-0.5h2c0.276,0,0.5,0.224,0.5,0.5 S75.776,25,75.5,25z"/><path fill="#fff" d="M80.5,27h-10c-0.276,0-0.5-0.224-0.5-0.5s0.224-0.5,0.5-0.5h10c0.276,0,0.5,0.224,0.5,0.5 S80.777,27,80.5,27z"/><path fill="#fff" d="M68.5,27h-1c-0.276,0-0.5-0.224-0.5-0.5s0.224-0.5,0.5-0.5h1c0.276,0,0.5,0.224,0.5,0.5 S68.776,27,68.5,27z"/><path fill="#fff" d="M65.375,27H63.5c-0.276,0-0.5-0.224-0.5-0.5s0.224-0.5,0.5-0.5h1.875c0.276,0,0.5,0.224,0.5,0.5 S65.651,27,65.375,27z"/><path fill="#fff" d="M74.5,23h-5c-0.276,0-0.5-0.224-0.5-0.5s0.224-0.5,0.5-0.5h5c0.276,0,0.5,0.224,0.5,0.5 S74.777,23,74.5,23z"/><path fill="#fff" d="M71.5,29h-2c-0.276,0-0.5-0.224-0.5-0.5s0.224-0.5,0.5-0.5h2c0.276,0,0.5,0.224,0.5,0.5 S71.776,29,71.5,29z"/><path fill="#fff" d="M75.864,71.298H27.136c-1.732,0-3.136-1.404-3.136-3.136V35.838c0-1.732,1.404-3.136,3.136-3.136 h48.728c1.732,0,3.136,1.404,3.136,3.136v32.325C79,69.894,77.596,71.298,75.864,71.298z"/><path fill="#ee3e54" d="M79,35.417H24V34.75c0-1.289,1.045-2.333,2.333-2.333h50.333c1.289,0,2.333,1.045,2.333,2.333 V35.417z"/><rect width="55" height="3" x="24" y="38.5" fill="#ee3e54"/><rect width="55" height="3" x="24" y="44.5" fill="#ee3e54"/><rect width="55" height="3" x="24" y="50.5" fill="#ee3e54"/><rect width="55" height="3" x="24" y="56.5" fill="#ee3e54"/><rect width="55" height="3" x="24" y="62.5" fill="#ee3e54"/><path fill="#ee3e54" d="M76.688,71.375H25.563c-1.07,0-1.938-0.867-1.938-1.938v-1.063h55v1.063 C78.625,70.508,77.758,71.375,76.688,71.375z"/><path fill="#472b29" d="M79.063,35.75H70c-0.138,0-0.25-0.112-0.25-0.25s0.112-0.25,0.25-0.25h9.063 c0.138,0,0.25,0.112,0.25,0.25S79.2,35.75,79.063,35.75z"/><path fill="#472b29" d="M79,68.75h-9c-0.138,0-0.25-0.112-0.25-0.25s0.112-0.25,0.25-0.25h9c0.138,0,0.25,0.112,0.25,0.25 S79.138,68.75,79,68.75z"/><path fill="#472b29" d="M79.5,65.75H44c-0.138,0-0.25-0.112-0.25-0.25s0.112-0.25,0.25-0.25h35.5 c0.138,0,0.25,0.112,0.25,0.25S79.638,65.75,79.5,65.75z"/><path fill="#472b29" d="M43,65.75H24c-0.138,0-0.25-0.112-0.25-0.25s0.112-0.25,0.25-0.25h19c0.138,0,0.25,0.112,0.25,0.25 S43.138,65.75,43,65.75z"/><path fill="#472b29" d="M79.5,62.75H64c-0.138,0-0.25-0.112-0.25-0.25s0.112-0.25,0.25-0.25h15.5 c0.138,0,0.25,0.112,0.25,0.25S79.638,62.75,79.5,62.75z"/><path fill="#472b29" d="M62.5,62.75H24c-0.138,0-0.25-0.112-0.25-0.25s0.112-0.25,0.25-0.25h38.5 c0.138,0,0.25,0.112,0.25,0.25S62.638,62.75,62.5,62.75z"/><path fill="#472b29" d="M79,59.75H24c-0.138,0-0.25-0.112-0.25-0.25s0.112-0.25,0.25-0.25h55c0.138,0,0.25,0.112,0.25,0.25 S79.138,59.75,79,59.75z"/><path fill="#472b29" d="M79.5,56.75H57c-0.138,0-0.25-0.112-0.25-0.25s0.112-0.25,0.25-0.25h22.5 c0.138,0,0.25,0.112,0.25,0.25S79.638,56.75,79.5,56.75z"/><path fill="#472b29" d="M55.5,56.75H24c-0.138,0-0.25-0.112-0.25-0.25s0.112-0.25,0.25-0.25h31.5 c0.138,0,0.25,0.112,0.25,0.25S55.638,56.75,55.5,56.75z"/><path fill="#472b29" d="M79.5,53.75h-9c-0.138,0-0.25-0.112-0.25-0.25s0.112-0.25,0.25-0.25h9c0.138,0,0.25,0.112,0.25,0.25 S79.638,53.75,79.5,53.75z"/><path fill="#472b29" d="M68.5,53.75H24c-0.138,0-0.25-0.112-0.25-0.25s0.112-0.25,0.25-0.25h44.5 c0.138,0,0.25,0.112,0.25,0.25S68.638,53.75,68.5,53.75z"/><path fill="#472b29" d="M79.5,44.75H61c-0.138,0-0.25-0.112-0.25-0.25s0.112-0.25,0.25-0.25h18.5 c0.138,0,0.25,0.112,0.25,0.25S79.638,44.75,79.5,44.75z"/><path fill="#472b29" d="M79.5,47.75H67c-0.138,0-0.25-0.112-0.25-0.25s0.112-0.25,0.25-0.25h12.5 c0.138,0,0.25,0.112,0.25,0.25S79.638,47.75,79.5,47.75z"/><path fill="#472b29" d="M53,68.75H24c-0.138,0-0.25-0.112-0.25-0.25s0.112-0.25,0.25-0.25h29c0.138,0,0.25,0.112,0.25,0.25 S53.138,68.75,53,68.75z"/><path fill="#472b29" d="M47.5,35.75H35c-0.138,0-0.25-0.112-0.25-0.25s0.112-0.25,0.25-0.25h12.5 c0.138,0,0.25,0.112,0.25,0.25S47.638,35.75,47.5,35.75z"/><g><path fill="#472b29" d="M33,35.75h-9c-0.138,0-0.25-0.112-0.25-0.25s0.112-0.25,0.25-0.25h9c0.138,0,0.25,0.112,0.25,0.25 S33.138,35.75,33,35.75z"/></g><g><path fill="#472b29" d="M68,35.75H50.5c-0.138,0-0.25-0.112-0.25-0.25s0.112-0.25,0.25-0.25H68 c0.138,0,0.25,0.112,0.25,0.25S68.138,35.75,68,35.75z"/></g><g><path fill="#472b29" d="M78.5,38.75h-29c-0.138,0-0.25-0.112-0.25-0.25s0.112-0.25,0.25-0.25h29 c0.138,0,0.25,0.112,0.25,0.25S78.638,38.75,78.5,38.75z"/></g><g><path fill="#472b29" d="M47.479,38.75H23.563c-0.138,0-0.25-0.112-0.25-0.25s0.112-0.25,0.25-0.25h23.917 c0.138,0,0.25,0.112,0.25,0.25S47.617,38.75,47.479,38.75z"/></g><g><path fill="#472b29" d="M64,41.75H23.5c-0.138,0-0.25-0.112-0.25-0.25s0.112-0.25,0.25-0.25H64 c0.138,0,0.25,0.112,0.25,0.25S64.138,41.75,64,41.75z"/></g><g><path fill="#472b29" d="M59,44.75H23.5c-0.138,0-0.25-0.112-0.25-0.25s0.112-0.25,0.25-0.25H59 c0.138,0,0.25,0.112,0.25,0.25S59.138,44.75,59,44.75z"/></g><g><path fill="#472b29" d="M64.5,47.75h-41c-0.138,0-0.25-0.112-0.25-0.25s0.112-0.25,0.25-0.25h41 c0.138,0,0.25,0.112,0.25,0.25S64.638,47.75,64.5,47.75z"/></g><g><path fill="#472b29" d="M79,41.75H66c-0.138,0-0.25-0.112-0.25-0.25s0.112-0.25,0.25-0.25h13c0.138,0,0.25,0.112,0.25,0.25 S79.138,41.75,79,41.75z"/></g><g><path fill="#472b29" d="M68,68.75H56c-0.138,0-0.25-0.112-0.25-0.25s0.112-0.25,0.25-0.25h12c0.138,0,0.25,0.112,0.25,0.25 S68.138,68.75,68,68.75z"/></g><g><path fill="#78a0cf" d="M23.833,50.583h23.75v-17.5H25.134c-0.719,0-1.301,0.582-1.301,1.301V50.583z"/></g><g><polygon fill="#fff" points="26.5,36 26.655,36.329 27,36.382 26.75,36.638 26.809,37 26.5,36.829 26.191,37 26.25,36.638 26,36.382 26.345,36.329"/><polygon fill="#fff" points="29.5,36 29.655,36.329 30,36.382 29.75,36.638 29.809,37 29.5,36.829 29.191,37 29.25,36.638 29,36.382 29.345,36.329"/><polygon fill="#fff" points="32.5,36 32.655,36.329 33,36.382 32.75,36.638 32.809,37 32.5,36.829 32.191,37 32.25,36.638 32,36.382 32.345,36.329"/><polygon fill="#fff" points="35.5,36 35.655,36.329 36,36.382 35.75,36.638 35.809,37 35.5,36.829 35.191,37 35.25,36.638 35,36.382 35.345,36.329"/><polygon fill="#fff" points="38.5,36 38.655,36.329 39,36.382 38.75,36.638 38.809,37 38.5,36.829 38.191,37 38.25,36.638 38,36.382 38.345,36.329"/><polygon fill="#fff" points="41.5,36 41.655,36.329 42,36.382 41.75,36.638 41.809,37 41.5,36.829 41.191,37 41.25,36.638 41,36.382 41.345,36.329"/><polygon fill="#fff" points="44.5,36 44.655,36.329 45,36.382 44.75,36.638 44.809,37 44.5,36.829 44.191,37 44.25,36.638 44,36.382 44.345,36.329"/><polygon fill="#fff" points="27.5,38 27.655,38.329 28,38.382 27.75,38.638 27.809,39 27.5,38.829 27.191,39 27.25,38.638 27,38.382 27.345,38.329"/><polygon fill="#fff" points="30.5,38 30.655,38.329 31,38.382 30.75,38.638 30.809,39 30.5,38.829 30.191,39 30.25,38.638 30,38.382 30.345,38.329"/><polygon fill="#fff" points="33.5,38 33.655,38.329 34,38.382 33.75,38.638 33.809,39 33.5,38.829 33.191,39 33.25,38.638 33,38.382 33.345,38.329"/><polygon fill="#fff" points="36.5,38 36.655,38.329 37,38.382 36.75,38.638 36.809,39 36.5,38.829 36.191,39 36.25,38.638 36,38.382 36.345,38.329"/><polygon fill="#fff" points="39.5,38 39.655,38.329 40,38.382 39.75,38.638 39.809,39 39.5,38.829 39.191,39 39.25,38.638 39,38.382 39.345,38.329"/><polygon fill="#fff" points="42.5,38 42.655,38.329 43,38.382 42.75,38.638 42.809,39 42.5,38.829 42.191,39 42.25,38.638 42,38.382 42.345,38.329"/><polygon fill="#fff" points="45.5,38 45.655,38.329 46,38.382 45.75,38.638 45.809,39 45.5,38.829 45.191,39 45.25,38.638 45,38.382 45.345,38.329"/><polygon fill="#fff" points="26.5,40 26.655,40.329 27,40.382 26.75,40.638 26.809,41 26.5,40.829 26.191,41 26.25,40.638 26,40.382 26.345,40.329"/><polygon fill="#fff" points="29.5,40 29.655,40.329 30,40.382 29.75,40.638 29.809,41 29.5,40.829 29.191,41 29.25,40.638 29,40.382 29.345,40.329"/><polygon fill="#fff" points="32.5,40 32.655,40.329 33,40.382 32.75,40.638 32.809,41 32.5,40.829 32.191,41 32.25,40.638 32,40.382 32.345,40.329"/><polygon fill="#fff" points="35.5,40 35.655,40.329 36,40.382 35.75,40.638 35.809,41 35.5,40.829 35.191,41 35.25,40.638 35,40.382 35.345,40.329"/><polygon fill="#fff" points="38.5,40 38.655,40.329 39,40.382 38.75,40.638 38.809,41 38.5,40.829 38.191,41 38.25,40.638 38,40.382 38.345,40.329"/><polygon fill="#fff" points="41.5,40 41.655,40.329 42,40.382 41.75,40.638 41.809,41 41.5,40.829 41.191,41 41.25,40.638 41,40.382 41.345,40.329"/><polygon fill="#fff" points="44.5,40 44.655,40.329 45,40.382 44.75,40.638 44.809,41 44.5,40.829 44.191,41 44.25,40.638 44,40.382 44.345,40.329"/><polygon fill="#fff" points="27.5,42 27.655,42.329 28,42.382 27.75,42.638 27.809,43 27.5,42.829 27.191,43 27.25,42.638 27,42.382 27.345,42.329"/><polygon fill="#fff" points="30.5,42 30.655,42.329 31,42.382 30.75,42.638 30.809,43 30.5,42.829 30.191,43 30.25,42.638 30,42.382 30.345,42.329"/><polygon fill="#fff" points="33.5,42 33.655,42.329 34,42.382 33.75,42.638 33.809,43 33.5,42.829 33.191,43 33.25,42.638 33,42.382 33.345,42.329"/><polygon fill="#fff" points="36.5,42 36.655,42.329 37,42.382 36.75,42.638 36.809,43 36.5,42.829 36.191,43 36.25,42.638 36,42.382 36.345,42.329"/><polygon fill="#fff" points="39.5,42 39.655,42.329 40,42.382 39.75,42.638 39.809,43 39.5,42.829 39.191,43 39.25,42.638 39,42.382 39.345,42.329"/><polygon fill="#fff" points="42.5,42 42.655,42.329 43,42.382 42.75,42.638 42.809,43 42.5,42.829 42.191,43 42.25,42.638 42,42.382 42.345,42.329"/><polygon fill="#fff" points="45.5,42 45.655,42.329 46,42.382 45.75,42.638 45.809,43 45.5,42.829 45.191,43 45.25,42.638 45,42.382 45.345,42.329"/><polygon fill="#fff" points="26.5,44 26.655,44.329 27,44.382 26.75,44.638 26.809,45 26.5,44.829 26.191,45 26.25,44.638 26,44.382 26.345,44.329"/><polygon fill="#fff" points="29.5,44 29.655,44.329 30,44.382 29.75,44.638 29.809,45 29.5,44.829 29.191,45 29.25,44.638 29,44.382 29.345,44.329"/><polygon fill="#fff" points="32.5,44 32.655,44.329 33,44.382 32.75,44.638 32.809,45 32.5,44.829 32.191,45 32.25,44.638 32,44.382 32.345,44.329"/><polygon fill="#fff" points="35.5,44 35.655,44.329 36,44.382 35.75,44.638 35.809,45 35.5,44.829 35.191,45 35.25,44.638 35,44.382 35.345,44.329"/><polygon fill="#fff" points="38.5,44 38.655,44.329 39,44.382 38.75,44.638 38.809,45 38.5,44.829 38.191,45 38.25,44.638 38,44.382 38.345,44.329"/><polygon fill="#fff" points="41.5,44 41.655,44.329 42,44.382 41.75,44.638 41.809,45 41.5,44.829 41.191,45 41.25,44.638 41,44.382 41.345,44.329"/><polygon fill="#fff" points="44.5,44 44.655,44.329 45,44.382 44.75,44.638 44.809,45 44.5,44.829 44.191,45 44.25,44.638 44,44.382 44.345,44.329"/><polygon fill="#fff" points="26.5,48 26.655,48.329 27,48.382 26.75,48.638 26.809,49 26.5,48.829 26.191,49 26.25,48.638 26,48.382 26.345,48.329"/><polygon fill="#fff" points="29.5,48 29.655,48.329 30,48.382 29.75,48.638 29.809,49 29.5,48.829 29.191,49 29.25,48.638 29,48.382 29.345,48.329"/><polygon fill="#fff" points="32.5,48 32.655,48.329 33,48.382 32.75,48.638 32.809,49 32.5,48.829 32.191,49 32.25,48.638 32,48.382 32.345,48.329"/><polygon fill="#fff" points="35.5,48 35.655,48.329 36,48.382 35.75,48.638 35.809,49 35.5,48.829 35.191,49 35.25,48.638 35,48.382 35.345,48.329"/><polygon fill="#fff" points="38.5,48 38.655,48.329 39,48.382 38.75,48.638 38.809,49 38.5,48.829 38.191,49 38.25,48.638 38,48.382 38.345,48.329"/><polygon fill="#fff" points="41.5,48 41.655,48.329 42,48.382 41.75,48.638 41.809,49 41.5,48.829 41.191,49 41.25,48.638 41,48.382 41.345,48.329"/><polygon fill="#fff" points="44.5,48 44.655,48.329 45,48.382 44.75,48.638 44.809,49 44.5,48.829 44.191,49 44.25,48.638 44,48.382 44.345,48.329"/><polygon fill="#fff" points="27.5,46 27.655,46.329 28,46.382 27.75,46.638 27.809,47 27.5,46.829 27.191,47 27.25,46.638 27,46.382 27.345,46.329"/><polygon fill="#fff" points="30.5,46 30.655,46.329 31,46.382 30.75,46.638 30.809,47 30.5,46.829 30.191,47 30.25,46.638 30,46.382 30.345,46.329"/><polygon fill="#fff" points="33.5,46 33.655,46.329 34,46.382 33.75,46.638 33.809,47 33.5,46.829 33.191,47 33.25,46.638 33,46.382 33.345,46.329"/><polygon fill="#fff" points="36.5,46 36.655,46.329 37,46.382 36.75,46.638 36.809,47 36.5,46.829 36.191,47 36.25,46.638 36,46.382 36.345,46.329"/><polygon fill="#fff" points="39.5,46 39.655,46.329 40,46.382 39.75,46.638 39.809,47 39.5,46.829 39.191,47 39.25,46.638 39,46.382 39.345,46.329"/><polygon fill="#fff" points="42.5,46 42.655,46.329 43,46.382 42.75,46.638 42.809,47 42.5,46.829 42.191,47 42.25,46.638 42,46.382 42.345,46.329"/><polygon fill="#fff" points="45.5,46 45.655,46.329 46,46.382 45.75,46.638 45.809,47 45.5,46.829 45.191,47 45.25,46.638 45,46.382 45.345,46.329"/></g><g><path fill="#472b29" d="M76.75,33.4c1.02,0,1.85,0.83,1.85,1.85v33.5c0,1.02-0.83,1.85-1.85,1.85h-50.5 c-1.02,0-1.85-0.83-1.85-1.85v-33.5c0-1.02,0.83-1.85,1.85-1.85H76.75 M76.75,32h-50.5C24.455,32,23,33.455,23,35.25v33.5 c0,1.795,1.455,3.25,3.25,3.25h50.5c1.795,0,3.25-1.455,3.25-3.25v-33.5C80,33.455,78.545,32,76.75,32L76.75,32z"/></g><g><path fill="#472b29" d="M47.458,50.75H24c-0.138,0-0.25-0.112-0.25-0.25s0.112-0.25,0.25-0.25h23.458 c0.138,0,0.25,0.112,0.25,0.25S47.597,50.75,47.458,50.75z"/></g><g><path fill="#472b29" d="M79.5,50.75H50c-0.138,0-0.25-0.112-0.25-0.25s0.112-0.25,0.25-0.25h29.5 c0.138,0,0.25,0.112,0.25,0.25S79.638,50.75,79.5,50.75z"/></g><g><path fill="#472b29" d="M47.499,50.75c-0.138,0-0.25-0.112-0.25-0.25V37.875c0-0.138,0.112-0.25,0.25-0.25 s0.25,0.112,0.25,0.25V50.5C47.749,50.638,47.637,50.75,47.499,50.75z"/></g><g><path fill="#472b29" d="M47.501,37.042c-0.138,0-0.25-0.112-0.25-0.25V32.5c0-0.138,0.112-0.25,0.25-0.25 s0.25,0.112,0.25,0.25v4.292C47.751,36.93,47.64,37.042,47.501,37.042z"/></g><g><path fill="#fdfcef" d="M86.5,66.5c0,0,1.567,0,3.5,0s3.5-1.567,3.5-3.5c0-1.781-1.335-3.234-3.055-3.455 C90.473,59.366,90.5,59.187,90.5,59c0-1.933-1.567-3.5-3.5-3.5c-1.032,0-1.95,0.455-2.59,1.165 c-0.384-1.808-1.987-3.165-3.91-3.165c-2.209,0-4,1.791-4,4c0,0.191,0.03,0.374,0.056,0.558C76.128,57.714,75.592,57.5,75,57.5 c-1.228,0-2.245,0.887-2.455,2.055C72.366,59.527,72.187,59.5,72,59.5c-1.933,0-3.5,1.567-3.5,3.5s1.567,3.5,3.5,3.5s7.5,0,7.5,0 V67h7V66.5z"/><path fill="#472b29" d="M88.25,62C88.112,62,88,61.888,88,61.75c0-1.223,0.995-2.218,2.218-2.218 c0.034,0.009,0.737-0.001,1.244,0.136c0.133,0.036,0.212,0.173,0.176,0.306c-0.036,0.134-0.173,0.213-0.306,0.176 c-0.444-0.12-1.1-0.12-1.113-0.118c-0.948,0-1.719,0.771-1.719,1.718C88.5,61.888,88.388,62,88.25,62z"/><circle cx="81.5" cy="66.5" r=".5" fill="#472b29"/><path fill="#472b29" d="M90,67h-3.5c-0.276,0-0.5-0.224-0.5-0.5s0.224-0.5,0.5-0.5H90c1.654,0,3-1.346,3-3 c0-1.496-1.125-2.768-2.618-2.959c-0.134-0.018-0.255-0.088-0.336-0.196s-0.115-0.244-0.094-0.377C89.975,59.314,90,59.16,90,59 c0-1.654-1.346-3-3-3c-0.85,0-1.638,0.355-2.219,1c-0.125,0.139-0.321,0.198-0.5,0.148c-0.182-0.049-0.321-0.195-0.36-0.379 C83.58,55.165,82.141,54,80.5,54c-1.93,0-3.5,1.57-3.5,3.5c0,0.143,0.021,0.28,0.041,0.418c0.029,0.203-0.063,0.438-0.242,0.54 c-0.179,0.102-0.396,0.118-0.556-0.01C75.878,58.155,75.449,58,75,58c-0.966,0-1.792,0.691-1.963,1.644 c-0.048,0.267-0.296,0.446-0.569,0.405C72.314,60.025,72.16,60,72,60c-1.654,0-3,1.346-3,3s1.346,3,3,3h7.5 c0.276,0,0.5,0.224,0.5,0.5S79.776,67,79.5,67H72c-2.206,0-4-1.794-4-4s1.794-4,4-4c0.059,0,0.116,0.002,0.174,0.006 C72.588,57.82,73.711,57,75,57c0.349,0,0.689,0.061,1.011,0.18C76.176,54.847,78.126,53,80.5,53c1.831,0,3.466,1.127,4.153,2.774 C85.333,55.276,86.155,55,87,55c2.206,0,4,1.794,4,4c0,0.048-0.001,0.095-0.004,0.142C92.739,59.59,94,61.169,94,63 C94,65.206,92.206,67,90,67z"/><path fill="#472b29" d="M84.5,66c-0.159,0-0.841,0-1,0c-0.276,0-0.5,0.224-0.5,0.5c0,0.276,0.224,0.5,0.5,0.5 c0.159,0,0.841,0,1,0c0.276,0,0.5-0.224,0.5-0.5C85,66.224,84.776,66,84.5,66z"/></g></svg>